<svg width="50" height="100" viewBox="0 0 50 100" fill="none" xmlns="http://www.w3.org/2000/svg">
<path d="M32.8125 0C35.4102 0 37.5 2.09961 37.5 4.6875V12.5H12.5V4.6875C12.5 2.09961 14.5898 0 17.1875 0H32.8125ZM0 29.6289C0 26.582 1.76562 23.8086 4.5293 22.5195L9.29688 20.2734C11.4414 19.2715 13.7891 18.75 16.1523 18.75H33.8477C36.2109 18.75 38.5547 19.2715 40.7031 20.2734L45.4687 22.5195C48.0664 23.8086 50 26.582 50 29.6289C50 32.4414 48.5352 34.9023 46.3086 36.2891C48.5547 38.0078 50 40.7031 50 43.5742C50 47.0117 48.3398 49.8828 45.8008 51.3867C48.3398 53.2422 50 56.1133 50 59.1992C50 62.6367 48.3398 65.5078 45.8008 67.1875C48.3398 68.8672 50 71.7383 50 75C50 78.2617 48.3398 81.1328 45.8008 82.8125C48.3398 84.4922 50 87.3633 50 90.625C50 95.8008 45.8008 100 40.625 100H9.375C4.19727 100 0 95.8008 0 90.625C0 87.3633 1.66406 84.4922 4.19141 82.8125C1.66406 81.1328 0 78.2617 0 75C0 71.7383 1.66406 68.8672 4.19141 67.1875C1.66406 65.5078 0 62.6367 0 59.1992C0 56.1133 1.66406 53.2422 4.19141 51.3867C1.66406 49.8828 0 47.0117 0 43.5742C0 40.7031 1.44531 38.0078 3.68555 36.2891C1.4707 34.9023 0 32.4414 0 29.6289ZM15.625 50H34.375C36.0938 50 37.5 48.5938 37.5 46.875C37.5 45.1562 36.0938 43.75 34.375 43.75H15.625C13.9062 43.75 12.5 45.1562 12.5 46.875C12.5 48.5938 13.9062 50 15.625 50ZM15.625 68.75C13.9062 68.75 12.5 70.1562 12.5 71.875C12.5 73.5938 13.9062 75 15.625 75H34.375C36.0938 75 37.5 73.5938 37.5 71.875C37.5 70.1562 36.0938 68.75 34.375 68.75H15.625Z" fill="#34AA70"/>
</svg>
