<svg width="100" height="100" viewBox="0 0 100 100" fill="none" xmlns="http://www.w3.org/2000/svg">
<rect width="100" height="100" fill="white"/>
<path d="M32.8069 100C30.4688 100 28.4229 99.2902 26.6693 97.8707C24.9157 96.4511 23.7467 94.614 23.1621 92.3594L17.5256 69.9385H82.6588L77.0223 92.3594C76.4378 94.614 75.2687 96.4511 73.5151 97.8707C71.7616 99.2902 69.7157 100 67.3776 100H32.8069ZM23.7884 0.0455477C31.2203 0.964093 37.4631 4.2408 42.5167 9.87566C47.5671 15.5139 50.0922 22.1741 50.0922 29.8565C50.0922 22.1741 52.6174 15.5139 57.6677 9.87566C62.7214 4.2408 68.9642 0.964093 76.396 0.0455477C77.3981 -0.121461 78.2749 0.170804 79.0264 0.922341C79.778 1.67388 80.0702 2.55067 79.9032 3.55272C79.0682 10.1495 76.3543 15.8061 71.7616 20.5224C67.1688 25.2421 61.6158 28.1864 55.1025 29.3555V39.877H90.1742C91.5938 39.877 92.7829 40.3563 93.7415 41.315C94.7035 42.2769 95.1845 43.4677 95.1845 44.8873V54.9078C95.1845 57.6634 94.2041 60.0216 92.2435 61.9822C90.2794 63.9463 87.9196 64.9283 85.164 64.9283H15.0205C12.2649 64.9283 9.90503 63.9463 7.94102 61.9822C5.98034 60.0216 5 57.6634 5 54.9078V44.8873C5 43.4677 5.48098 42.2769 6.44295 41.315C7.40158 40.3563 8.59068 39.877 10.0102 39.877H45.082V29.3555C38.5687 28.1864 33.0156 25.2421 28.4229 20.5224C23.8302 15.8061 21.1163 10.1495 20.2813 3.55272C20.1142 2.55067 20.4065 1.67388 21.1581 0.922341C21.9096 0.170804 22.7864 -0.121461 23.7884 0.0455477Z" fill="#34AA70"/>
</svg>
