<svg width="340" height="380" viewBox="0 0 340 380" fill="none" xmlns="http://www.w3.org/2000/svg">
<g filter="url(#filter0_d_92_115)">
<rect x="20" y="20" width="300" height="340" rx="23" fill="white"/>
</g>
<path d="M124.373 308.912H123.293V318.824H119.261V298.256C119.261 297.6 119.461 297.112 119.861 296.792C120.261 296.456 120.733 296.288 121.277 296.288C121.533 296.288 121.781 296.336 122.021 296.432C122.261 296.512 122.477 296.64 122.669 296.816C122.861 296.976 123.013 297.176 123.125 297.416C123.237 297.656 123.293 297.936 123.293 298.256V304.976H124.373V298.256C124.373 297.6 124.573 297.112 124.973 296.792C125.389 296.456 125.869 296.288 126.413 296.288C126.669 296.288 126.917 296.336 127.157 296.432C127.413 296.512 127.637 296.64 127.829 296.816C128.021 296.976 128.173 297.176 128.285 297.416C128.413 297.656 128.477 297.936 128.477 298.256V318.824H124.373V308.912ZM112.493 314.816C112.797 314.656 113.061 314.472 113.285 314.264C113.525 314.056 113.725 313.792 113.885 313.472C114.045 313.136 114.165 312.736 114.245 312.272C114.325 311.792 114.365 311.2 114.365 310.496V301.16C114.365 301.048 114.349 300.984 114.317 300.968C114.301 300.936 114.277 300.92 114.245 300.92H112.517V309.824C112.517 311.12 112.373 312.2 112.085 313.064C111.797 313.912 111.421 314.608 110.957 315.152C110.509 315.68 110.005 316.072 109.445 316.328C108.885 316.568 108.341 316.72 107.813 316.784C107.301 316.848 106.885 316.744 106.565 316.472C106.261 316.184 106.077 315.848 106.013 315.464C105.981 315.224 105.965 315 105.965 314.792C105.965 314.584 106.005 314.392 106.085 314.216C106.165 314.024 106.285 313.848 106.445 313.688C106.621 313.512 106.861 313.352 107.165 313.208C107.357 313.112 107.541 312.992 107.717 312.848C107.909 312.688 108.077 312.472 108.221 312.2C108.381 311.928 108.501 311.592 108.581 311.192C108.677 310.792 108.725 310.288 108.725 309.68V301.208C108.725 301.096 108.709 301.032 108.677 301.016C108.661 300.984 108.637 300.968 108.605 300.968H108.005C107.685 300.968 107.413 300.92 107.189 300.824C106.981 300.712 106.805 300.568 106.661 300.392C106.533 300.216 106.437 300.016 106.373 299.792C106.309 299.568 106.277 299.336 106.277 299.096C106.277 298.856 106.301 298.624 106.349 298.4C106.413 298.176 106.509 297.976 106.637 297.8C106.781 297.624 106.965 297.48 107.189 297.368C107.413 297.256 107.685 297.2 108.005 297.2H115.253C115.893 297.2 116.405 297.248 116.789 297.344C117.173 297.424 117.469 297.568 117.677 297.776C117.885 297.968 118.021 298.24 118.085 298.592C118.165 298.944 118.205 299.384 118.205 299.912V310.64C118.205 311.92 118.101 313.016 117.893 313.928C117.701 314.84 117.421 315.6 117.053 316.208C116.685 316.816 116.229 317.288 115.685 317.624C115.141 317.96 114.533 318.192 113.861 318.32C113.349 318.416 112.869 318.368 112.421 318.176C111.989 318 111.709 317.704 111.581 317.288C111.421 316.792 111.413 316.32 111.557 315.872C111.701 315.408 112.013 315.056 112.493 314.816ZM133.565 300.368C132.781 300.368 132.213 300.192 131.861 299.84C131.525 299.488 131.357 299.032 131.357 298.472C131.357 297.96 131.525 297.528 131.861 297.176C132.197 296.808 132.765 296.624 133.565 296.624H148.709C149.845 296.624 150.661 296.8 151.157 297.152C151.669 297.488 151.925 298.152 151.925 299.144V301.544C151.925 302.408 151.869 303.16 151.757 303.8C151.645 304.44 151.501 304.992 151.325 305.456C151.661 305.488 151.941 305.568 152.165 305.696C152.405 305.808 152.597 305.952 152.741 306.128C152.885 306.304 152.989 306.504 153.053 306.728C153.117 306.952 153.149 307.176 153.149 307.4C153.149 307.896 152.989 308.344 152.669 308.744C152.365 309.128 151.853 309.32 151.133 309.32H132.701C131.981 309.32 131.461 309.128 131.141 308.744C130.837 308.344 130.685 307.896 130.685 307.4C130.685 307.16 130.717 306.928 130.781 306.704C130.861 306.464 130.981 306.256 131.141 306.08C131.301 305.888 131.509 305.736 131.765 305.624C132.021 305.512 132.333 305.456 132.701 305.456H136.517C136.965 304.896 137.277 304.32 137.453 303.728C137.629 303.136 137.717 302.496 137.717 301.808V300.896C137.717 300.752 137.677 300.632 137.597 300.536C137.517 300.424 137.389 300.368 137.213 300.368H133.565ZM144.269 312.2C144.269 312.264 144.261 312.32 144.245 312.368C144.245 312.416 144.245 312.472 144.245 312.536C145.221 312.488 146.181 312.568 147.125 312.776C148.069 312.968 148.925 313.32 149.693 313.832C150.461 314.328 151.117 314.992 151.661 315.824C152.205 316.64 152.565 317.64 152.741 318.824H147.845C147.445 317.736 146.757 316.952 145.781 316.472C144.805 315.976 143.693 315.824 142.445 316.016C141.869 316.576 141.189 317.064 140.405 317.48C139.637 317.896 138.837 318.224 138.005 318.464C137.173 318.72 136.341 318.888 135.509 318.968C134.677 319.048 133.901 319.04 133.181 318.944C132.525 318.864 132.013 318.632 131.645 318.248C131.277 317.864 131.117 317.36 131.165 316.736C131.213 316.208 131.445 315.8 131.861 315.512C132.277 315.224 132.765 315.104 133.325 315.152C133.997 315.2 134.661 315.152 135.317 315.008C135.989 314.864 136.597 314.648 137.141 314.36C137.701 314.072 138.173 313.736 138.557 313.352C138.941 312.952 139.189 312.528 139.301 312.08C139.477 311.344 139.813 310.816 140.309 310.496C140.805 310.176 141.397 310.032 142.085 310.064C142.405 310.08 142.701 310.136 142.973 310.232C143.245 310.312 143.477 310.44 143.669 310.616C143.877 310.792 144.029 311.016 144.125 311.288C144.237 311.544 144.285 311.848 144.269 312.2ZM142.421 301.424C142.421 302.336 142.341 303.12 142.181 303.776C142.021 304.416 141.741 304.976 141.341 305.456H146.621C146.829 304.96 146.981 304.424 147.077 303.848C147.173 303.256 147.221 302.656 147.221 302.048V300.848C147.221 300.496 147.021 300.32 146.621 300.32H142.421V301.424ZM162.485 310.52C161.637 310.52 160.829 310.416 160.061 310.208C159.293 310 158.621 309.688 158.045 309.272C157.469 308.84 157.005 308.304 156.653 307.664C156.317 307.024 156.149 306.264 156.149 305.384V303.632C156.149 303.312 156.189 303.016 156.269 302.744C156.365 302.472 156.493 302.208 156.653 301.952H156.629C156.037 301.952 155.589 301.776 155.285 301.424C154.981 301.072 154.829 300.68 154.829 300.248C154.829 299.816 154.973 299.408 155.261 299.024C155.565 298.64 156.013 298.448 156.605 298.448H160.085V298.4C160.085 297.68 160.301 297.128 160.733 296.744C161.181 296.36 161.765 296.168 162.485 296.168C163.205 296.168 163.789 296.368 164.237 296.768C164.685 297.152 164.909 297.696 164.909 298.4V298.448H168.365C168.973 298.448 169.413 298.64 169.685 299.024C169.973 299.408 170.117 299.816 170.117 300.248C170.117 300.68 169.981 301.072 169.709 301.424C169.437 301.776 168.997 301.952 168.389 301.952H168.293C168.645 302.48 168.821 303.04 168.821 303.632V305.384C168.821 306.264 168.645 307.024 168.293 307.664C167.957 308.304 167.501 308.84 166.925 309.272C166.349 309.688 165.677 310 164.909 310.208C164.141 310.416 163.333 310.52 162.485 310.52ZM160.445 318.824C159.773 318.824 159.213 318.76 158.765 318.632C158.333 318.504 157.989 318.304 157.733 318.032C157.477 317.76 157.293 317.4 157.181 316.952C157.085 316.504 157.037 315.96 157.037 315.32V313.544C157.037 312.728 157.277 312.128 157.757 311.744C158.253 311.36 158.837 311.168 159.509 311.168C160.181 311.168 160.749 311.36 161.213 311.744C161.677 312.128 161.909 312.728 161.909 313.544V314.504C161.909 314.776 161.949 314.944 162.029 315.008C162.109 315.072 162.285 315.104 162.557 315.104H175.133C175.869 315.104 176.389 315.296 176.693 315.68C176.997 316.048 177.149 316.472 177.149 316.952C177.149 317.448 176.989 317.88 176.669 318.248C176.365 318.632 175.853 318.824 175.133 318.824H160.445ZM171.629 298.664C171.629 297.88 171.861 297.288 172.325 296.888C172.789 296.488 173.341 296.288 173.981 296.288C174.605 296.288 175.149 296.496 175.613 296.912C176.093 297.312 176.333 297.896 176.333 298.664V302.288H177.077C177.445 302.288 177.749 302.352 177.989 302.48C178.229 302.608 178.421 302.776 178.565 302.984C178.709 303.176 178.813 303.4 178.877 303.656C178.941 303.896 178.973 304.136 178.973 304.376C178.973 304.616 178.941 304.864 178.877 305.12C178.813 305.36 178.709 305.584 178.565 305.792C178.421 305.984 178.221 306.144 177.965 306.272C177.725 306.4 177.429 306.464 177.077 306.464H176.333V313.256H171.629V298.664ZM162.485 307.088C162.981 307.088 163.429 306.936 163.829 306.632C164.245 306.312 164.453 305.856 164.453 305.264V303.608C164.453 303.016 164.245 302.568 163.829 302.264C163.429 301.944 162.981 301.784 162.485 301.784C161.989 301.784 161.533 301.944 161.117 302.264C160.717 302.568 160.517 303.016 160.517 303.608V305.264C160.517 305.856 160.717 306.312 161.117 306.632C161.533 306.936 161.989 307.088 162.485 307.088ZM195.635 314.456V311.048H191.747C190.355 311.048 189.371 310.752 188.795 310.16C188.219 309.552 187.931 308.6 187.931 307.304V300.752C187.931 299.456 188.219 298.512 188.795 297.92C189.371 297.312 190.355 297.008 191.747 297.008H206.291C206.627 297.008 206.907 297.064 207.131 297.176C207.371 297.288 207.563 297.432 207.707 297.608C207.867 297.784 207.979 297.984 208.043 298.208C208.107 298.432 208.139 298.656 208.139 298.88C208.139 299.344 207.995 299.768 207.707 300.152C207.419 300.536 206.947 300.728 206.291 300.728H193.523C193.043 300.728 192.803 300.936 192.803 301.352V302.24H206.147C206.819 302.24 207.291 302.432 207.563 302.816C207.851 303.2 207.995 303.608 207.995 304.04C207.995 304.488 207.851 304.904 207.563 305.288C207.275 305.656 206.803 305.84 206.147 305.84H192.803V306.704C192.803 306.944 192.859 307.112 192.971 307.208C193.099 307.304 193.283 307.352 193.523 307.352H206.675C207.011 307.352 207.291 307.408 207.515 307.52C207.755 307.632 207.947 307.776 208.091 307.952C208.251 308.128 208.363 308.328 208.427 308.552C208.491 308.76 208.523 308.976 208.523 309.2C208.523 309.664 208.379 310.088 208.091 310.472C207.803 310.856 207.331 311.048 206.675 311.048H200.531V314.456H207.299C207.667 314.456 207.979 314.512 208.235 314.624C208.491 314.736 208.699 314.888 208.859 315.08C209.019 315.256 209.131 315.464 209.195 315.704C209.275 315.928 209.315 316.16 209.315 316.4C209.315 316.896 209.155 317.344 208.835 317.744C208.531 318.144 208.019 318.344 207.299 318.344H188.867C188.147 318.344 187.627 318.144 187.307 317.744C187.003 317.344 186.851 316.896 186.851 316.4C186.851 316.16 186.883 315.928 186.947 315.704C187.027 315.464 187.147 315.256 187.307 315.08C187.467 314.888 187.675 314.736 187.931 314.624C188.187 314.512 188.499 314.456 188.867 314.456H195.635ZM216.251 301.304H213.035C212.667 301.304 212.355 301.248 212.099 301.136C211.843 301.008 211.635 300.848 211.475 300.656C211.315 300.464 211.195 300.248 211.115 300.008C211.035 299.752 210.995 299.504 210.995 299.264C210.995 299.024 211.027 298.784 211.091 298.544C211.171 298.288 211.291 298.064 211.451 297.872C211.627 297.68 211.843 297.52 212.099 297.392C212.355 297.264 212.667 297.2 213.035 297.2H224.147C224.515 297.2 224.827 297.264 225.083 297.392C225.339 297.52 225.539 297.68 225.683 297.872C225.843 298.064 225.955 298.288 226.019 298.544C226.099 298.784 226.139 299.024 226.139 299.264C226.139 299.504 226.099 299.752 226.019 300.008C225.955 300.248 225.843 300.464 225.683 300.656C225.523 300.848 225.315 301.008 225.059 301.136C224.803 301.248 224.499 301.304 224.147 301.304H220.931V303.896C220.931 304.456 220.915 304.992 220.883 305.504C220.851 306.016 220.803 306.512 220.739 306.992C221.603 307.296 222.379 307.704 223.067 308.216C223.771 308.728 224.355 309.4 224.819 310.232C225.283 311.048 225.627 312.048 225.851 313.232C226.075 314.416 226.155 315.832 226.091 317.48H221.579C221.739 315.864 221.651 314.552 221.315 313.544C220.995 312.52 220.459 311.752 219.707 311.24C219.115 312.776 218.339 314.064 217.379 315.104C216.419 316.128 215.315 316.904 214.067 317.432C213.811 317.544 213.531 317.6 213.227 317.6C212.939 317.616 212.651 317.584 212.363 317.504C212.091 317.44 211.835 317.328 211.595 317.168C211.371 317.024 211.203 316.832 211.091 316.592C210.867 316.144 210.811 315.672 210.923 315.176C211.035 314.68 211.331 314.28 211.811 313.976C212.579 313.496 213.235 312.952 213.779 312.344C214.339 311.72 214.803 311 215.171 310.184C215.539 309.352 215.811 308.416 215.987 307.376C216.163 306.32 216.251 305.12 216.251 303.776V301.304ZM228.347 318.824V298.664C228.347 297.88 228.587 297.288 229.067 296.888C229.547 296.488 230.107 296.288 230.747 296.288C231.387 296.288 231.947 296.488 232.427 296.888C232.907 297.288 233.147 297.88 233.147 298.664V318.824H228.347Z" fill="black"/>
<rect x="30" y="30" width="280" height="320" rx="20" stroke="#85CCA9"/>
<path d="M276.667 130H63.3333C55.9733 130 50 146.059 50 165.846V219.615H290V165.846C290 146.059 284.027 130 276.667 130Z" fill="#DDA14A"/>
<ellipse cx="153" cy="170" rx="17" ry="20" fill="white"/>
<ellipse cx="187" cy="170" rx="17" ry="20" fill="white"/>
<circle cx="153" cy="170" r="8" fill="#33A66D"/>
<circle cx="187" cy="170" r="8" fill="#33A66D"/>
<defs>
<filter id="filter0_d_92_115" x="0" y="0" width="340" height="380" filterUnits="userSpaceOnUse" color-interpolation-filters="sRGB">
<feFlood flood-opacity="0" result="BackgroundImageFix"/>
<feColorMatrix in="SourceAlpha" type="matrix" values="0 0 0 0 0 0 0 0 0 0 0 0 0 0 0 0 0 0 127 0" result="hardAlpha"/>
<feOffset/>
<feGaussianBlur stdDeviation="10"/>
<feComposite in2="hardAlpha" operator="out"/>
<feColorMatrix type="matrix" values="0 0 0 0 0 0 0 0 0 0 0 0 0 0 0 0 0 0 0.16 0"/>
<feBlend mode="normal" in2="BackgroundImageFix" result="effect1_dropShadow_92_115"/>
<feBlend mode="normal" in="SourceGraphic" in2="effect1_dropShadow_92_115" result="shape"/>
</filter>
</defs>
</svg>
