<svg width="340" height="380" viewBox="0 0 340 380" fill="none" xmlns="http://www.w3.org/2000/svg">
<g filter="url(#filter0_d_92_170)">
<rect x="20" y="20" width="300" height="340" rx="23" fill="white"/>
</g>
<path d="M107.501 307.592V306.296C106.749 306.28 106.093 306.176 105.533 305.984C104.989 305.776 104.533 305.496 104.165 305.144C103.797 304.776 103.517 304.352 103.325 303.872C103.149 303.376 103.061 302.84 103.061 302.264C103.061 301.912 103.133 301.552 103.277 301.184C102.877 301.072 102.573 300.88 102.365 300.608C102.157 300.32 102.053 299.968 102.053 299.552C102.053 299.024 102.213 298.6 102.533 298.28C102.869 297.96 103.341 297.8 103.949 297.8H107.357C107.437 297.192 107.685 296.744 108.101 296.456C108.517 296.168 109.061 296.024 109.733 296.024C110.405 296.024 110.941 296.168 111.341 296.456C111.757 296.744 112.005 297.192 112.085 297.8H115.493C116.101 297.8 116.565 297.96 116.885 298.28C117.221 298.6 117.389 299.024 117.389 299.552C117.389 299.968 117.277 300.312 117.053 300.584C116.845 300.856 116.557 301.048 116.189 301.16C116.333 301.528 116.405 301.896 116.405 302.264C116.405 302.84 116.309 303.376 116.117 303.872C115.941 304.352 115.669 304.776 115.301 305.144C114.933 305.496 114.469 305.776 113.909 305.984C113.365 306.176 112.717 306.28 111.965 306.296V307.592H115.757C116.493 307.592 117.013 307.768 117.317 308.12C117.621 308.472 117.773 308.896 117.773 309.392C117.773 309.904 117.613 310.336 117.293 310.688C116.989 311.04 116.477 311.216 115.757 311.216H104.093C103.373 311.216 102.853 311.04 102.533 310.688C102.213 310.336 102.053 309.904 102.053 309.392C102.053 308.896 102.205 308.472 102.509 308.12C102.829 307.768 103.357 307.592 104.093 307.592H107.501ZM118.565 298.664C118.565 297.88 118.797 297.288 119.261 296.888C119.725 296.488 120.277 296.288 120.917 296.288C121.541 296.288 122.085 296.496 122.549 296.912C123.029 297.312 123.269 297.896 123.269 298.664V302.288H124.013C124.381 302.288 124.685 302.352 124.925 302.48C125.165 302.608 125.357 302.776 125.501 302.984C125.645 303.176 125.749 303.4 125.813 303.656C125.877 303.896 125.909 304.136 125.909 304.376C125.909 304.616 125.877 304.864 125.813 305.12C125.749 305.36 125.645 305.584 125.501 305.792C125.357 305.984 125.157 306.144 124.901 306.272C124.661 306.4 124.365 306.464 124.013 306.464H123.269V313.256H118.565V298.664ZM107.381 318.824C106.709 318.824 106.149 318.76 105.701 318.632C105.269 318.504 104.925 318.304 104.669 318.032C104.413 317.76 104.229 317.4 104.117 316.952C104.021 316.504 103.973 315.96 103.973 315.32V314.288C103.973 313.472 104.213 312.904 104.693 312.584C105.189 312.248 105.773 312.08 106.445 312.08C107.117 312.08 107.685 312.248 108.149 312.584C108.613 312.92 108.845 313.488 108.845 314.288V314.552C108.845 314.824 108.885 314.992 108.965 315.056C109.045 315.12 109.221 315.152 109.493 315.152H122.069C122.805 315.152 123.325 315.336 123.629 315.704C123.933 316.072 124.085 316.496 124.085 316.976C124.085 317.472 123.925 317.904 123.605 318.272C123.301 318.64 122.789 318.824 122.069 318.824H107.381ZM111.029 303.32C111.413 303.32 111.701 303.208 111.893 302.984C112.101 302.744 112.205 302.48 112.205 302.192C112.205 301.904 112.101 301.656 111.893 301.448C111.701 301.224 111.413 301.112 111.029 301.112H108.437C108.053 301.112 107.757 301.224 107.549 301.448C107.357 301.656 107.261 301.904 107.261 302.192C107.261 302.48 107.357 302.744 107.549 302.984C107.757 303.208 108.053 303.32 108.437 303.32H111.029ZM129.293 304.952C130.173 305 130.997 304.976 131.765 304.88C132.533 304.768 133.189 304.584 133.733 304.328C134.293 304.056 134.733 303.696 135.053 303.248C135.373 302.784 135.533 302.224 135.533 301.568V301.256C135.533 300.904 135.349 300.728 134.981 300.728H129.557C129.205 300.728 128.901 300.68 128.645 300.584C128.405 300.472 128.205 300.328 128.045 300.152C127.885 299.976 127.765 299.776 127.685 299.552C127.621 299.328 127.589 299.096 127.589 298.856C127.589 298.616 127.621 298.384 127.685 298.16C127.765 297.936 127.885 297.736 128.045 297.56C128.205 297.384 128.405 297.248 128.645 297.152C128.901 297.04 129.205 296.984 129.557 296.984H136.757C137.717 296.984 138.445 297.128 138.941 297.416C139.437 297.704 139.773 298.136 139.949 298.712C140.013 298.696 140.109 298.688 140.237 298.688H143.645V298.616C143.645 297.848 143.877 297.272 144.341 296.888C144.821 296.488 145.373 296.288 145.997 296.288C146.301 296.288 146.597 296.344 146.885 296.456C147.173 296.552 147.429 296.696 147.653 296.888C147.877 297.08 148.053 297.32 148.181 297.608C148.325 297.896 148.397 298.232 148.397 298.616V309.032H143.645V307.04H140.237C139.341 307.04 138.789 306.696 138.581 306.008C137.589 307.16 136.245 307.96 134.549 308.408C132.869 308.856 131.029 308.984 129.029 308.792C128.485 308.744 128.029 308.528 127.661 308.144C127.293 307.744 127.133 307.224 127.181 306.584C127.229 306.024 127.445 305.608 127.829 305.336C128.229 305.048 128.717 304.92 129.293 304.952ZM132.965 318.824C132.133 318.824 131.405 318.712 130.781 318.488C130.173 318.264 129.661 317.952 129.245 317.552C128.845 317.152 128.541 316.68 128.333 316.136C128.141 315.592 128.045 314.992 128.045 314.336C128.045 313.696 128.141 313.104 128.333 312.56C128.541 312 128.845 311.52 129.245 311.12C129.661 310.704 130.173 310.384 130.781 310.16C131.405 309.92 132.133 309.8 132.965 309.8H143.717C144.533 309.8 145.245 309.912 145.853 310.136C146.477 310.36 146.989 310.68 147.389 311.096C147.805 311.496 148.117 311.976 148.325 312.536C148.533 313.08 148.637 313.68 148.637 314.336C148.637 314.992 148.533 315.6 148.325 316.16C148.117 316.704 147.805 317.176 147.389 317.576C146.989 317.976 146.477 318.28 145.853 318.488C145.245 318.712 144.533 318.824 143.717 318.824H132.965ZM142.445 315.464C142.973 315.464 143.325 315.344 143.501 315.104C143.677 314.864 143.765 314.608 143.765 314.336C143.765 314.064 143.677 313.816 143.501 313.592C143.325 313.368 142.973 313.256 142.445 313.256H134.237C133.709 313.256 133.357 313.368 133.181 313.592C133.005 313.816 132.917 314.064 132.917 314.336C132.917 314.608 133.005 314.864 133.181 315.104C133.357 315.344 133.709 315.464 134.237 315.464H142.445ZM140.117 302.024C140.069 302.664 139.965 303.232 139.805 303.728C139.885 303.728 139.957 303.728 140.021 303.728C140.085 303.712 140.157 303.704 140.237 303.704H143.645V302.024H140.117ZM161.292 311.528C160.828 311.528 160.492 311.384 160.284 311.096C160.092 310.808 159.996 310.488 159.996 310.136C159.996 309.8 160.1 309.488 160.308 309.2C160.516 308.896 160.844 308.744 161.292 308.744H176.724C177.78 308.744 178.524 308.928 178.956 309.296C179.388 309.648 179.604 310.296 179.604 311.24V315.032H165.324C165.148 315.032 165.012 315.08 164.916 315.176C164.836 315.256 164.796 315.36 164.796 315.488V315.56C164.796 315.688 164.836 315.8 164.916 315.896C165.012 315.976 165.148 316.016 165.324 316.016H178.884C179.348 316.016 179.684 316.168 179.892 316.472C180.116 316.76 180.228 317.088 180.228 317.456C180.228 317.776 180.124 318.08 179.916 318.368C179.708 318.672 179.364 318.824 178.884 318.824H163.092C162.548 318.824 162.068 318.736 161.652 318.56C161.236 318.384 160.884 318.144 160.596 317.84C160.308 317.552 160.092 317.216 159.948 316.832C159.804 316.448 159.732 316.04 159.732 315.608V315.32C159.732 314.456 160.02 313.776 160.596 313.28C161.172 312.768 162.004 312.512 163.092 312.512H174.732V311.912C174.732 311.768 174.708 311.672 174.66 311.624C174.612 311.56 174.508 311.528 174.348 311.528H161.292ZM167.892 300.68V300.776C167.892 301.16 167.868 301.52 167.82 301.856C169.66 301.856 171.012 302.336 171.876 303.296C172.756 304.256 173.18 305.776 173.148 307.856H168.66C168.74 306.96 168.572 306.28 168.156 305.816C167.756 305.336 167.204 305.136 166.5 305.216C165.78 306.16 164.892 306.864 163.836 307.328C162.78 307.792 161.684 308.024 160.548 308.024C159.956 308.024 159.452 307.864 159.036 307.544C158.636 307.208 158.436 306.768 158.436 306.224C158.436 305.664 158.572 305.224 158.844 304.904C159.132 304.568 159.516 304.376 159.996 304.328C161.1 304.2 161.924 303.816 162.468 303.176C163.028 302.536 163.308 301.736 163.308 300.776V300.68H160.356C160.068 300.68 159.812 300.624 159.588 300.512C159.38 300.4 159.204 300.256 159.06 300.08C158.916 299.888 158.804 299.688 158.724 299.48C158.644 299.256 158.604 299.032 158.604 298.808C158.604 298.6 158.636 298.384 158.7 298.16C158.764 297.92 158.868 297.712 159.012 297.536C159.156 297.36 159.34 297.216 159.564 297.104C159.788 296.976 160.052 296.912 160.356 296.912H171.228C171.532 296.912 171.796 296.976 172.02 297.104C172.244 297.216 172.428 297.36 172.572 297.536C172.716 297.712 172.82 297.92 172.884 298.16C172.948 298.384 172.98 298.6 172.98 298.808C172.98 299.032 172.94 299.256 172.86 299.48C172.78 299.688 172.668 299.888 172.524 300.08C172.38 300.256 172.196 300.4 171.972 300.512C171.764 300.624 171.516 300.68 171.228 300.68H167.892ZM174.684 298.664C174.684 297.88 174.916 297.288 175.38 296.888C175.86 296.488 176.42 296.288 177.06 296.288C177.684 296.288 178.236 296.496 178.716 296.912C179.196 297.312 179.436 297.896 179.436 298.664V300.2H180.18C180.548 300.2 180.852 300.264 181.092 300.392C181.332 300.504 181.524 300.664 181.668 300.872C181.812 301.064 181.916 301.28 181.98 301.52C182.044 301.76 182.076 302 182.076 302.24C182.076 302.48 182.044 302.728 181.98 302.984C181.916 303.224 181.812 303.44 181.668 303.632C181.524 303.824 181.324 303.984 181.068 304.112C180.828 304.224 180.532 304.28 180.18 304.28H179.436V308.096H174.684V298.664ZM187.62 318.824C187.076 318.824 186.588 318.736 186.156 318.56C185.74 318.384 185.388 318.144 185.1 317.84C184.812 317.536 184.588 317.192 184.428 316.808C184.284 316.408 184.212 315.992 184.212 315.56V315.272C184.212 314.408 184.5 313.72 185.076 313.208C185.668 312.696 186.516 312.44 187.62 312.44H199.212V311.816C199.212 311.672 199.188 311.576 199.14 311.528C199.092 311.464 198.988 311.432 198.828 311.432H185.796C185.332 311.432 184.996 311.288 184.788 311C184.58 310.712 184.476 310.384 184.476 310.016C184.476 309.68 184.58 309.368 184.788 309.08C184.996 308.776 185.332 308.624 185.796 308.624H201.156C202.228 308.624 202.98 308.808 203.412 309.176C203.86 309.544 204.084 310.2 204.084 311.144V314.984H189.804C189.628 314.984 189.492 315.032 189.396 315.128C189.316 315.208 189.276 315.312 189.276 315.44V315.512C189.276 315.64 189.316 315.752 189.396 315.848C189.492 315.928 189.628 315.968 189.804 315.968H203.34C203.82 315.968 204.164 316.12 204.372 316.424C204.596 316.728 204.708 317.064 204.708 317.432C204.708 317.768 204.604 318.08 204.396 318.368C204.188 318.672 203.836 318.824 203.34 318.824H187.62ZM183.276 301.832C183.276 300.872 183.436 300.064 183.756 299.408C184.092 298.736 184.548 298.192 185.124 297.776C185.716 297.344 186.428 297.032 187.26 296.84C188.092 296.648 189.012 296.552 190.02 296.552C191.028 296.552 191.948 296.648 192.78 296.84C193.612 297.032 194.316 297.344 194.892 297.776C195.484 298.192 195.94 298.736 196.26 299.408C196.596 300.064 196.764 300.872 196.764 301.832V302.48C196.764 303.44 196.596 304.256 196.26 304.928C195.94 305.584 195.484 306.128 194.892 306.56C194.316 306.976 193.612 307.28 192.78 307.472C191.948 307.664 191.028 307.76 190.02 307.76C189.012 307.76 188.092 307.664 187.26 307.472C186.428 307.28 185.716 306.976 185.124 306.56C184.548 306.128 184.092 305.584 183.756 304.928C183.436 304.256 183.276 303.44 183.276 302.48V301.832ZM199.164 298.664C199.164 297.88 199.396 297.288 199.86 296.888C200.34 296.488 200.9 296.288 201.54 296.288C202.164 296.288 202.716 296.496 203.196 296.912C203.676 297.312 203.916 297.896 203.916 298.664V300.152H204.66C205.028 300.152 205.332 300.216 205.572 300.344C205.812 300.456 206.004 300.616 206.148 300.824C206.292 301.016 206.396 301.232 206.46 301.472C206.524 301.712 206.556 301.952 206.556 302.192C206.556 302.432 206.524 302.68 206.46 302.936C206.396 303.176 206.292 303.392 206.148 303.584C206.004 303.776 205.804 303.936 205.548 304.064C205.308 304.176 205.012 304.232 204.66 304.232H203.916V307.856H199.164V298.664ZM188.004 302.648C188.004 303.256 188.18 303.696 188.532 303.968C188.9 304.24 189.396 304.376 190.02 304.376C190.644 304.376 191.132 304.24 191.484 303.968C191.852 303.696 192.036 303.256 192.036 302.648V301.664C192.036 301.072 191.852 300.64 191.484 300.368C191.132 300.08 190.644 299.936 190.02 299.936C189.396 299.936 188.9 300.08 188.532 300.368C188.18 300.64 188.004 301.072 188.004 301.664V302.648ZM216.883 300.224C216.211 300.224 215.715 300.04 215.395 299.672C215.075 299.304 214.915 298.888 214.915 298.424C214.915 297.976 215.067 297.568 215.371 297.2C215.691 296.816 216.195 296.624 216.883 296.624H232.411C233.067 296.624 233.619 296.688 234.067 296.816C234.515 296.928 234.867 297.112 235.123 297.368C235.395 297.608 235.587 297.928 235.699 298.328C235.811 298.712 235.867 299.176 235.867 299.72V300.848C235.867 301.264 235.811 301.728 235.699 302.24C235.603 302.752 235.467 303.192 235.291 303.56C235.035 304.12 234.635 304.56 234.091 304.88C233.547 305.2 232.907 305.288 232.171 305.144C231.883 305.096 231.611 304.992 231.355 304.832C231.115 304.672 230.915 304.48 230.755 304.256C230.611 304.016 230.523 303.752 230.491 303.464C230.475 303.16 230.555 302.848 230.731 302.528C230.827 302.352 230.899 302.2 230.947 302.072C231.011 301.928 231.059 301.792 231.091 301.664C231.123 301.536 231.139 301.408 231.139 301.28C231.155 301.152 231.163 301 231.163 300.824V300.68C231.163 300.52 231.131 300.408 231.067 300.344C231.003 300.264 230.883 300.224 230.707 300.224H225.547V300.848C225.547 301.456 225.411 302.048 225.139 302.624C225.379 302.576 225.619 302.552 225.859 302.552C226.147 302.552 226.419 302.592 226.675 302.672C226.947 302.736 227.187 302.848 227.395 303.008C227.619 303.152 227.795 303.352 227.923 303.608C228.051 303.864 228.115 304.168 228.115 304.52V305.792H235.027C235.715 305.792 236.195 305.968 236.467 306.32C236.755 306.672 236.899 307.064 236.899 307.496C236.899 307.944 236.755 308.344 236.467 308.696C236.179 309.048 235.699 309.224 235.027 309.224H216.307C215.635 309.224 215.155 309.048 214.867 308.696C214.579 308.344 214.435 307.944 214.435 307.496C214.435 307.064 214.571 306.672 214.843 306.32C215.131 305.968 215.619 305.792 216.307 305.792H223.603V304.472C223.283 304.696 222.939 304.88 222.571 305.024C222.219 305.152 221.835 305.232 221.419 305.264C221.147 305.296 220.875 305.304 220.603 305.288C220.331 305.272 220.067 305.224 219.811 305.144C219.555 305.064 219.331 304.952 219.139 304.808C218.947 304.648 218.803 304.44 218.707 304.184C218.563 303.8 218.539 303.416 218.635 303.032C218.747 302.632 218.963 302.336 219.283 302.144C219.443 302.048 219.603 301.976 219.763 301.928C219.939 301.88 220.107 301.816 220.267 301.736C220.475 301.64 220.651 301.504 220.795 301.328C220.939 301.152 221.011 300.984 221.011 300.824V300.68C221.011 300.376 220.875 300.224 220.603 300.224H216.883ZM223.267 310.952C223.395 310.44 223.667 310.08 224.083 309.872C224.515 309.648 225.059 309.536 225.715 309.536C226.355 309.536 226.883 309.648 227.299 309.872C227.731 310.08 228.011 310.44 228.139 310.952H234.331C235.003 310.952 235.475 311.104 235.747 311.408C236.019 311.696 236.155 312.056 236.155 312.488C236.155 312.936 236.011 313.312 235.723 313.616C235.451 313.904 234.987 314.048 234.331 314.048H227.971C227.923 314.32 227.835 314.616 227.707 314.936C228.587 314.84 229.491 314.808 230.419 314.84C231.347 314.872 232.227 315.032 233.059 315.32C233.891 315.592 234.635 316.008 235.291 316.568C235.947 317.128 236.443 317.88 236.779 318.824H231.859C231.299 318.216 230.427 317.776 229.243 317.504C228.075 317.248 226.707 317.232 225.139 317.456C224.547 317.776 223.891 318.032 223.171 318.224C222.467 318.432 221.739 318.584 220.987 318.68C220.235 318.776 219.467 318.832 218.683 318.848C217.915 318.864 217.171 318.832 216.451 318.752C215.891 318.688 215.459 318.472 215.155 318.104C214.867 317.752 214.787 317.28 214.915 316.688C215.027 316.192 215.275 315.864 215.659 315.704C216.059 315.544 216.515 315.496 217.027 315.56C217.779 315.656 218.491 315.696 219.163 315.68C219.851 315.664 220.475 315.592 221.035 315.464C221.611 315.32 222.099 315.136 222.499 314.912C222.915 314.672 223.219 314.384 223.411 314.048H217.003C216.347 314.048 215.875 313.904 215.587 313.616C215.315 313.312 215.179 312.936 215.179 312.488C215.179 312.056 215.315 311.696 215.587 311.408C215.859 311.104 216.331 310.952 217.003 310.952H223.267Z" fill="black"/>
<rect x="30" y="30" width="280" height="320" rx="20" stroke="#85CCA9"/>
<path d="M230.732 222.283C216.494 217.322 185.513 219.892 175.328 229.704V164.075C175.328 160.992 172.836 158.5 169.753 158.5C166.67 158.5 164.178 160.992 164.178 164.075V229.704C153.992 219.892 123.012 217.322 108.773 222.283C104.642 223.727 138.12 271.059 161.775 247.41C162.711 246.473 163.481 245.57 164.178 244.678V264.425C164.178 267.508 166.67 270 169.753 270C172.836 270 175.328 267.508 175.328 264.425V244.678C176.025 245.57 176.794 246.473 177.73 247.41C201.385 271.059 234.863 223.727 230.732 222.283V222.283Z" fill="#77B255"/>
<path d="M139.436 212.299C135.985 210.816 133.264 207.632 131.753 203.864L124.695 185.433L106.532 177.667C99.0836 174.467 96.0731 166.951 99.262 159.498L106.855 141.764L99.2508 123.539C96.2348 116.013 100.087 107.55 107.613 104.539L125.855 97.3977L133.933 78.5318C137.127 71.0836 144.643 68.0731 152.096 71.262L170.26 79.0447L188.473 71.4292C192.236 69.9184 196.34 69.8905 199.791 71.3679C203.242 72.8453 206.001 75.9339 207.512 79.697L214.615 98.0388L233.062 105.939C240.51 109.127 243.515 116.648 240.338 124.102L232.248 142.968L239.858 161.181C242.874 168.708 239.022 177.159 231.496 180.175L213.26 187.317L205.661 205.062C202.472 212.51 194.946 215.527 187.498 212.338L169.056 204.438L150.842 212.042C147.073 213.553 142.886 213.776 139.436 212.299V212.299Z" fill="#CCD6DD"/>
<path d="M233.062 105.939L214.615 98.0388L214.308 97.2416C205.583 104.695 185.234 121.515 185.234 121.515L185.273 122.201C180.986 118.8 175.645 116.687 169.752 116.687V78.8273L152.096 71.2676C144.643 68.0787 137.127 71.0892 133.933 78.5374L125.855 97.4033L125.515 97.5371L152.013 124.041C147.475 128.573 144.665 134.845 144.665 141.775H106.85L99.262 159.492C96.0731 166.946 99.0836 174.467 106.532 177.661L124.695 185.433L124.706 185.466L149.772 156.799C154.354 162.876 161.563 166.862 169.752 166.862H169.78C169.814 177.895 169.864 196.259 169.847 204.778L187.487 212.338C194.935 215.527 202.461 212.511 205.65 205.062L213.243 187.334L184.298 162.151C190.653 157.602 194.834 150.193 194.834 141.78C194.834 141.385 194.734 141.017 194.717 140.621C204.764 141.635 222.319 143.252 232.75 144.2L232.237 142.973L240.332 124.102C243.515 116.648 240.505 109.128 233.062 105.939Z" fill="#E1E8ED"/>
<path d="M169.752 169.65C185.147 169.65 197.627 157.17 197.627 141.775C197.627 126.38 185.147 113.9 169.752 113.9C154.357 113.9 141.877 126.38 141.877 141.775C141.877 157.17 154.357 169.65 169.752 169.65Z" fill="#F4900C"/>
<ellipse cx="153" cy="142" rx="17" ry="20" fill="white"/>
<ellipse cx="187" cy="142" rx="17" ry="20" fill="white"/>
<circle cx="153" cy="142" r="8" fill="#33A66D"/>
<circle cx="187" cy="142" r="8" fill="#33A66D"/>
<g filter="url(#filter1_d_92_170)">
<rect x="20" y="20" width="300" height="340" rx="23" fill="white"/>
</g>
<path d="M107.501 307.592V306.296C106.749 306.28 106.093 306.176 105.533 305.984C104.989 305.776 104.533 305.496 104.165 305.144C103.797 304.776 103.517 304.352 103.325 303.872C103.149 303.376 103.061 302.84 103.061 302.264C103.061 301.912 103.133 301.552 103.277 301.184C102.877 301.072 102.573 300.88 102.365 300.608C102.157 300.32 102.053 299.968 102.053 299.552C102.053 299.024 102.213 298.6 102.533 298.28C102.869 297.96 103.341 297.8 103.949 297.8H107.357C107.437 297.192 107.685 296.744 108.101 296.456C108.517 296.168 109.061 296.024 109.733 296.024C110.405 296.024 110.941 296.168 111.341 296.456C111.757 296.744 112.005 297.192 112.085 297.8H115.493C116.101 297.8 116.565 297.96 116.885 298.28C117.221 298.6 117.389 299.024 117.389 299.552C117.389 299.968 117.277 300.312 117.053 300.584C116.845 300.856 116.557 301.048 116.189 301.16C116.333 301.528 116.405 301.896 116.405 302.264C116.405 302.84 116.309 303.376 116.117 303.872C115.941 304.352 115.669 304.776 115.301 305.144C114.933 305.496 114.469 305.776 113.909 305.984C113.365 306.176 112.717 306.28 111.965 306.296V307.592H115.757C116.493 307.592 117.013 307.768 117.317 308.12C117.621 308.472 117.773 308.896 117.773 309.392C117.773 309.904 117.613 310.336 117.293 310.688C116.989 311.04 116.477 311.216 115.757 311.216H104.093C103.373 311.216 102.853 311.04 102.533 310.688C102.213 310.336 102.053 309.904 102.053 309.392C102.053 308.896 102.205 308.472 102.509 308.12C102.829 307.768 103.357 307.592 104.093 307.592H107.501ZM118.565 298.664C118.565 297.88 118.797 297.288 119.261 296.888C119.725 296.488 120.277 296.288 120.917 296.288C121.541 296.288 122.085 296.496 122.549 296.912C123.029 297.312 123.269 297.896 123.269 298.664V302.288H124.013C124.381 302.288 124.685 302.352 124.925 302.48C125.165 302.608 125.357 302.776 125.501 302.984C125.645 303.176 125.749 303.4 125.813 303.656C125.877 303.896 125.909 304.136 125.909 304.376C125.909 304.616 125.877 304.864 125.813 305.12C125.749 305.36 125.645 305.584 125.501 305.792C125.357 305.984 125.157 306.144 124.901 306.272C124.661 306.4 124.365 306.464 124.013 306.464H123.269V313.256H118.565V298.664ZM107.381 318.824C106.709 318.824 106.149 318.76 105.701 318.632C105.269 318.504 104.925 318.304 104.669 318.032C104.413 317.76 104.229 317.4 104.117 316.952C104.021 316.504 103.973 315.96 103.973 315.32V314.288C103.973 313.472 104.213 312.904 104.693 312.584C105.189 312.248 105.773 312.08 106.445 312.08C107.117 312.08 107.685 312.248 108.149 312.584C108.613 312.92 108.845 313.488 108.845 314.288V314.552C108.845 314.824 108.885 314.992 108.965 315.056C109.045 315.12 109.221 315.152 109.493 315.152H122.069C122.805 315.152 123.325 315.336 123.629 315.704C123.933 316.072 124.085 316.496 124.085 316.976C124.085 317.472 123.925 317.904 123.605 318.272C123.301 318.64 122.789 318.824 122.069 318.824H107.381ZM111.029 303.32C111.413 303.32 111.701 303.208 111.893 302.984C112.101 302.744 112.205 302.48 112.205 302.192C112.205 301.904 112.101 301.656 111.893 301.448C111.701 301.224 111.413 301.112 111.029 301.112H108.437C108.053 301.112 107.757 301.224 107.549 301.448C107.357 301.656 107.261 301.904 107.261 302.192C107.261 302.48 107.357 302.744 107.549 302.984C107.757 303.208 108.053 303.32 108.437 303.32H111.029ZM129.293 304.952C130.173 305 130.997 304.976 131.765 304.88C132.533 304.768 133.189 304.584 133.733 304.328C134.293 304.056 134.733 303.696 135.053 303.248C135.373 302.784 135.533 302.224 135.533 301.568V301.256C135.533 300.904 135.349 300.728 134.981 300.728H129.557C129.205 300.728 128.901 300.68 128.645 300.584C128.405 300.472 128.205 300.328 128.045 300.152C127.885 299.976 127.765 299.776 127.685 299.552C127.621 299.328 127.589 299.096 127.589 298.856C127.589 298.616 127.621 298.384 127.685 298.16C127.765 297.936 127.885 297.736 128.045 297.56C128.205 297.384 128.405 297.248 128.645 297.152C128.901 297.04 129.205 296.984 129.557 296.984H136.757C137.717 296.984 138.445 297.128 138.941 297.416C139.437 297.704 139.773 298.136 139.949 298.712C140.013 298.696 140.109 298.688 140.237 298.688H143.645V298.616C143.645 297.848 143.877 297.272 144.341 296.888C144.821 296.488 145.373 296.288 145.997 296.288C146.301 296.288 146.597 296.344 146.885 296.456C147.173 296.552 147.429 296.696 147.653 296.888C147.877 297.08 148.053 297.32 148.181 297.608C148.325 297.896 148.397 298.232 148.397 298.616V309.032H143.645V307.04H140.237C139.341 307.04 138.789 306.696 138.581 306.008C137.589 307.16 136.245 307.96 134.549 308.408C132.869 308.856 131.029 308.984 129.029 308.792C128.485 308.744 128.029 308.528 127.661 308.144C127.293 307.744 127.133 307.224 127.181 306.584C127.229 306.024 127.445 305.608 127.829 305.336C128.229 305.048 128.717 304.92 129.293 304.952ZM132.965 318.824C132.133 318.824 131.405 318.712 130.781 318.488C130.173 318.264 129.661 317.952 129.245 317.552C128.845 317.152 128.541 316.68 128.333 316.136C128.141 315.592 128.045 314.992 128.045 314.336C128.045 313.696 128.141 313.104 128.333 312.56C128.541 312 128.845 311.52 129.245 311.12C129.661 310.704 130.173 310.384 130.781 310.16C131.405 309.92 132.133 309.8 132.965 309.8H143.717C144.533 309.8 145.245 309.912 145.853 310.136C146.477 310.36 146.989 310.68 147.389 311.096C147.805 311.496 148.117 311.976 148.325 312.536C148.533 313.08 148.637 313.68 148.637 314.336C148.637 314.992 148.533 315.6 148.325 316.16C148.117 316.704 147.805 317.176 147.389 317.576C146.989 317.976 146.477 318.28 145.853 318.488C145.245 318.712 144.533 318.824 143.717 318.824H132.965ZM142.445 315.464C142.973 315.464 143.325 315.344 143.501 315.104C143.677 314.864 143.765 314.608 143.765 314.336C143.765 314.064 143.677 313.816 143.501 313.592C143.325 313.368 142.973 313.256 142.445 313.256H134.237C133.709 313.256 133.357 313.368 133.181 313.592C133.005 313.816 132.917 314.064 132.917 314.336C132.917 314.608 133.005 314.864 133.181 315.104C133.357 315.344 133.709 315.464 134.237 315.464H142.445ZM140.117 302.024C140.069 302.664 139.965 303.232 139.805 303.728C139.885 303.728 139.957 303.728 140.021 303.728C140.085 303.712 140.157 303.704 140.237 303.704H143.645V302.024H140.117ZM161.292 311.528C160.828 311.528 160.492 311.384 160.284 311.096C160.092 310.808 159.996 310.488 159.996 310.136C159.996 309.8 160.1 309.488 160.308 309.2C160.516 308.896 160.844 308.744 161.292 308.744H176.724C177.78 308.744 178.524 308.928 178.956 309.296C179.388 309.648 179.604 310.296 179.604 311.24V315.032H165.324C165.148 315.032 165.012 315.08 164.916 315.176C164.836 315.256 164.796 315.36 164.796 315.488V315.56C164.796 315.688 164.836 315.8 164.916 315.896C165.012 315.976 165.148 316.016 165.324 316.016H178.884C179.348 316.016 179.684 316.168 179.892 316.472C180.116 316.76 180.228 317.088 180.228 317.456C180.228 317.776 180.124 318.08 179.916 318.368C179.708 318.672 179.364 318.824 178.884 318.824H163.092C162.548 318.824 162.068 318.736 161.652 318.56C161.236 318.384 160.884 318.144 160.596 317.84C160.308 317.552 160.092 317.216 159.948 316.832C159.804 316.448 159.732 316.04 159.732 315.608V315.32C159.732 314.456 160.02 313.776 160.596 313.28C161.172 312.768 162.004 312.512 163.092 312.512H174.732V311.912C174.732 311.768 174.708 311.672 174.66 311.624C174.612 311.56 174.508 311.528 174.348 311.528H161.292ZM167.892 300.68V300.776C167.892 301.16 167.868 301.52 167.82 301.856C169.66 301.856 171.012 302.336 171.876 303.296C172.756 304.256 173.18 305.776 173.148 307.856H168.66C168.74 306.96 168.572 306.28 168.156 305.816C167.756 305.336 167.204 305.136 166.5 305.216C165.78 306.16 164.892 306.864 163.836 307.328C162.78 307.792 161.684 308.024 160.548 308.024C159.956 308.024 159.452 307.864 159.036 307.544C158.636 307.208 158.436 306.768 158.436 306.224C158.436 305.664 158.572 305.224 158.844 304.904C159.132 304.568 159.516 304.376 159.996 304.328C161.1 304.2 161.924 303.816 162.468 303.176C163.028 302.536 163.308 301.736 163.308 300.776V300.68H160.356C160.068 300.68 159.812 300.624 159.588 300.512C159.38 300.4 159.204 300.256 159.06 300.08C158.916 299.888 158.804 299.688 158.724 299.48C158.644 299.256 158.604 299.032 158.604 298.808C158.604 298.6 158.636 298.384 158.7 298.16C158.764 297.92 158.868 297.712 159.012 297.536C159.156 297.36 159.34 297.216 159.564 297.104C159.788 296.976 160.052 296.912 160.356 296.912H171.228C171.532 296.912 171.796 296.976 172.02 297.104C172.244 297.216 172.428 297.36 172.572 297.536C172.716 297.712 172.82 297.92 172.884 298.16C172.948 298.384 172.98 298.6 172.98 298.808C172.98 299.032 172.94 299.256 172.86 299.48C172.78 299.688 172.668 299.888 172.524 300.08C172.38 300.256 172.196 300.4 171.972 300.512C171.764 300.624 171.516 300.68 171.228 300.68H167.892ZM174.684 298.664C174.684 297.88 174.916 297.288 175.38 296.888C175.86 296.488 176.42 296.288 177.06 296.288C177.684 296.288 178.236 296.496 178.716 296.912C179.196 297.312 179.436 297.896 179.436 298.664V300.2H180.18C180.548 300.2 180.852 300.264 181.092 300.392C181.332 300.504 181.524 300.664 181.668 300.872C181.812 301.064 181.916 301.28 181.98 301.52C182.044 301.76 182.076 302 182.076 302.24C182.076 302.48 182.044 302.728 181.98 302.984C181.916 303.224 181.812 303.44 181.668 303.632C181.524 303.824 181.324 303.984 181.068 304.112C180.828 304.224 180.532 304.28 180.18 304.28H179.436V308.096H174.684V298.664ZM187.62 318.824C187.076 318.824 186.588 318.736 186.156 318.56C185.74 318.384 185.388 318.144 185.1 317.84C184.812 317.536 184.588 317.192 184.428 316.808C184.284 316.408 184.212 315.992 184.212 315.56V315.272C184.212 314.408 184.5 313.72 185.076 313.208C185.668 312.696 186.516 312.44 187.62 312.44H199.212V311.816C199.212 311.672 199.188 311.576 199.14 311.528C199.092 311.464 198.988 311.432 198.828 311.432H185.796C185.332 311.432 184.996 311.288 184.788 311C184.58 310.712 184.476 310.384 184.476 310.016C184.476 309.68 184.58 309.368 184.788 309.08C184.996 308.776 185.332 308.624 185.796 308.624H201.156C202.228 308.624 202.98 308.808 203.412 309.176C203.86 309.544 204.084 310.2 204.084 311.144V314.984H189.804C189.628 314.984 189.492 315.032 189.396 315.128C189.316 315.208 189.276 315.312 189.276 315.44V315.512C189.276 315.64 189.316 315.752 189.396 315.848C189.492 315.928 189.628 315.968 189.804 315.968H203.34C203.82 315.968 204.164 316.12 204.372 316.424C204.596 316.728 204.708 317.064 204.708 317.432C204.708 317.768 204.604 318.08 204.396 318.368C204.188 318.672 203.836 318.824 203.34 318.824H187.62ZM183.276 301.832C183.276 300.872 183.436 300.064 183.756 299.408C184.092 298.736 184.548 298.192 185.124 297.776C185.716 297.344 186.428 297.032 187.26 296.84C188.092 296.648 189.012 296.552 190.02 296.552C191.028 296.552 191.948 296.648 192.78 296.84C193.612 297.032 194.316 297.344 194.892 297.776C195.484 298.192 195.94 298.736 196.26 299.408C196.596 300.064 196.764 300.872 196.764 301.832V302.48C196.764 303.44 196.596 304.256 196.26 304.928C195.94 305.584 195.484 306.128 194.892 306.56C194.316 306.976 193.612 307.28 192.78 307.472C191.948 307.664 191.028 307.76 190.02 307.76C189.012 307.76 188.092 307.664 187.26 307.472C186.428 307.28 185.716 306.976 185.124 306.56C184.548 306.128 184.092 305.584 183.756 304.928C183.436 304.256 183.276 303.44 183.276 302.48V301.832ZM199.164 298.664C199.164 297.88 199.396 297.288 199.86 296.888C200.34 296.488 200.9 296.288 201.54 296.288C202.164 296.288 202.716 296.496 203.196 296.912C203.676 297.312 203.916 297.896 203.916 298.664V300.152H204.66C205.028 300.152 205.332 300.216 205.572 300.344C205.812 300.456 206.004 300.616 206.148 300.824C206.292 301.016 206.396 301.232 206.46 301.472C206.524 301.712 206.556 301.952 206.556 302.192C206.556 302.432 206.524 302.68 206.46 302.936C206.396 303.176 206.292 303.392 206.148 303.584C206.004 303.776 205.804 303.936 205.548 304.064C205.308 304.176 205.012 304.232 204.66 304.232H203.916V307.856H199.164V298.664ZM188.004 302.648C188.004 303.256 188.18 303.696 188.532 303.968C188.9 304.24 189.396 304.376 190.02 304.376C190.644 304.376 191.132 304.24 191.484 303.968C191.852 303.696 192.036 303.256 192.036 302.648V301.664C192.036 301.072 191.852 300.64 191.484 300.368C191.132 300.08 190.644 299.936 190.02 299.936C189.396 299.936 188.9 300.08 188.532 300.368C188.18 300.64 188.004 301.072 188.004 301.664V302.648ZM216.883 300.224C216.211 300.224 215.715 300.04 215.395 299.672C215.075 299.304 214.915 298.888 214.915 298.424C214.915 297.976 215.067 297.568 215.371 297.2C215.691 296.816 216.195 296.624 216.883 296.624H232.411C233.067 296.624 233.619 296.688 234.067 296.816C234.515 296.928 234.867 297.112 235.123 297.368C235.395 297.608 235.587 297.928 235.699 298.328C235.811 298.712 235.867 299.176 235.867 299.72V300.848C235.867 301.264 235.811 301.728 235.699 302.24C235.603 302.752 235.467 303.192 235.291 303.56C235.035 304.12 234.635 304.56 234.091 304.88C233.547 305.2 232.907 305.288 232.171 305.144C231.883 305.096 231.611 304.992 231.355 304.832C231.115 304.672 230.915 304.48 230.755 304.256C230.611 304.016 230.523 303.752 230.491 303.464C230.475 303.16 230.555 302.848 230.731 302.528C230.827 302.352 230.899 302.2 230.947 302.072C231.011 301.928 231.059 301.792 231.091 301.664C231.123 301.536 231.139 301.408 231.139 301.28C231.155 301.152 231.163 301 231.163 300.824V300.68C231.163 300.52 231.131 300.408 231.067 300.344C231.003 300.264 230.883 300.224 230.707 300.224H225.547V300.848C225.547 301.456 225.411 302.048 225.139 302.624C225.379 302.576 225.619 302.552 225.859 302.552C226.147 302.552 226.419 302.592 226.675 302.672C226.947 302.736 227.187 302.848 227.395 303.008C227.619 303.152 227.795 303.352 227.923 303.608C228.051 303.864 228.115 304.168 228.115 304.52V305.792H235.027C235.715 305.792 236.195 305.968 236.467 306.32C236.755 306.672 236.899 307.064 236.899 307.496C236.899 307.944 236.755 308.344 236.467 308.696C236.179 309.048 235.699 309.224 235.027 309.224H216.307C215.635 309.224 215.155 309.048 214.867 308.696C214.579 308.344 214.435 307.944 214.435 307.496C214.435 307.064 214.571 306.672 214.843 306.32C215.131 305.968 215.619 305.792 216.307 305.792H223.603V304.472C223.283 304.696 222.939 304.88 222.571 305.024C222.219 305.152 221.835 305.232 221.419 305.264C221.147 305.296 220.875 305.304 220.603 305.288C220.331 305.272 220.067 305.224 219.811 305.144C219.555 305.064 219.331 304.952 219.139 304.808C218.947 304.648 218.803 304.44 218.707 304.184C218.563 303.8 218.539 303.416 218.635 303.032C218.747 302.632 218.963 302.336 219.283 302.144C219.443 302.048 219.603 301.976 219.763 301.928C219.939 301.88 220.107 301.816 220.267 301.736C220.475 301.64 220.651 301.504 220.795 301.328C220.939 301.152 221.011 300.984 221.011 300.824V300.68C221.011 300.376 220.875 300.224 220.603 300.224H216.883ZM223.267 310.952C223.395 310.44 223.667 310.08 224.083 309.872C224.515 309.648 225.059 309.536 225.715 309.536C226.355 309.536 226.883 309.648 227.299 309.872C227.731 310.08 228.011 310.44 228.139 310.952H234.331C235.003 310.952 235.475 311.104 235.747 311.408C236.019 311.696 236.155 312.056 236.155 312.488C236.155 312.936 236.011 313.312 235.723 313.616C235.451 313.904 234.987 314.048 234.331 314.048H227.971C227.923 314.32 227.835 314.616 227.707 314.936C228.587 314.84 229.491 314.808 230.419 314.84C231.347 314.872 232.227 315.032 233.059 315.32C233.891 315.592 234.635 316.008 235.291 316.568C235.947 317.128 236.443 317.88 236.779 318.824H231.859C231.299 318.216 230.427 317.776 229.243 317.504C228.075 317.248 226.707 317.232 225.139 317.456C224.547 317.776 223.891 318.032 223.171 318.224C222.467 318.432 221.739 318.584 220.987 318.68C220.235 318.776 219.467 318.832 218.683 318.848C217.915 318.864 217.171 318.832 216.451 318.752C215.891 318.688 215.459 318.472 215.155 318.104C214.867 317.752 214.787 317.28 214.915 316.688C215.027 316.192 215.275 315.864 215.659 315.704C216.059 315.544 216.515 315.496 217.027 315.56C217.779 315.656 218.491 315.696 219.163 315.68C219.851 315.664 220.475 315.592 221.035 315.464C221.611 315.32 222.099 315.136 222.499 314.912C222.915 314.672 223.219 314.384 223.411 314.048H217.003C216.347 314.048 215.875 313.904 215.587 313.616C215.315 313.312 215.179 312.936 215.179 312.488C215.179 312.056 215.315 311.696 215.587 311.408C215.859 311.104 216.331 310.952 217.003 310.952H223.267Z" fill="black"/>
<rect x="30" y="30" width="280" height="320" rx="20" stroke="#85CCA9"/>
<path d="M230.732 222.283C216.494 217.322 185.513 219.892 175.328 229.704V164.075C175.328 160.992 172.836 158.5 169.753 158.5C166.67 158.5 164.178 160.992 164.178 164.075V229.704C153.992 219.892 123.012 217.322 108.773 222.283C104.642 223.727 138.12 271.059 161.775 247.41C162.711 246.473 163.481 245.57 164.178 244.678V264.425C164.178 267.508 166.67 270 169.753 270C172.836 270 175.328 267.508 175.328 264.425V244.678C176.025 245.57 176.794 246.473 177.73 247.41C201.385 271.059 234.863 223.727 230.732 222.283V222.283Z" fill="#77B255"/>
<path d="M139.436 212.299C135.985 210.816 133.264 207.632 131.753 203.864L124.695 185.433L106.532 177.667C99.0836 174.467 96.0731 166.951 99.262 159.498L106.855 141.764L99.2508 123.539C96.2348 116.013 100.087 107.55 107.613 104.539L125.855 97.3977L133.933 78.5318C137.127 71.0836 144.643 68.0731 152.096 71.262L170.26 79.0447L188.473 71.4292C192.236 69.9184 196.34 69.8905 199.791 71.3679C203.242 72.8453 206.001 75.9339 207.512 79.697L214.615 98.0388L233.062 105.939C240.51 109.127 243.515 116.648 240.338 124.102L232.248 142.968L239.858 161.181C242.874 168.708 239.022 177.159 231.496 180.175L213.26 187.317L205.661 205.062C202.472 212.51 194.946 215.527 187.498 212.338L169.056 204.438L150.842 212.042C147.073 213.553 142.886 213.776 139.436 212.299V212.299Z" fill="#CCD6DD"/>
<path d="M233.062 105.939L214.615 98.0388L214.308 97.2416C205.583 104.695 185.234 121.515 185.234 121.515L185.273 122.201C180.986 118.8 175.645 116.687 169.752 116.687V78.8273L152.096 71.2676C144.643 68.0787 137.127 71.0892 133.933 78.5374L125.855 97.4033L125.515 97.5371L152.013 124.041C147.475 128.573 144.665 134.845 144.665 141.775H106.85L99.262 159.492C96.0731 166.946 99.0836 174.467 106.532 177.661L124.695 185.433L124.706 185.466L149.772 156.799C154.354 162.876 161.563 166.862 169.752 166.862H169.78C169.814 177.895 169.864 196.259 169.847 204.778L187.487 212.338C194.935 215.527 202.461 212.511 205.65 205.062L213.243 187.334L184.298 162.151C190.653 157.602 194.834 150.193 194.834 141.78C194.834 141.385 194.734 141.017 194.717 140.621C204.764 141.635 222.319 143.252 232.75 144.2L232.237 142.973L240.332 124.102C243.515 116.648 240.505 109.128 233.062 105.939Z" fill="#E1E8ED"/>
<path d="M169.752 169.65C185.147 169.65 197.627 157.17 197.627 141.775C197.627 126.38 185.147 113.9 169.752 113.9C154.357 113.9 141.877 126.38 141.877 141.775C141.877 157.17 154.357 169.65 169.752 169.65Z" fill="#F4900C"/>
<ellipse cx="153" cy="142" rx="17" ry="20" fill="white"/>
<ellipse cx="187" cy="142" rx="17" ry="20" fill="white"/>
<circle cx="153" cy="142" r="8" fill="#33A66D"/>
<circle cx="187" cy="142" r="8" fill="#33A66D"/>
<defs>
<filter id="filter0_d_92_170" x="0" y="0" width="340" height="380" filterUnits="userSpaceOnUse" color-interpolation-filters="sRGB">
<feFlood flood-opacity="0" result="BackgroundImageFix"/>
<feColorMatrix in="SourceAlpha" type="matrix" values="0 0 0 0 0 0 0 0 0 0 0 0 0 0 0 0 0 0 127 0" result="hardAlpha"/>
<feOffset/>
<feGaussianBlur stdDeviation="10"/>
<feComposite in2="hardAlpha" operator="out"/>
<feColorMatrix type="matrix" values="0 0 0 0 0 0 0 0 0 0 0 0 0 0 0 0 0 0 0.16 0"/>
<feBlend mode="normal" in2="BackgroundImageFix" result="effect1_dropShadow_92_170"/>
<feBlend mode="normal" in="SourceGraphic" in2="effect1_dropShadow_92_170" result="shape"/>
</filter>
<filter id="filter1_d_92_170" x="0" y="0" width="340" height="380" filterUnits="userSpaceOnUse" color-interpolation-filters="sRGB">
<feFlood flood-opacity="0" result="BackgroundImageFix"/>
<feColorMatrix in="SourceAlpha" type="matrix" values="0 0 0 0 0 0 0 0 0 0 0 0 0 0 0 0 0 0 127 0" result="hardAlpha"/>
<feOffset/>
<feGaussianBlur stdDeviation="10"/>
<feComposite in2="hardAlpha" operator="out"/>
<feColorMatrix type="matrix" values="0 0 0 0 0 0 0 0 0 0 0 0 0 0 0 0 0 0 0.16 0"/>
<feBlend mode="normal" in2="BackgroundImageFix" result="effect1_dropShadow_92_170"/>
<feBlend mode="normal" in="SourceGraphic" in2="effect1_dropShadow_92_170" result="shape"/>
</filter>
</defs>
</svg>
