<svg width="340" height="380" viewBox="0 0 340 380" fill="none" xmlns="http://www.w3.org/2000/svg">
<g filter="url(#filter0_d_92_126)">
<rect x="20" y="20" width="300" height="340" rx="23" fill="white"/>
</g>
<path d="M83.5214 307.592V306.296C82.7694 306.28 82.1134 306.176 81.5534 305.984C81.0094 305.776 80.5534 305.496 80.1854 305.144C79.8174 304.776 79.5374 304.352 79.3454 303.872C79.1694 303.376 79.0814 302.84 79.0814 302.264C79.0814 301.912 79.1534 301.552 79.2974 301.184C78.8974 301.072 78.5934 300.88 78.3854 300.608C78.1774 300.32 78.0734 299.968 78.0734 299.552C78.0734 299.024 78.2334 298.6 78.5534 298.28C78.8894 297.96 79.3614 297.8 79.9694 297.8H83.3774C83.4574 297.192 83.7054 296.744 84.1214 296.456C84.5374 296.168 85.0814 296.024 85.7534 296.024C86.4254 296.024 86.9614 296.168 87.3614 296.456C87.7774 296.744 88.0254 297.192 88.1054 297.8H91.5134C92.1214 297.8 92.5854 297.96 92.9054 298.28C93.2414 298.6 93.4094 299.024 93.4094 299.552C93.4094 299.968 93.2974 300.312 93.0734 300.584C92.8654 300.856 92.5774 301.048 92.2094 301.16C92.3534 301.528 92.4254 301.896 92.4254 302.264C92.4254 302.84 92.3294 303.376 92.1374 303.872C91.9614 304.352 91.6894 304.776 91.3214 305.144C90.9534 305.496 90.4894 305.776 89.9294 305.984C89.3854 306.176 88.7374 306.28 87.9854 306.296V307.592H91.7774C92.5134 307.592 93.0334 307.768 93.3374 308.12C93.6414 308.472 93.7934 308.896 93.7934 309.392C93.7934 309.904 93.6334 310.336 93.3134 310.688C93.0094 311.04 92.4974 311.216 91.7774 311.216H80.1134C79.3934 311.216 78.8734 311.04 78.5534 310.688C78.2334 310.336 78.0734 309.904 78.0734 309.392C78.0734 308.896 78.2254 308.472 78.5294 308.12C78.8494 307.768 79.3774 307.592 80.1134 307.592H83.5214ZM94.5854 298.664C94.5854 297.88 94.8174 297.288 95.2814 296.888C95.7454 296.488 96.2974 296.288 96.9374 296.288C97.5614 296.288 98.1054 296.496 98.5694 296.912C99.0494 297.312 99.2894 297.896 99.2894 298.664V302.288H100.033C100.401 302.288 100.705 302.352 100.945 302.48C101.185 302.608 101.377 302.776 101.521 302.984C101.665 303.176 101.769 303.4 101.833 303.656C101.897 303.896 101.929 304.136 101.929 304.376C101.929 304.616 101.897 304.864 101.833 305.12C101.769 305.36 101.665 305.584 101.521 305.792C101.377 305.984 101.177 306.144 100.921 306.272C100.681 306.4 100.385 306.464 100.033 306.464H99.2894V313.256H94.5854V298.664ZM83.4014 318.824C82.7294 318.824 82.1694 318.76 81.7214 318.632C81.2894 318.504 80.9454 318.304 80.6894 318.032C80.4334 317.76 80.2494 317.4 80.1374 316.952C80.0414 316.504 79.9934 315.96 79.9934 315.32V314.288C79.9934 313.472 80.2334 312.904 80.7134 312.584C81.2094 312.248 81.7934 312.08 82.4654 312.08C83.1374 312.08 83.7054 312.248 84.1694 312.584C84.6334 312.92 84.8654 313.488 84.8654 314.288V314.552C84.8654 314.824 84.9054 314.992 84.9854 315.056C85.0654 315.12 85.2414 315.152 85.5134 315.152H98.0894C98.8254 315.152 99.3454 315.336 99.6494 315.704C99.9534 316.072 100.105 316.496 100.105 316.976C100.105 317.472 99.9454 317.904 99.6254 318.272C99.3214 318.64 98.8094 318.824 98.0894 318.824H83.4014ZM87.0494 303.32C87.4334 303.32 87.7214 303.208 87.9134 302.984C88.1214 302.744 88.2254 302.48 88.2254 302.192C88.2254 301.904 88.1214 301.656 87.9134 301.448C87.7214 301.224 87.4334 301.112 87.0494 301.112H84.4574C84.0734 301.112 83.7774 301.224 83.5694 301.448C83.3774 301.656 83.2814 301.904 83.2814 302.192C83.2814 302.48 83.3774 302.744 83.5694 302.984C83.7774 303.208 84.0734 303.32 84.4574 303.32H87.0494ZM105.313 304.952C106.193 305 107.017 304.976 107.785 304.88C108.553 304.768 109.209 304.584 109.753 304.328C110.313 304.056 110.753 303.696 111.073 303.248C111.393 302.784 111.553 302.224 111.553 301.568V301.256C111.553 300.904 111.369 300.728 111.001 300.728H105.577C105.225 300.728 104.921 300.68 104.665 300.584C104.425 300.472 104.225 300.328 104.065 300.152C103.905 299.976 103.785 299.776 103.705 299.552C103.641 299.328 103.609 299.096 103.609 298.856C103.609 298.616 103.641 298.384 103.705 298.16C103.785 297.936 103.905 297.736 104.065 297.56C104.225 297.384 104.425 297.248 104.665 297.152C104.921 297.04 105.225 296.984 105.577 296.984H112.777C113.737 296.984 114.465 297.128 114.961 297.416C115.457 297.704 115.793 298.136 115.969 298.712C116.033 298.696 116.129 298.688 116.257 298.688H119.665V298.616C119.665 297.848 119.897 297.272 120.361 296.888C120.841 296.488 121.393 296.288 122.017 296.288C122.321 296.288 122.617 296.344 122.905 296.456C123.193 296.552 123.449 296.696 123.673 296.888C123.897 297.08 124.073 297.32 124.201 297.608C124.345 297.896 124.417 298.232 124.417 298.616V309.032H119.665V307.04H116.257C115.361 307.04 114.809 306.696 114.601 306.008C113.609 307.16 112.265 307.96 110.569 308.408C108.889 308.856 107.049 308.984 105.049 308.792C104.505 308.744 104.049 308.528 103.681 308.144C103.313 307.744 103.153 307.224 103.201 306.584C103.249 306.024 103.465 305.608 103.849 305.336C104.249 305.048 104.737 304.92 105.313 304.952ZM108.985 318.824C108.153 318.824 107.425 318.712 106.801 318.488C106.193 318.264 105.681 317.952 105.265 317.552C104.865 317.152 104.561 316.68 104.353 316.136C104.161 315.592 104.065 314.992 104.065 314.336C104.065 313.696 104.161 313.104 104.353 312.56C104.561 312 104.865 311.52 105.265 311.12C105.681 310.704 106.193 310.384 106.801 310.16C107.425 309.92 108.153 309.8 108.985 309.8H119.737C120.553 309.8 121.265 309.912 121.873 310.136C122.497 310.36 123.009 310.68 123.409 311.096C123.825 311.496 124.137 311.976 124.345 312.536C124.553 313.08 124.657 313.68 124.657 314.336C124.657 314.992 124.553 315.6 124.345 316.16C124.137 316.704 123.825 317.176 123.409 317.576C123.009 317.976 122.497 318.28 121.873 318.488C121.265 318.712 120.553 318.824 119.737 318.824H108.985ZM118.465 315.464C118.993 315.464 119.345 315.344 119.521 315.104C119.697 314.864 119.785 314.608 119.785 314.336C119.785 314.064 119.697 313.816 119.521 313.592C119.345 313.368 118.993 313.256 118.465 313.256H110.257C109.729 313.256 109.377 313.368 109.201 313.592C109.025 313.816 108.937 314.064 108.937 314.336C108.937 314.608 109.025 314.864 109.201 315.104C109.377 315.344 109.729 315.464 110.257 315.464H118.465ZM116.137 302.024C116.089 302.664 115.985 303.232 115.825 303.728C115.905 303.728 115.977 303.728 116.041 303.728C116.105 303.712 116.177 303.704 116.257 303.704H119.665V302.024H116.137ZM151.328 309.056H148.184V311.912C148.184 312.968 148.024 313.904 147.704 314.72C147.384 315.52 146.936 316.192 146.36 316.736C145.784 317.28 145.088 317.688 144.272 317.96C143.456 318.232 142.552 318.368 141.56 318.368C140.568 318.368 139.664 318.232 138.848 317.96C138.032 317.688 137.328 317.28 136.736 316.736C136.16 316.192 135.712 315.52 135.392 314.72C135.072 313.904 134.912 312.968 134.912 311.912V303.128C134.912 302.072 135.072 301.144 135.392 300.344C135.712 299.528 136.16 298.848 136.736 298.304C137.328 297.76 138.032 297.352 138.848 297.08C139.664 296.808 140.568 296.672 141.56 296.672C142.552 296.672 143.456 296.808 144.272 297.08C145.088 297.352 145.784 297.76 146.36 298.304C146.936 298.848 147.384 299.528 147.704 300.344C148.024 301.144 148.184 302.072 148.184 303.128V304.952H151.328V298.616C151.328 297.848 151.568 297.272 152.048 296.888C152.528 296.488 153.08 296.288 153.704 296.288C154.008 296.288 154.304 296.344 154.592 296.456C154.88 296.552 155.136 296.696 155.36 296.888C155.584 297.08 155.76 297.32 155.888 297.608C156.032 297.896 156.104 298.232 156.104 298.616V318.824H151.328V309.056ZM139.616 312.032C139.616 312.848 139.792 313.456 140.144 313.856C140.512 314.24 140.984 314.432 141.56 314.432C142.136 314.432 142.6 314.24 142.952 313.856C143.32 313.456 143.504 312.848 143.504 312.032V303.008C143.504 302.192 143.32 301.592 142.952 301.208C142.6 300.808 142.136 300.608 141.56 300.608C140.984 300.608 140.512 300.808 140.144 301.208C139.792 301.592 139.616 302.192 139.616 303.008V312.032ZM164.048 318.824C163.376 318.824 162.816 318.76 162.368 318.632C161.936 318.504 161.592 318.304 161.336 318.032C161.08 317.76 160.896 317.4 160.784 316.952C160.688 316.504 160.64 315.96 160.64 315.32V313.784C160.64 312.968 160.88 312.392 161.36 312.056C161.856 311.704 162.44 311.528 163.112 311.528C163.784 311.528 164.352 311.704 164.816 312.056C165.28 312.392 165.512 312.968 165.512 313.784V314.504C165.512 314.776 165.552 314.944 165.632 315.008C165.712 315.072 165.888 315.104 166.16 315.104H179.192C179.928 315.104 180.448 315.296 180.752 315.68C181.056 316.048 181.208 316.472 181.208 316.952C181.208 317.448 181.048 317.88 180.728 318.248C180.424 318.632 179.912 318.824 179.192 318.824H164.048ZM163.304 310.712C162.68 310.712 162.12 310.592 161.624 310.352C161.128 310.112 160.704 309.8 160.352 309.416C160.016 309.032 159.752 308.592 159.56 308.096C159.384 307.584 159.296 307.064 159.296 306.536V305.96C159.296 305.432 159.384 304.936 159.56 304.472C159.736 304.008 159.992 303.608 160.328 303.272C160.68 302.92 161.104 302.648 161.6 302.456C162.096 302.264 162.664 302.168 163.304 302.168H167.816V301.136C167.816 300.928 167.768 300.792 167.672 300.728C167.592 300.664 167.44 300.632 167.216 300.632H161.12C160.816 300.632 160.552 300.576 160.328 300.464C160.12 300.352 159.944 300.208 159.8 300.032C159.672 299.856 159.576 299.664 159.512 299.456C159.448 299.248 159.416 299.04 159.416 298.832C159.416 298.608 159.448 298.392 159.512 298.184C159.576 297.96 159.68 297.76 159.824 297.584C159.968 297.408 160.144 297.264 160.352 297.152C160.576 297.04 160.832 296.984 161.12 296.984H169.04C170.32 296.984 171.24 297.28 171.8 297.872C172.36 298.464 172.64 299.232 172.64 300.176V305.552H165.008C164.512 305.552 164.264 305.776 164.264 306.224V306.44C164.264 306.856 164.512 307.064 165.008 307.064H173.048C173.336 307.064 173.584 307.12 173.792 307.232C174.016 307.344 174.192 307.488 174.32 307.664C174.464 307.84 174.568 308.04 174.632 308.264C174.696 308.488 174.728 308.704 174.728 308.912C174.728 309.12 174.696 309.336 174.632 309.56C174.568 309.768 174.472 309.96 174.344 310.136C174.216 310.296 174.04 310.432 173.816 310.544C173.608 310.656 173.352 310.712 173.048 310.712H163.304ZM175.736 298.664C175.736 297.88 175.976 297.288 176.456 296.888C176.952 296.488 177.52 296.288 178.16 296.288C178.464 296.288 178.76 296.344 179.048 296.456C179.352 296.552 179.616 296.704 179.84 296.912C180.064 297.104 180.24 297.352 180.368 297.656C180.512 297.944 180.584 298.28 180.584 298.664V313.256H175.736V298.664ZM183.872 303.176C183.872 302.12 184.04 301.192 184.376 300.392C184.712 299.576 185.176 298.896 185.768 298.352C186.376 297.792 187.096 297.376 187.928 297.104C188.76 296.816 189.68 296.672 190.688 296.672C191.696 296.672 192.616 296.816 193.448 297.104C194.28 297.376 195 297.784 195.608 298.328C196.216 298.872 196.688 299.552 197.024 300.368C197.36 301.184 197.528 302.12 197.528 303.176V311.864C197.528 312.92 197.36 313.856 197.024 314.672C196.688 315.488 196.216 316.168 195.608 316.712C195.016 317.256 194.296 317.664 193.448 317.936C192.616 318.224 191.704 318.368 190.712 318.368C189.704 318.368 188.784 318.224 187.952 317.936C187.12 317.664 186.4 317.256 185.792 316.712C185.184 316.168 184.712 315.488 184.376 314.672C184.04 313.856 183.872 312.92 183.872 311.864V303.176ZM188.624 311.96C188.624 312.776 188.816 313.392 189.2 313.808C189.6 314.208 190.096 314.408 190.688 314.408C191.28 314.408 191.776 314.208 192.176 313.808C192.576 313.392 192.776 312.776 192.776 311.96V303.08C192.776 302.264 192.576 301.648 192.176 301.232C191.776 300.816 191.28 300.616 190.688 300.632C190.096 300.648 189.6 300.864 189.2 301.28C188.816 301.68 188.624 302.28 188.624 303.08V311.96ZM200.264 318.824V298.664C200.264 297.88 200.504 297.288 200.984 296.888C201.464 296.488 202.024 296.288 202.664 296.288C203.304 296.288 203.864 296.488 204.344 296.888C204.824 297.288 205.064 297.88 205.064 298.664V318.824H200.264ZM232.863 308.912H231.687V318.824H227.487V298.328C227.487 297.656 227.695 297.152 228.111 296.816C228.543 296.464 229.039 296.288 229.599 296.288C230.143 296.288 230.623 296.464 231.039 296.816C231.471 297.152 231.687 297.656 231.687 298.328V304.976H232.863V298.328C232.863 297.656 233.079 297.152 233.511 296.816C233.943 296.464 234.439 296.288 234.999 296.288C235.271 296.288 235.535 296.336 235.791 296.432C236.047 296.512 236.271 296.64 236.463 296.816C236.671 296.992 236.831 297.208 236.943 297.464C237.071 297.704 237.135 297.992 237.135 298.328V318.824H232.863V308.912ZM215.079 313.976C215.703 313.416 216.223 312.792 216.639 312.104C217.071 311.4 217.415 310.576 217.671 309.632C217.927 308.672 218.103 307.552 218.199 306.272C218.311 304.976 218.367 303.448 218.367 301.688V299.264C218.367 298.496 218.583 297.928 219.015 297.56C219.447 297.192 219.975 297.008 220.599 297.008C221.207 297.008 221.735 297.2 222.183 297.584C222.631 297.968 222.855 298.528 222.855 299.264V301.664C222.855 303.552 222.759 305.272 222.567 306.824C223.303 307.208 223.951 307.688 224.511 308.264C225.087 308.824 225.551 309.528 225.903 310.376C226.271 311.208 226.527 312.208 226.671 313.376C226.815 314.528 226.839 315.888 226.743 317.456H222.375C222.599 315.968 222.639 314.728 222.495 313.736C222.367 312.728 222.087 311.92 221.655 311.312C221.207 312.768 220.671 313.992 220.047 314.984C219.423 315.96 218.727 316.704 217.959 317.216C217.735 317.376 217.471 317.504 217.167 317.6C216.879 317.696 216.583 317.744 216.279 317.744C215.975 317.76 215.679 317.712 215.391 317.6C215.103 317.504 214.855 317.328 214.647 317.072C214.455 316.848 214.327 316.6 214.263 316.328C214.199 316.056 214.183 315.784 214.215 315.512C214.263 315.224 214.359 314.952 214.503 314.696C214.647 314.424 214.839 314.184 215.079 313.976ZM240.015 305.84C240.447 305.536 240.783 305.208 241.023 304.856C241.263 304.504 241.439 304.096 241.551 303.632C241.679 303.152 241.759 302.608 241.791 302C241.823 301.376 241.839 300.656 241.839 299.84V298.928C241.839 298.16 242.031 297.6 242.415 297.248C242.799 296.88 243.287 296.696 243.879 296.696C244.471 296.696 244.975 296.88 245.391 297.248C245.807 297.6 246.015 298.16 246.015 298.928V299.84C246.015 300.352 246.007 300.832 245.991 301.28C245.975 301.712 245.951 302.128 245.919 302.528C246.831 302.816 247.567 303.28 248.127 303.92C248.255 303.408 248.343 302.824 248.391 302.168C248.439 301.496 248.463 300.704 248.463 299.792V298.832C248.463 298.064 248.655 297.504 249.039 297.152C249.439 296.784 249.935 296.6 250.527 296.6C251.119 296.6 251.623 296.784 252.039 297.152C252.471 297.504 252.687 298.064 252.687 298.832V299.792C252.687 300.304 252.671 300.784 252.639 301.232C252.623 301.68 252.599 302.112 252.567 302.528C253.079 302.752 253.543 303.048 253.959 303.416C254.375 303.768 254.719 304.208 254.991 304.736C255.263 305.264 255.455 305.888 255.567 306.608C255.679 307.312 255.703 308.128 255.639 309.056H251.727C251.935 308.032 251.863 307.192 251.511 306.536C250.903 307.768 250.023 308.664 248.871 309.224C248.599 309.352 248.319 309.448 248.031 309.512C247.743 309.56 247.463 309.568 247.191 309.536C246.919 309.504 246.671 309.432 246.447 309.32C246.223 309.192 246.039 309.016 245.895 308.792C245.719 308.52 245.623 308.232 245.607 307.928C245.591 307.608 245.663 307.312 245.823 307.04C245.775 306.816 245.695 306.632 245.583 306.488C245.471 306.328 245.343 306.184 245.199 306.056C244.927 306.728 244.575 307.304 244.143 307.784C243.711 308.248 243.191 308.64 242.583 308.96C242.311 309.104 242.023 309.2 241.719 309.248C241.431 309.296 241.143 309.296 240.855 309.248C240.583 309.2 240.335 309.112 240.111 308.984C239.887 308.84 239.703 308.656 239.559 308.432C239.255 307.936 239.151 307.456 239.247 306.992C239.343 306.528 239.599 306.144 240.015 305.84ZM242.943 314.24C242.271 314.24 241.751 314.064 241.383 313.712C241.031 313.36 240.855 312.904 240.855 312.344C240.855 311.784 241.031 311.328 241.383 310.976C241.751 310.624 242.271 310.448 242.943 310.448H257.535C258.287 310.448 258.895 310.504 259.359 310.616C259.823 310.728 260.183 310.928 260.439 311.216C260.695 311.504 260.863 311.888 260.943 312.368C261.039 312.832 261.087 313.424 261.087 314.144V318.824H256.287V314.816C256.287 314.432 256.095 314.24 255.711 314.24H242.943ZM256.143 298.64C256.143 297.856 256.375 297.272 256.839 296.888C257.303 296.488 257.847 296.288 258.471 296.288C259.095 296.288 259.639 296.488 260.103 296.888C260.583 297.288 260.823 297.872 260.823 298.64V300.776H261.327C261.695 300.776 261.999 300.84 262.239 300.968C262.479 301.096 262.671 301.256 262.815 301.448C262.959 301.64 263.063 301.864 263.127 302.12C263.191 302.36 263.223 302.6 263.223 302.84C263.223 303.08 263.191 303.328 263.127 303.584C263.063 303.824 262.959 304.048 262.815 304.256C262.671 304.448 262.471 304.608 262.215 304.736C261.975 304.848 261.679 304.904 261.327 304.904H260.823V309.512H256.143V298.64Z" fill="black"/>
<rect x="30" y="30" width="280" height="320" rx="20" stroke="#85CCA9"/>
<path d="M193.5 152C187.373 156.094 186.699 156.852 181.982 161.766C181.263 137.595 175.487 106.334 143.636 91.0287C137.334 56.5509 63.8416 74.0659 70.4156 77.4141C83.5184 84.0762 90.4888 101.033 98.9201 109.956C113.942 125.854 130.646 126.833 138.959 114.386C158.596 127.22 159.887 151.563 159.287 177.585C159.219 180.46 159.157 183.136 159.157 185.568V265.285C159.157 271.572 181.806 271.572 181.806 265.285V199.86C184.875 194.428 188.431 184.687 201.5 174.5C210.481 182.432 232.858 176.911 246 163C254.431 154.077 256.47 135.329 269.573 128.661C276.487 125.142 192.3 109.943 193.5 152Z" fill="#77B255"/>
<ellipse cx="211.6" cy="147.824" rx="12.6" ry="14.8235" fill="white"/>
<ellipse cx="236.8" cy="147.824" rx="12.6" ry="14.8235" fill="white"/>
<circle cx="211.6" cy="147.824" r="5.92941" fill="#33A66D"/>
<circle cx="236.8" cy="147.824" r="5.92941" fill="#33A66D"/>
<defs>
<filter id="filter0_d_92_126" x="0" y="0" width="340" height="380" filterUnits="userSpaceOnUse" color-interpolation-filters="sRGB">
<feFlood flood-opacity="0" result="BackgroundImageFix"/>
<feColorMatrix in="SourceAlpha" type="matrix" values="0 0 0 0 0 0 0 0 0 0 0 0 0 0 0 0 0 0 127 0" result="hardAlpha"/>
<feOffset/>
<feGaussianBlur stdDeviation="10"/>
<feComposite in2="hardAlpha" operator="out"/>
<feColorMatrix type="matrix" values="0 0 0 0 0 0 0 0 0 0 0 0 0 0 0 0 0 0 0.16 0"/>
<feBlend mode="normal" in2="BackgroundImageFix" result="effect1_dropShadow_92_126"/>
<feBlend mode="normal" in="SourceGraphic" in2="effect1_dropShadow_92_126" result="shape"/>
</filter>
</defs>
</svg>
