<svg width="340" height="380" viewBox="0 0 340 380" fill="none" xmlns="http://www.w3.org/2000/svg">
<g filter="url(#filter0_d_92_103)">
<rect x="20" y="20" width="300" height="340" rx="23" fill="white"/>
</g>
<path d="M84.7047 296.312C85.2327 296.312 85.7207 296.456 86.1687 296.744C86.6167 297.016 86.9047 297.448 87.0327 298.04H97.8567C97.9527 297.416 98.2247 296.976 98.6727 296.72C99.1367 296.448 99.6567 296.312 100.233 296.312C100.537 296.312 100.833 296.352 101.121 296.432C101.425 296.512 101.689 296.64 101.913 296.816C102.137 296.992 102.321 297.216 102.465 297.488C102.609 297.76 102.681 298.088 102.681 298.472V305.984H85.6647C84.9447 305.984 84.3607 305.928 83.9127 305.816C83.4647 305.688 83.1127 305.48 82.8567 305.192C82.6167 304.904 82.4487 304.528 82.3527 304.064C82.2727 303.6 82.2327 303.016 82.2327 302.312V298.472C82.2327 298.088 82.2967 297.76 82.4247 297.488C82.5687 297.2 82.7527 296.976 82.9767 296.816C83.2167 296.64 83.4807 296.512 83.7687 296.432C84.0727 296.352 84.3847 296.312 84.7047 296.312ZM90.2487 310.856H83.0967C82.7607 310.856 82.4727 310.808 82.2327 310.712C81.9927 310.6 81.8007 310.456 81.6567 310.28C81.5127 310.104 81.4007 309.904 81.3207 309.68C81.2567 309.456 81.2247 309.232 81.2247 309.008C81.2247 308.784 81.2567 308.56 81.3207 308.336C81.3847 308.112 81.4887 307.912 81.6327 307.736C81.7927 307.544 81.9927 307.392 82.2327 307.28C82.4727 307.168 82.7607 307.112 83.0967 307.112H101.817C102.153 307.112 102.441 307.168 102.681 307.28C102.921 307.392 103.113 307.544 103.257 307.736C103.417 307.912 103.529 308.112 103.593 308.336C103.657 308.56 103.689 308.784 103.689 309.008C103.689 309.232 103.649 309.456 103.569 309.68C103.505 309.904 103.401 310.104 103.257 310.28C103.113 310.456 102.921 310.6 102.681 310.712C102.441 310.808 102.153 310.856 101.817 310.856H95.0727V313.832H90.2487V310.856ZM85.8567 318.824C85.1847 318.824 84.6247 318.76 84.1767 318.632C83.7287 318.52 83.3767 318.328 83.1207 318.056C82.8647 317.784 82.6807 317.432 82.5687 317C82.4727 316.552 82.4247 316 82.4247 315.344V313.976C82.4247 313.16 82.6727 312.584 83.1687 312.248C83.6647 311.896 84.2487 311.72 84.9207 311.72C85.5927 311.72 86.1607 311.896 86.6247 312.248C87.1047 312.6 87.3447 313.176 87.3447 313.976V314.672C87.3447 314.88 87.3767 315.016 87.4407 315.08C87.5047 315.128 87.6487 315.152 87.8727 315.152H100.929C101.665 315.152 102.185 315.336 102.489 315.704C102.793 316.072 102.945 316.496 102.945 316.976C102.945 317.472 102.785 317.904 102.465 318.272C102.161 318.64 101.649 318.824 100.929 318.824H85.8567ZM97.8327 302.72V301.136H87.0807V301.976C87.0807 302.216 87.1287 302.4 87.2247 302.528C87.3367 302.656 87.5367 302.72 87.8247 302.72H97.8327ZM111.561 318.392C110.825 318.392 110.137 318.28 109.497 318.056C108.857 317.832 108.297 317.488 107.817 317.024C107.353 316.56 106.985 315.976 106.713 315.272C106.441 314.552 106.305 313.704 106.305 312.728V304.544C106.305 303.76 106.409 303.08 106.617 302.504C106.201 302.408 105.889 302.2 105.681 301.88C105.489 301.544 105.393 301.16 105.393 300.728C105.393 300.216 105.521 299.792 105.777 299.456C106.049 299.104 106.481 298.928 107.073 298.928H109.329V298.616C109.329 297.896 109.513 297.336 109.881 296.936C110.265 296.52 110.825 296.312 111.561 296.312C112.313 296.312 112.881 296.52 113.265 296.936C113.649 297.336 113.841 297.896 113.841 298.616V298.928H116.049C116.641 298.928 117.065 299.104 117.321 299.456C117.593 299.792 117.729 300.216 117.729 300.728C117.729 301.16 117.625 301.544 117.417 301.88C117.225 302.2 116.921 302.408 116.505 302.504C116.601 302.808 116.673 303.128 116.721 303.464C116.785 303.8 116.817 304.16 116.817 304.544V312.728C116.817 313.704 116.681 314.552 116.409 315.272C116.137 315.976 115.761 316.56 115.281 317.024C114.817 317.488 114.265 317.832 113.625 318.056C112.985 318.28 112.297 318.392 111.561 318.392ZM123.657 308.912H122.505V318.824H118.353V298.328C118.353 297.656 118.553 297.152 118.953 296.816C119.369 296.464 119.857 296.288 120.417 296.288C120.961 296.288 121.441 296.464 121.857 296.816C122.289 297.152 122.505 297.656 122.505 298.328V304.976H123.657V298.328C123.657 297.656 123.865 297.152 124.281 296.816C124.713 296.464 125.209 296.288 125.769 296.288C126.041 296.288 126.305 296.336 126.561 296.432C126.817 296.512 127.041 296.64 127.233 296.816C127.441 296.992 127.601 297.208 127.713 297.464C127.841 297.704 127.905 297.992 127.905 298.328V318.824H123.657V308.912ZM111.561 314.792C111.785 314.792 112.009 314.704 112.233 314.528C112.473 314.352 112.593 314.032 112.593 313.568V303.632C112.593 303.184 112.473 302.872 112.233 302.696C112.009 302.504 111.785 302.408 111.561 302.408C111.337 302.408 111.105 302.504 110.865 302.696C110.641 302.872 110.529 303.184 110.529 303.632V313.568C110.529 314.032 110.641 314.352 110.865 314.528C111.105 314.704 111.337 314.792 111.561 314.792ZM143.049 297.032C143.353 297.032 143.609 297.096 143.817 297.224C144.041 297.336 144.217 297.48 144.345 297.656C144.489 297.832 144.585 298.04 144.633 298.28C144.697 298.504 144.729 298.72 144.729 298.928C144.729 299.136 144.697 299.352 144.633 299.576C144.569 299.784 144.473 299.984 144.345 300.176C144.217 300.352 144.041 300.504 143.817 300.632C143.609 300.744 143.353 300.8 143.049 300.8H136.617C136.169 300.8 135.945 300.992 135.945 301.376V305.24C135.945 305.464 136.001 305.624 136.113 305.72C136.225 305.8 136.393 305.84 136.617 305.84H143.337C143.641 305.84 143.905 305.896 144.129 306.008C144.353 306.12 144.529 306.264 144.657 306.44C144.785 306.616 144.881 306.816 144.945 307.04C145.009 307.248 145.041 307.456 145.041 307.664C145.041 307.888 145.009 308.112 144.945 308.336C144.881 308.544 144.785 308.744 144.657 308.936C144.529 309.112 144.353 309.256 144.129 309.368C143.905 309.48 143.641 309.536 143.337 309.536H140.385V314.12H144.321C145.057 314.12 145.577 314.32 145.881 314.72C146.185 315.104 146.337 315.544 146.337 316.04C146.337 316.552 146.177 317 145.857 317.384C145.553 317.784 145.041 317.984 144.321 317.984H132.249C131.529 317.984 131.009 317.784 130.689 317.384C130.369 317 130.209 316.552 130.209 316.04C130.209 315.544 130.361 315.104 130.665 314.72C130.985 314.32 131.513 314.12 132.249 314.12H135.729V309.536H134.625C133.953 309.536 133.401 309.48 132.969 309.368C132.537 309.256 132.185 309.072 131.913 308.816C131.657 308.544 131.473 308.2 131.361 307.784C131.265 307.352 131.217 306.824 131.217 306.2V300.368C131.217 299.744 131.265 299.224 131.361 298.808C131.473 298.376 131.657 298.032 131.913 297.776C132.185 297.504 132.537 297.312 132.969 297.2C133.401 297.088 133.953 297.032 134.625 297.032H143.049ZM147.201 318.824V298.664C147.201 297.88 147.441 297.288 147.921 296.888C148.401 296.488 148.961 296.288 149.601 296.288C150.241 296.288 150.801 296.488 151.281 296.888C151.761 297.288 152.001 297.88 152.001 298.664V318.824H147.201ZM159.297 318.824C158.625 318.824 158.065 318.76 157.617 318.632C157.169 318.52 156.817 318.328 156.561 318.056C156.305 317.784 156.121 317.432 156.009 317C155.913 316.552 155.865 316 155.865 315.344V313.64C155.865 312.824 156.113 312.232 156.609 311.864C157.105 311.496 157.689 311.312 158.361 311.312C159.033 311.312 159.601 311.496 160.065 311.864C160.545 312.232 160.785 312.824 160.785 313.64V314.504C160.785 314.776 160.825 314.944 160.905 315.008C160.985 315.072 161.161 315.104 161.433 315.104H174.369C175.105 315.104 175.625 315.296 175.929 315.68C176.233 316.048 176.385 316.472 176.385 316.952C176.385 317.448 176.225 317.88 175.905 318.248C175.601 318.632 175.089 318.824 174.369 318.824H159.297ZM159.081 304.928C158.409 304.928 157.849 304.872 157.401 304.76C156.953 304.632 156.601 304.432 156.345 304.16C156.089 303.888 155.905 303.536 155.793 303.104C155.697 302.656 155.649 302.104 155.649 301.448V298.832C155.649 298.016 155.889 297.424 156.369 297.056C156.865 296.688 157.449 296.504 158.121 296.504C158.793 296.504 159.361 296.688 159.825 297.056C160.305 297.424 160.545 298.016 160.545 298.832V300.608C160.545 300.88 160.585 301.048 160.665 301.112C160.745 301.176 160.921 301.208 161.193 301.208H174.225C174.961 301.208 175.481 301.4 175.785 301.784C176.089 302.152 176.241 302.576 176.241 303.056C176.241 303.552 176.081 303.992 175.761 304.376C175.457 304.744 174.945 304.928 174.225 304.928H159.081ZM175.113 306.368C175.481 306.368 175.793 306.432 176.049 306.56C176.305 306.672 176.513 306.824 176.673 307.016C176.833 307.192 176.945 307.4 177.009 307.64C177.089 307.88 177.129 308.12 177.129 308.36C177.129 308.856 176.969 309.312 176.649 309.728C176.345 310.128 175.833 310.328 175.113 310.328H156.681C155.961 310.328 155.441 310.128 155.121 309.728C154.817 309.312 154.665 308.856 154.665 308.36C154.665 308.12 154.697 307.88 154.761 307.64C154.841 307.4 154.961 307.192 155.121 307.016C155.281 306.824 155.489 306.672 155.745 306.56C156.001 306.432 156.313 306.368 156.681 306.368H175.113ZM187.695 306.632C188.527 306.136 189.183 305.312 189.663 304.16C190.159 302.992 190.407 301.584 190.407 299.936V298.712C190.407 298.344 190.471 298.032 190.599 297.776C190.743 297.504 190.927 297.288 191.151 297.128C191.375 296.952 191.623 296.832 191.895 296.768C192.183 296.688 192.479 296.648 192.783 296.648C193.391 296.664 193.911 296.848 194.343 297.2C194.791 297.536 195.015 298.064 195.015 298.784V299.96C195.015 300.28 195.007 300.592 194.991 300.896C194.975 301.2 194.951 301.496 194.919 301.784C195.735 302.008 196.479 302.4 197.151 302.96C197.823 303.52 198.343 304.184 198.711 304.952C199.351 303.72 199.671 302.056 199.671 299.96V298.712C199.671 298.344 199.735 298.032 199.863 297.776C200.007 297.504 200.191 297.288 200.415 297.128C200.639 296.952 200.887 296.832 201.159 296.768C201.447 296.688 201.743 296.648 202.047 296.648C202.655 296.664 203.175 296.848 203.607 297.2C204.055 297.536 204.279 298.064 204.279 298.784V299.96C204.279 300.28 204.271 300.592 204.255 300.896C204.239 301.184 204.215 301.464 204.183 301.736C204.839 301.976 205.439 302.344 205.983 302.84C206.543 303.32 207.015 303.912 207.399 304.616C207.799 305.32 208.095 306.136 208.287 307.064C208.479 307.992 208.543 309.032 208.479 310.184H204.087C204.183 309.336 204.135 308.544 203.943 307.808C203.767 307.072 203.471 306.48 203.055 306.032C202.463 307.312 201.743 308.336 200.895 309.104C200.047 309.856 199.175 310.344 198.279 310.568C197.671 310.728 197.095 310.728 196.551 310.568C196.007 310.392 195.655 310.08 195.495 309.632C195.415 309.408 195.375 309.184 195.375 308.96C195.375 308.736 195.415 308.512 195.495 308.288C195.415 307.744 195.247 307.248 194.991 306.8C194.735 306.336 194.399 305.96 193.983 305.672C193.471 306.952 192.815 307.992 192.015 308.792C191.231 309.592 190.383 310.12 189.471 310.376C188.719 310.584 188.095 310.568 187.599 310.328C187.119 310.072 186.791 309.704 186.615 309.224C186.439 308.744 186.447 308.272 186.639 307.808C186.831 307.328 187.183 306.936 187.695 306.632ZM206.751 314.288C207.119 314.288 207.431 314.352 207.687 314.48C207.959 314.592 208.175 314.744 208.335 314.936C208.511 315.128 208.631 315.352 208.695 315.608C208.775 315.848 208.815 316.088 208.815 316.328C208.815 316.584 208.775 316.832 208.695 317.072C208.615 317.312 208.487 317.528 208.311 317.72C208.151 317.912 207.943 318.064 207.687 318.176C207.431 318.288 207.119 318.344 206.751 318.344H188.415C188.047 318.344 187.735 318.288 187.479 318.176C187.223 318.064 187.007 317.912 186.831 317.72C186.671 317.528 186.551 317.312 186.471 317.072C186.391 316.832 186.351 316.584 186.351 316.328C186.351 316.088 186.383 315.848 186.447 315.608C186.527 315.352 186.647 315.128 186.807 314.936C186.983 314.744 187.199 314.592 187.455 314.48C187.727 314.352 188.047 314.288 188.415 314.288H206.751ZM215.895 312.92C215.895 313.336 215.959 313.6 216.087 313.712C216.231 313.824 216.511 313.88 216.927 313.88H220.527C220.879 313.88 221.175 313.936 221.415 314.048C221.671 314.16 221.871 314.312 222.015 314.504C222.175 314.68 222.287 314.888 222.351 315.128C222.431 315.352 222.471 315.584 222.471 315.824C222.471 316.32 222.319 316.776 222.015 317.192C221.711 317.608 221.215 317.816 220.527 317.816H215.007C214.271 317.816 213.663 317.76 213.183 317.648C212.719 317.552 212.351 317.368 212.079 317.096C211.807 316.84 211.615 316.488 211.503 316.04C211.407 315.576 211.359 314.984 211.359 314.264V308.792C211.359 308.072 211.407 307.488 211.503 307.04C211.615 306.592 211.807 306.24 212.079 305.984C212.351 305.712 212.719 305.528 213.183 305.432C213.663 305.336 214.271 305.288 215.007 305.288H216.279V301.712C216.279 301.472 216.231 301.312 216.135 301.232C216.039 301.136 215.871 301.088 215.631 301.088H213.423C212.703 301.088 212.183 300.888 211.863 300.488C211.543 300.072 211.383 299.616 211.383 299.12C211.383 298.88 211.415 298.64 211.479 298.4C211.559 298.16 211.679 297.952 211.839 297.776C212.015 297.584 212.231 297.432 212.487 297.32C212.743 297.192 213.055 297.128 213.423 297.128H216.999C217.815 297.128 218.463 297.176 218.943 297.272C219.439 297.368 219.815 297.536 220.071 297.776C220.343 298.016 220.519 298.344 220.599 298.76C220.679 299.16 220.719 299.672 220.719 300.296V309.2H216.927C216.511 309.2 216.231 309.256 216.087 309.368C215.959 309.48 215.895 309.744 215.895 310.16V312.92ZM223.575 308.552H222.927C222.559 308.552 222.255 308.496 222.015 308.384C221.791 308.272 221.607 308.12 221.463 307.928C221.335 307.736 221.239 307.512 221.175 307.256C221.127 307 221.103 306.728 221.103 306.44C221.103 306.168 221.127 305.904 221.175 305.648C221.239 305.392 221.335 305.168 221.463 304.976C221.607 304.784 221.791 304.632 222.015 304.52C222.255 304.392 222.559 304.328 222.927 304.328H223.575V298.328C223.575 297.656 223.775 297.152 224.175 296.816C224.575 296.464 225.055 296.288 225.615 296.288C226.159 296.288 226.639 296.464 227.055 296.816C227.487 297.152 227.703 297.656 227.703 298.328V318.824H223.575V308.552ZM228.807 298.328C228.807 297.656 229.015 297.152 229.431 296.816C229.863 296.464 230.359 296.288 230.919 296.288C231.463 296.288 231.951 296.464 232.383 296.816C232.815 297.152 233.031 297.656 233.031 298.328V318.824H228.807V298.328ZM252.327 318.824V298.664C252.327 297.88 252.567 297.288 253.047 296.888C253.527 296.488 254.087 296.288 254.727 296.288C255.367 296.288 255.927 296.488 256.407 296.888C256.887 297.288 257.127 297.88 257.127 298.664V318.824H252.327ZM237.495 313.88C238.503 313.784 239.415 313.592 240.231 313.304C241.063 313 241.767 312.544 242.343 311.936C242.919 311.328 243.359 310.528 243.663 309.536C243.983 308.544 244.143 307.312 244.143 305.84V301.952C244.143 301.776 244.087 301.632 243.975 301.52C243.879 301.408 243.735 301.352 243.543 301.352H238.071C237.703 301.352 237.383 301.296 237.111 301.184C236.855 301.056 236.639 300.896 236.463 300.704C236.287 300.512 236.151 300.296 236.055 300.056C235.975 299.8 235.935 299.544 235.935 299.288C235.935 299.048 235.975 298.808 236.055 298.568C236.151 298.312 236.287 298.088 236.463 297.896C236.639 297.688 236.855 297.52 237.111 297.392C237.383 297.264 237.703 297.2 238.071 297.2H245.175C246.535 297.2 247.503 297.504 248.079 298.112C248.655 298.72 248.943 299.584 248.943 300.704V305.864C248.943 308.008 248.655 309.832 248.079 311.336C247.519 312.84 246.743 314.072 245.751 315.032C244.759 315.992 243.591 316.696 242.247 317.144C240.919 317.592 239.487 317.832 237.951 317.864C237.663 317.864 237.375 317.824 237.087 317.744C236.799 317.664 236.543 317.536 236.319 317.36C236.111 317.2 235.943 316.992 235.815 316.736C235.687 316.48 235.631 316.168 235.647 315.8C235.679 315.288 235.839 314.856 236.127 314.504C236.431 314.152 236.887 313.944 237.495 313.88Z" fill="black"/>
<rect x="30" y="30" width="280" height="320" rx="20" stroke="#85CCA9"/>
<path d="M240.035 235.217C238.054 235.217 236.134 234.168 235.086 232.296L210.969 191.855C209.408 189.078 210.018 185.6 212.745 184.006L240.981 166.614C241.869 166.099 243.805 165.652 244.762 165.652C246.744 165.652 248.589 166.8 249.637 168.672L267.331 198.365L268.265 211.304C269.825 214.081 262.809 218.168 260.076 219.757L242.849 234.452C241.966 234.974 240.992 235.217 240.035 235.217V235.217Z" fill="#3E721D"/>
<path d="M200.165 252.609C197.016 252.609 194.471 250.017 194.471 246.812V212.029C194.471 208.823 197.016 206.232 200.165 206.232H257.114C267.65 206.232 265.941 195.907 265.941 195.907C265.941 195.907 267.804 199.165 268.077 199.681C269.939 203.241 271.175 208.678 268.271 214.203L250.679 249.693C249.853 251.368 247.883 252.609 245.725 252.609H200.165V252.609Z" fill="#77B255"/>
<path d="M194.47 270C192.99 270 191.532 269.409 190.444 268.301L156.275 233.519C154.048 231.252 154.048 227.588 156.275 225.322L190.444 190.539C191.532 189.432 192.99 188.841 194.47 188.841C195.205 188.841 195.945 188.98 196.652 189.281C198.781 190.174 200.165 192.296 200.165 194.638V264.203C200.165 266.545 198.781 268.667 196.652 269.559C195.945 269.861 195.205 270 194.47 270Z" fill="#77B255"/>
<path d="M186.458 86.2261C187.358 88.0232 187.312 90.2377 186.151 92.0464L161.702 132.278C159.977 134.962 156.657 135.983 154.026 134.226L125.984 116.522C125.13 115.948 123.854 114.394 123.421 113.53C122.522 111.733 122.687 109.542 123.849 107.733L141.799 78.203L152.699 71.4841C154.424 68.8001 161.184 73.3102 163.821 75.0725L184.499 84.0232C185.365 84.5972 186.025 85.3682 186.458 86.2261Z" fill="#3E721D"/>
<path d="M219.779 114.493C221.208 117.351 220.103 120.835 217.29 122.296L186.84 138.087C184.038 139.536 180.609 138.406 179.186 135.554L153.319 83.9014C148.541 74.342 140.278 80.5797 140.278 80.5797C140.278 80.5797 142.283 77.4145 142.613 76.9275C144.885 73.6232 149.077 70.0406 155.233 70.1623L194.294 70C196.139 70 198.115 71.2116 199.101 73.171L219.779 114.493V114.493Z" fill="#77B255"/>
<path d="M237.587 111.768C238.259 113.107 238.401 114.696 237.929 116.186L223.002 162.974C222.034 166.017 218.822 167.681 215.827 166.696L169.869 151.49C168.4 151.009 167.227 149.954 166.549 148.615C166.213 147.954 166.002 147.212 165.94 146.435C165.757 144.093 166.987 141.878 169.038 140.817L229.927 109.235C231.977 108.168 234.455 108.458 236.209 109.988C236.795 110.487 237.257 111.101 237.587 111.768V111.768Z" fill="#77B255"/>
<path d="M88.4033 209.374C89.434 207.652 91.3077 206.533 93.4262 206.597L139.902 206.626C143.051 206.725 145.648 209.061 145.568 212.261L145.489 245.855C145.46 246.899 144.828 248.823 144.333 249.646C143.302 251.368 141.377 252.383 139.259 252.319L105.146 252.272L93.7963 246.365C90.6584 246.267 90.8749 238.046 90.9546 234.852L87.5775 212.22C87.6003 211.183 87.9078 210.203 88.4033 209.374V209.374Z" fill="#3E721D"/>
<path d="M94.5313 165.664C96.1657 162.927 99.6681 162.058 102.356 163.722L131.548 181.803C134.242 183.467 135.09 187.026 133.456 189.768L103.859 239.293C98.3924 248.452 107.943 252.336 107.943 252.336C107.943 252.336 104.241 252.255 103.666 252.22C99.7022 252 94.5028 250.243 91.3706 244.852L70.721 211.113C69.7472 209.519 69.7301 207.159 70.852 205.281L94.5313 165.664V165.664Z" fill="#77B255"/>
<path d="M82.8912 151.675C83.6657 150.377 84.9129 149.426 86.4106 149.043L133.365 137.414C136.423 136.649 139.498 138.556 140.244 141.67L151.674 189.461C152.038 190.991 151.771 192.556 151.002 193.849C150.626 194.481 150.119 195.055 149.499 195.519C147.642 196.899 145.148 197.003 143.177 195.785L84.8047 159.641C82.8342 158.417 81.7807 156.11 82.1338 153.797C82.2477 153.02 82.5096 152.313 82.8912 151.675V151.675Z" fill="#77B255"/>
<ellipse cx="206" cy="228.471" rx="14" ry="16.4706" fill="white"/>
<ellipse cx="234" cy="228.471" rx="14" ry="16.4706" fill="white"/>
<circle cx="206" cy="228.471" r="6.58824" fill="#33A66D"/>
<circle cx="234" cy="228.471" r="6.58824" fill="#33A66D"/>
<defs>
<filter id="filter0_d_92_103" x="0" y="0" width="340" height="380" filterUnits="userSpaceOnUse" color-interpolation-filters="sRGB">
<feFlood flood-opacity="0" result="BackgroundImageFix"/>
<feColorMatrix in="SourceAlpha" type="matrix" values="0 0 0 0 0 0 0 0 0 0 0 0 0 0 0 0 0 0 127 0" result="hardAlpha"/>
<feOffset/>
<feGaussianBlur stdDeviation="10"/>
<feComposite in2="hardAlpha" operator="out"/>
<feColorMatrix type="matrix" values="0 0 0 0 0 0 0 0 0 0 0 0 0 0 0 0 0 0 0.16 0"/>
<feBlend mode="normal" in2="BackgroundImageFix" result="effect1_dropShadow_92_103"/>
<feBlend mode="normal" in="SourceGraphic" in2="effect1_dropShadow_92_103" result="shape"/>
</filter>
</defs>
</svg>
