<svg width="340" height="380" viewBox="0 0 340 380" fill="none" xmlns="http://www.w3.org/2000/svg">
<g filter="url(#filter0_d_92_57)">
<rect x="20" y="20" width="300" height="340" rx="23" fill="white"/>
</g>
<path d="M150.468 317.864C149.684 317.864 149.052 317.808 148.572 317.696C148.092 317.584 147.716 317.384 147.444 317.096C147.188 316.824 147.012 316.448 146.916 315.968C146.82 315.488 146.772 314.872 146.772 314.12V300.848C146.772 300.096 146.82 299.48 146.916 299C147.012 298.52 147.188 298.144 147.444 297.872C147.716 297.584 148.092 297.392 148.572 297.296C149.052 297.184 149.684 297.128 150.468 297.128H158.172C158.524 297.128 158.812 297.192 159.036 297.32C159.276 297.448 159.468 297.608 159.612 297.8C159.756 297.992 159.86 298.208 159.924 298.448C159.988 298.688 160.02 298.92 160.02 299.144C160.02 299.384 159.988 299.624 159.924 299.864C159.86 300.104 159.756 300.32 159.612 300.512C159.468 300.704 159.276 300.864 159.036 300.992C158.796 301.12 158.508 301.184 158.172 301.184H152.196C151.972 301.184 151.812 301.232 151.716 301.328C151.62 301.424 151.572 301.608 151.572 301.88V313.16C151.572 313.432 151.62 313.616 151.716 313.712C151.812 313.808 151.972 313.856 152.196 313.856H159.684C160.036 313.856 160.324 313.92 160.548 314.048C160.788 314.176 160.972 314.336 161.1 314.528C161.244 314.72 161.34 314.936 161.388 315.176C161.452 315.416 161.484 315.648 161.484 315.872C161.484 316.112 161.452 316.352 161.388 316.592C161.34 316.816 161.244 317.024 161.1 317.216C160.956 317.408 160.764 317.56 160.524 317.672C160.3 317.8 160.02 317.864 159.684 317.864H150.468ZM163.068 309.128H158.484C158.116 309.128 157.804 309.072 157.548 308.96C157.308 308.832 157.1 308.672 156.924 308.48C156.764 308.272 156.644 308.048 156.564 307.808C156.5 307.552 156.468 307.304 156.468 307.064C156.468 306.824 156.5 306.584 156.564 306.344C156.644 306.088 156.764 305.864 156.924 305.672C157.084 305.48 157.292 305.32 157.548 305.192C157.804 305.064 158.116 305 158.484 305H163.068V298.616C163.068 297.848 163.308 297.272 163.788 296.888C164.268 296.488 164.82 296.288 165.444 296.288C165.748 296.288 166.044 296.344 166.332 296.456C166.62 296.552 166.876 296.696 167.1 296.888C167.324 297.08 167.5 297.32 167.628 297.608C167.772 297.896 167.844 298.232 167.844 298.616V318.824H163.068V309.128ZM174.924 317.912C174.14 317.912 173.5 317.848 173.004 317.72C172.524 317.592 172.148 317.376 171.876 317.072C171.62 316.768 171.444 316.36 171.348 315.848C171.252 315.336 171.204 314.704 171.204 313.952V301.04C171.204 300.288 171.252 299.656 171.348 299.144C171.444 298.632 171.62 298.224 171.876 297.92C172.148 297.616 172.524 297.4 173.004 297.272C173.5 297.144 174.14 297.08 174.924 297.08H180.9C181.684 297.08 182.316 297.144 182.796 297.272C183.292 297.4 183.668 297.616 183.924 297.92C184.196 298.224 184.38 298.632 184.476 299.144C184.572 299.656 184.62 300.288 184.62 301.04V317.912H174.924ZM175.86 313.28C175.86 313.552 175.908 313.76 176.004 313.904C176.116 314.032 176.332 314.096 176.652 314.096H179.964V301.688C179.964 301.448 179.924 301.256 179.844 301.112C179.764 300.968 179.588 300.896 179.316 300.896H176.484C176.212 300.896 176.036 300.968 175.956 301.112C175.892 301.256 175.86 301.448 175.86 301.688V313.28ZM187.524 318.824V298.664C187.524 297.88 187.764 297.288 188.244 296.888C188.724 296.488 189.284 296.288 189.924 296.288C190.564 296.288 191.124 296.488 191.604 296.888C192.084 297.288 192.324 297.88 192.324 298.664V318.824H187.524Z" fill="black"/>
<path d="M170.359 270C88.4161 270 77.606 189.333 88.5749 160.522C101.279 131.755 110.013 130.955 124.306 118.17C138.598 105.384 138.598 104.362 125.894 91.5759C113.19 78.7902 118.748 70 145.744 70C172.741 70 151.504 96 167.385 96C183.265 96 165.981 74.6667 196.154 74.6667C210.538 74.6667 211.38 83.3393 206.615 88.6667C196.028 97.4568 192.007 106.958 212.442 115.772C229.116 122.964 245.791 146.938 252.937 170.112C260.083 193.286 252.302 270 170.359 270Z" fill="black" stroke="black"/>
<ellipse cx="153" cy="170" rx="17" ry="20" fill="white"/>
<ellipse cx="187" cy="170" rx="17" ry="20" fill="white"/>
<circle cx="153" cy="170" r="8" fill="#33A66D"/>
<circle cx="187" cy="170" r="8" fill="#33A66D"/>
<rect x="30" y="30" width="280" height="320" rx="20" stroke="#85CCA9"/>
<defs>
<filter id="filter0_d_92_57" x="0" y="0" width="340" height="380" filterUnits="userSpaceOnUse" color-interpolation-filters="sRGB">
<feFlood flood-opacity="0" result="BackgroundImageFix"/>
<feColorMatrix in="SourceAlpha" type="matrix" values="0 0 0 0 0 0 0 0 0 0 0 0 0 0 0 0 0 0 127 0" result="hardAlpha"/>
<feOffset/>
<feGaussianBlur stdDeviation="10"/>
<feComposite in2="hardAlpha" operator="out"/>
<feColorMatrix type="matrix" values="0 0 0 0 0 0 0 0 0 0 0 0 0 0 0 0 0 0 0.16 0"/>
<feBlend mode="normal" in2="BackgroundImageFix" result="effect1_dropShadow_92_57"/>
<feBlend mode="normal" in="SourceGraphic" in2="effect1_dropShadow_92_57" result="shape"/>
</filter>
</defs>
</svg>
