<svg width="340" height="380" viewBox="0 0 340 380" fill="none" xmlns="http://www.w3.org/2000/svg">
<g filter="url(#filter0_d_92_198)">
<rect x="20" y="20" width="300" height="340" rx="23" fill="white"/>
</g>
<path d="M95.2614 307.592V306.296C94.5094 306.28 93.8534 306.176 93.2934 305.984C92.7494 305.776 92.2934 305.496 91.9254 305.144C91.5574 304.776 91.2774 304.352 91.0854 303.872C90.9094 303.376 90.8214 302.84 90.8214 302.264C90.8214 301.912 90.8934 301.552 91.0374 301.184C90.6374 301.072 90.3334 300.88 90.1254 300.608C89.9174 300.32 89.8134 299.968 89.8134 299.552C89.8134 299.024 89.9734 298.6 90.2934 298.28C90.6294 297.96 91.1014 297.8 91.7094 297.8H95.1174C95.1974 297.192 95.4454 296.744 95.8614 296.456C96.2774 296.168 96.8214 296.024 97.4934 296.024C98.1654 296.024 98.7014 296.168 99.1014 296.456C99.5174 296.744 99.7654 297.192 99.8454 297.8H103.253C103.861 297.8 104.325 297.96 104.645 298.28C104.981 298.6 105.149 299.024 105.149 299.552C105.149 299.968 105.037 300.312 104.813 300.584C104.605 300.856 104.317 301.048 103.949 301.16C104.093 301.528 104.165 301.896 104.165 302.264C104.165 302.84 104.069 303.376 103.877 303.872C103.701 304.352 103.429 304.776 103.061 305.144C102.693 305.496 102.229 305.776 101.669 305.984C101.125 306.176 100.477 306.28 99.7254 306.296V307.592H103.517C104.253 307.592 104.773 307.768 105.077 308.12C105.381 308.472 105.533 308.896 105.533 309.392C105.533 309.904 105.373 310.336 105.053 310.688C104.749 311.04 104.237 311.216 103.517 311.216H91.8534C91.1334 311.216 90.6134 311.04 90.2934 310.688C89.9734 310.336 89.8134 309.904 89.8134 309.392C89.8134 308.896 89.9654 308.472 90.2694 308.12C90.5894 307.768 91.1174 307.592 91.8534 307.592H95.2614ZM106.325 298.664C106.325 297.88 106.557 297.288 107.021 296.888C107.485 296.488 108.037 296.288 108.677 296.288C109.301 296.288 109.845 296.496 110.309 296.912C110.789 297.312 111.029 297.896 111.029 298.664V302.288H111.773C112.141 302.288 112.445 302.352 112.685 302.48C112.925 302.608 113.117 302.776 113.261 302.984C113.405 303.176 113.509 303.4 113.573 303.656C113.637 303.896 113.669 304.136 113.669 304.376C113.669 304.616 113.637 304.864 113.573 305.12C113.509 305.36 113.405 305.584 113.261 305.792C113.117 305.984 112.917 306.144 112.661 306.272C112.421 306.4 112.125 306.464 111.773 306.464H111.029V313.256H106.325V298.664ZM95.1414 318.824C94.4694 318.824 93.9094 318.76 93.4614 318.632C93.0294 318.504 92.6854 318.304 92.4294 318.032C92.1734 317.76 91.9894 317.4 91.8774 316.952C91.7814 316.504 91.7334 315.96 91.7334 315.32V314.288C91.7334 313.472 91.9734 312.904 92.4534 312.584C92.9494 312.248 93.5334 312.08 94.2054 312.08C94.8774 312.08 95.4454 312.248 95.9094 312.584C96.3734 312.92 96.6054 313.488 96.6054 314.288V314.552C96.6054 314.824 96.6454 314.992 96.7254 315.056C96.8054 315.12 96.9814 315.152 97.2534 315.152H109.829C110.565 315.152 111.085 315.336 111.389 315.704C111.693 316.072 111.845 316.496 111.845 316.976C111.845 317.472 111.685 317.904 111.365 318.272C111.061 318.64 110.549 318.824 109.829 318.824H95.1414ZM98.7894 303.32C99.1734 303.32 99.4614 303.208 99.6534 302.984C99.8614 302.744 99.9654 302.48 99.9654 302.192C99.9654 301.904 99.8614 301.656 99.6534 301.448C99.4614 301.224 99.1734 301.112 98.7894 301.112H96.1974C95.8134 301.112 95.5174 301.224 95.3094 301.448C95.1174 301.656 95.0214 301.904 95.0214 302.192C95.0214 302.48 95.1174 302.744 95.3094 302.984C95.5174 303.208 95.8134 303.32 96.1974 303.32H98.7894ZM117.053 304.952C117.933 305 118.757 304.976 119.525 304.88C120.293 304.768 120.949 304.584 121.493 304.328C122.053 304.056 122.493 303.696 122.813 303.248C123.133 302.784 123.293 302.224 123.293 301.568V301.256C123.293 300.904 123.109 300.728 122.741 300.728H117.317C116.965 300.728 116.661 300.68 116.405 300.584C116.165 300.472 115.965 300.328 115.805 300.152C115.645 299.976 115.525 299.776 115.445 299.552C115.381 299.328 115.349 299.096 115.349 298.856C115.349 298.616 115.381 298.384 115.445 298.16C115.525 297.936 115.645 297.736 115.805 297.56C115.965 297.384 116.165 297.248 116.405 297.152C116.661 297.04 116.965 296.984 117.317 296.984H124.517C125.477 296.984 126.205 297.128 126.701 297.416C127.197 297.704 127.533 298.136 127.709 298.712C127.773 298.696 127.869 298.688 127.997 298.688H131.405V298.616C131.405 297.848 131.637 297.272 132.101 296.888C132.581 296.488 133.133 296.288 133.757 296.288C134.061 296.288 134.357 296.344 134.645 296.456C134.933 296.552 135.189 296.696 135.413 296.888C135.637 297.08 135.813 297.32 135.941 297.608C136.085 297.896 136.157 298.232 136.157 298.616V309.032H131.405V307.04H127.997C127.101 307.04 126.549 306.696 126.341 306.008C125.349 307.16 124.005 307.96 122.309 308.408C120.629 308.856 118.789 308.984 116.789 308.792C116.245 308.744 115.789 308.528 115.421 308.144C115.053 307.744 114.893 307.224 114.941 306.584C114.989 306.024 115.205 305.608 115.589 305.336C115.989 305.048 116.477 304.92 117.053 304.952ZM120.725 318.824C119.893 318.824 119.165 318.712 118.541 318.488C117.933 318.264 117.421 317.952 117.005 317.552C116.605 317.152 116.301 316.68 116.093 316.136C115.901 315.592 115.805 314.992 115.805 314.336C115.805 313.696 115.901 313.104 116.093 312.56C116.301 312 116.605 311.52 117.005 311.12C117.421 310.704 117.933 310.384 118.541 310.16C119.165 309.92 119.893 309.8 120.725 309.8H131.477C132.293 309.8 133.005 309.912 133.613 310.136C134.237 310.36 134.749 310.68 135.149 311.096C135.565 311.496 135.877 311.976 136.085 312.536C136.293 313.08 136.397 313.68 136.397 314.336C136.397 314.992 136.293 315.6 136.085 316.16C135.877 316.704 135.565 317.176 135.149 317.576C134.749 317.976 134.237 318.28 133.613 318.488C133.005 318.712 132.293 318.824 131.477 318.824H120.725ZM130.205 315.464C130.733 315.464 131.085 315.344 131.261 315.104C131.437 314.864 131.525 314.608 131.525 314.336C131.525 314.064 131.437 313.816 131.261 313.592C131.085 313.368 130.733 313.256 130.205 313.256H121.997C121.469 313.256 121.117 313.368 120.941 313.592C120.765 313.816 120.677 314.064 120.677 314.336C120.677 314.608 120.765 314.864 120.941 315.104C121.117 315.344 121.469 315.464 121.997 315.464H130.205ZM127.877 302.024C127.829 302.664 127.725 303.232 127.565 303.728C127.645 303.728 127.717 303.728 127.781 303.728C127.845 303.712 127.917 303.704 127.997 303.704H131.405V302.024H127.877ZM147.18 305.576C148.396 305.192 149.324 304.504 149.964 303.512C150.604 302.52 150.924 301.12 150.924 299.312V298.88C150.924 298.496 150.988 298.168 151.116 297.896C151.26 297.608 151.444 297.376 151.668 297.2C151.908 297.008 152.172 296.872 152.46 296.792C152.764 296.696 153.076 296.648 153.396 296.648C154.02 296.664 154.556 296.864 155.004 297.248C155.468 297.616 155.7 298.16 155.7 298.88V299.312C155.7 299.728 155.684 300.128 155.652 300.512C155.62 300.88 155.572 301.248 155.508 301.616C156.34 301.712 157.092 301.928 157.764 302.264C158.452 302.6 159.036 303.08 159.516 303.704C159.996 304.312 160.356 305.072 160.596 305.984C160.836 306.896 160.94 307.976 160.908 309.224H156.3C156.428 306.888 155.756 305.56 154.284 305.24C153.58 306.488 152.708 307.464 151.668 308.168C150.644 308.856 149.58 309.272 148.476 309.416C148.156 309.464 147.86 309.456 147.588 309.392C147.316 309.328 147.076 309.232 146.868 309.104C146.66 308.96 146.484 308.792 146.34 308.6C146.196 308.408 146.1 308.208 146.052 308C145.892 307.456 145.916 306.96 146.124 306.512C146.348 306.048 146.7 305.736 147.18 305.576ZM151.308 318.824C150.636 318.824 150.076 318.76 149.628 318.632C149.196 318.504 148.852 318.304 148.596 318.032C148.34 317.76 148.156 317.4 148.044 316.952C147.948 316.504 147.9 315.96 147.9 315.32V312.872C147.9 312.056 148.14 311.456 148.62 311.072C149.116 310.688 149.7 310.496 150.372 310.496C151.044 310.496 151.612 310.688 152.076 311.072C152.54 311.456 152.772 312.056 152.772 312.872V314.504C152.772 314.776 152.812 314.944 152.892 315.008C152.972 315.072 153.148 315.104 153.42 315.104H166.452C167.188 315.104 167.708 315.296 168.012 315.68C168.316 316.048 168.468 316.472 168.468 316.952C168.468 317.448 168.308 317.88 167.988 318.248C167.684 318.632 167.172 318.824 166.452 318.824H151.308ZM163.068 303.32H161.052C160.46 303.32 159.996 303.12 159.66 302.72C159.34 302.304 159.18 301.84 159.18 301.328C159.18 300.816 159.332 300.36 159.636 299.96C159.94 299.544 160.412 299.336 161.052 299.336H163.068V298.616C163.068 297.848 163.308 297.272 163.788 296.888C164.268 296.488 164.82 296.288 165.444 296.288C165.748 296.288 166.044 296.344 166.332 296.456C166.62 296.552 166.876 296.696 167.1 296.888C167.324 297.08 167.5 297.32 167.628 297.608C167.772 297.896 167.844 298.232 167.844 298.616V313.256H163.068V303.32ZM176.772 318.896C175.94 318.896 175.212 318.776 174.588 318.536C173.98 318.312 173.468 318 173.052 317.6C172.652 317.2 172.348 316.728 172.14 316.184C171.948 315.624 171.852 315.016 171.852 314.36C171.852 313.72 171.948 313.12 172.14 312.56C172.348 312 172.652 311.52 173.052 311.12C173.468 310.704 173.98 310.376 174.588 310.136C175.212 309.896 175.94 309.776 176.772 309.776H187.908C188.724 309.776 189.436 309.896 190.044 310.136C190.668 310.36 191.18 310.68 191.58 311.096C191.996 311.496 192.308 311.976 192.516 312.536C192.724 313.096 192.828 313.704 192.828 314.36C192.828 315.016 192.724 315.624 192.516 316.184C192.308 316.744 191.996 317.224 191.58 317.624C191.18 318.024 190.668 318.336 190.044 318.56C189.436 318.784 188.724 318.896 187.908 318.896H176.772ZM188.484 304.832H187.404V308.936H183.252V298.328C183.252 297.656 183.452 297.152 183.852 296.816C184.268 296.464 184.756 296.288 185.316 296.288C185.86 296.288 186.34 296.464 186.756 296.816C187.188 297.152 187.404 297.656 187.404 298.328V301.232H188.484V298.328C188.484 297.656 188.692 297.152 189.108 296.816C189.54 296.464 190.036 296.288 190.596 296.288C191.14 296.288 191.628 296.464 192.06 296.816C192.492 297.152 192.708 297.656 192.708 298.328V308.936H188.484V304.832ZM171.708 305.36C172.54 305.04 173.172 304.424 173.604 303.512C174.036 302.6 174.252 301.32 174.252 299.672V298.952C174.252 298.184 174.46 297.624 174.876 297.272C175.308 296.904 175.828 296.72 176.436 296.72C177.044 296.72 177.572 296.904 178.02 297.272C178.484 297.624 178.716 298.184 178.716 298.952V299.672C178.716 300.008 178.708 300.336 178.692 300.656C178.676 300.96 178.652 301.256 178.62 301.544C180.06 301.832 181.132 302.552 181.836 303.704C182.556 304.856 182.828 306.52 182.652 308.696H178.356C178.5 307.928 178.508 307.256 178.38 306.68C178.268 306.088 178.028 305.632 177.66 305.312C177.148 306.416 176.476 307.288 175.644 307.928C174.828 308.552 173.9 308.936 172.86 309.08C172.252 309.16 171.724 309.064 171.276 308.792C170.844 308.52 170.588 308.128 170.508 307.616C170.316 306.496 170.716 305.744 171.708 305.36ZM186.636 315.536C187.164 315.536 187.516 315.408 187.692 315.152C187.868 314.896 187.956 314.632 187.956 314.36C187.956 314.088 187.868 313.832 187.692 313.592C187.516 313.352 187.164 313.232 186.636 313.232H178.044C177.516 313.232 177.164 313.352 176.988 313.592C176.812 313.832 176.724 314.088 176.724 314.36C176.724 314.632 176.812 314.896 176.988 315.152C177.164 315.408 177.516 315.536 178.044 315.536H186.636ZM215.371 313.568C215.723 313.568 216.011 313.632 216.235 313.76C216.475 313.888 216.659 314.048 216.787 314.24C216.931 314.432 217.027 314.648 217.075 314.888C217.139 315.128 217.171 315.36 217.171 315.584C217.171 315.824 217.139 316.064 217.075 316.304C217.027 316.544 216.931 316.76 216.787 316.952C216.643 317.144 216.451 317.304 216.211 317.432C215.987 317.56 215.707 317.624 215.371 317.624H206.611C205.891 317.624 205.291 317.56 204.811 317.432C204.347 317.304 203.979 317.096 203.707 316.808C203.435 316.504 203.243 316.12 203.131 315.656C203.019 315.176 202.963 314.592 202.963 313.904V299.528C202.963 298.728 203.195 298.152 203.659 297.8C204.139 297.432 204.707 297.248 205.363 297.248C206.035 297.248 206.595 297.432 207.043 297.8C207.491 298.152 207.715 298.728 207.715 299.528V312.92C207.715 313.192 207.755 313.368 207.835 313.448C207.931 313.528 208.115 313.568 208.387 313.568H215.371ZM218.563 298.616C218.563 297.848 218.803 297.272 219.283 296.888C219.763 296.488 220.315 296.288 220.939 296.288C221.243 296.288 221.539 296.344 221.827 296.456C222.115 296.552 222.363 296.696 222.571 296.888C222.795 297.08 222.971 297.32 223.099 297.608C223.243 297.896 223.315 298.232 223.315 298.616V304.688H224.107C224.475 304.688 224.779 304.752 225.019 304.88C225.259 305.008 225.451 305.176 225.595 305.384C225.739 305.576 225.843 305.8 225.907 306.056C225.971 306.296 226.003 306.536 226.003 306.776C226.003 307.016 225.971 307.264 225.907 307.52C225.843 307.76 225.739 307.984 225.595 308.192C225.451 308.384 225.251 308.544 224.995 308.672C224.755 308.8 224.459 308.864 224.107 308.864H223.315V318.824H218.563V298.616ZM231.211 307.856C230.491 307.856 229.907 307.8 229.459 307.688C229.011 307.56 228.659 307.36 228.403 307.088C228.163 306.8 227.995 306.424 227.899 305.96C227.819 305.496 227.779 304.912 227.779 304.208V300.44C227.779 299.752 227.819 299.176 227.899 298.712C227.995 298.232 228.163 297.856 228.403 297.584C228.659 297.296 229.011 297.096 229.459 296.984C229.907 296.856 230.491 296.792 231.211 296.792H244.579C245.299 296.792 245.883 296.856 246.331 296.984C246.779 297.096 247.123 297.296 247.363 297.584C247.619 297.856 247.787 298.232 247.867 298.712C247.963 299.176 248.011 299.752 248.011 300.44V307.856H231.211ZM240.355 313.448V318.944H235.459V313.448H228.691C227.971 313.448 227.451 313.248 227.131 312.848C226.827 312.448 226.675 312 226.675 311.504C226.675 311.264 226.707 311.032 226.771 310.808C226.851 310.568 226.971 310.352 227.131 310.16C227.291 309.968 227.499 309.816 227.755 309.704C228.011 309.592 228.323 309.536 228.691 309.536H247.123C247.491 309.536 247.803 309.592 248.059 309.704C248.315 309.816 248.523 309.968 248.683 310.16C248.843 310.352 248.955 310.568 249.019 310.808C249.099 311.032 249.139 311.264 249.139 311.504C249.139 312 248.979 312.448 248.659 312.848C248.355 313.248 247.843 313.448 247.123 313.448H240.355ZM232.555 303.488C232.555 303.76 232.587 303.936 232.651 304.016C232.731 304.08 232.891 304.112 233.131 304.112H243.235V301.136C243.235 300.88 243.195 300.72 243.115 300.656C243.035 300.576 242.875 300.536 242.635 300.536H233.131C232.891 300.536 232.731 300.576 232.651 300.656C232.587 300.72 232.555 300.88 232.555 301.136V303.488Z" fill="black"/>
<path d="M192.111 253.333C192.111 265.606 182.161 270 169.889 270C157.617 270 147.667 265.606 147.667 253.333L153.222 203.333C153.222 191.061 157.617 192.222 169.889 192.222C182.161 192.222 186.556 191.061 186.556 203.333L192.111 253.333Z" fill="#662113"/>
<path d="M258.778 164.444C258.778 213.539 218.983 231.111 169.889 231.111C120.8 231.111 81 213.539 81 164.444C81 115.356 131 70 169.889 70C208.778 70 258.778 115.356 258.778 164.444Z" fill="#5C913B"/>
<path d="M103.222 192.222C109.359 192.222 114.333 189.735 114.333 186.667C114.333 183.598 109.359 181.111 103.222 181.111C97.0857 181.111 92.1111 183.598 92.1111 186.667C92.1111 189.735 97.0857 192.222 103.222 192.222Z" fill="#3E721D"/>
<path d="M236.556 192.222C242.692 192.222 247.667 189.735 247.667 186.667C247.667 183.598 242.692 181.111 236.556 181.111C230.419 181.111 225.444 183.598 225.444 186.667C225.444 189.735 230.419 192.222 236.556 192.222Z" fill="#3E721D"/>
<path d="M125.444 214.444C131.581 214.444 136.556 211.957 136.556 208.889C136.556 205.821 131.581 203.333 125.444 203.333C119.308 203.333 114.333 205.821 114.333 208.889C114.333 211.957 119.308 214.444 125.444 214.444Z" fill="#3E721D"/>
<path d="M147.667 197.778C153.803 197.778 158.778 195.29 158.778 192.222C158.778 189.154 153.803 186.667 147.667 186.667C141.53 186.667 136.556 189.154 136.556 192.222C136.556 195.29 141.53 197.778 147.667 197.778Z" fill="#3E721D"/>
<path d="M125.444 164.444C131.581 164.444 136.556 161.957 136.556 158.889C136.556 155.821 131.581 153.333 125.444 153.333C119.308 153.333 114.333 155.821 114.333 158.889C114.333 161.957 119.308 164.444 125.444 164.444Z" fill="#3E721D"/>
<path d="M108.778 142.222C114.914 142.222 119.889 139.735 119.889 136.667C119.889 133.598 114.914 131.111 108.778 131.111C102.641 131.111 97.6666 133.598 97.6666 136.667C97.6666 139.735 102.641 142.222 108.778 142.222Z" fill="#3E721D"/>
<path d="M231 142.222C237.137 142.222 242.111 139.735 242.111 136.667C242.111 133.598 237.137 131.111 231 131.111C224.864 131.111 219.889 133.598 219.889 136.667C219.889 139.735 224.864 142.222 231 142.222Z" fill="#3E721D"/>
<path d="M147.667 131.111C153.803 131.111 158.778 128.624 158.778 125.556C158.778 122.487 153.803 120 147.667 120C141.53 120 136.556 122.487 136.556 125.556C136.556 128.624 141.53 131.111 147.667 131.111Z" fill="#3E721D"/>
<path d="M192.111 131.111C198.248 131.111 203.222 128.624 203.222 125.556C203.222 122.487 198.248 120 192.111 120C185.975 120 181 122.487 181 125.556C181 128.624 185.975 131.111 192.111 131.111Z" fill="#3E721D"/>
<path d="M214.333 164.444C220.47 164.444 225.444 161.957 225.444 158.889C225.444 155.821 220.47 153.333 214.333 153.333C208.197 153.333 203.222 155.821 203.222 158.889C203.222 161.957 208.197 164.444 214.333 164.444Z" fill="#3E721D"/>
<path d="M169.889 170C176.025 170 181 167.513 181 164.444C181 161.376 176.025 158.889 169.889 158.889C163.752 158.889 158.778 161.376 158.778 164.444C158.778 167.513 163.752 170 169.889 170Z" fill="#3E721D"/>
<path d="M192.111 197.778C198.248 197.778 203.222 195.29 203.222 192.222C203.222 189.154 198.248 186.667 192.111 186.667C185.975 186.667 181 189.154 181 192.222C181 195.29 185.975 197.778 192.111 197.778Z" fill="#3E721D"/>
<path d="M169.889 220C176.025 220 181 217.513 181 214.444C181 211.376 176.025 208.889 169.889 208.889C163.752 208.889 158.778 211.376 158.778 214.444C158.778 217.513 163.752 220 169.889 220Z" fill="#3E721D"/>
<path d="M214.333 214.444C220.47 214.444 225.444 211.957 225.444 208.889C225.444 205.821 220.47 203.333 214.333 203.333C208.197 203.333 203.222 205.821 203.222 208.889C203.222 211.957 208.197 214.444 214.333 214.444Z" fill="#3E721D"/>
<rect x="30" y="30" width="280" height="320" rx="20" stroke="#85CCA9"/>
<ellipse cx="153" cy="150" rx="17" ry="20" fill="white"/>
<ellipse cx="187" cy="150" rx="17" ry="20" fill="white"/>
<circle cx="153" cy="150" r="8" fill="#33A66D"/>
<circle cx="187" cy="150" r="8" fill="#33A66D"/>
<defs>
<filter id="filter0_d_92_198" x="0" y="0" width="340" height="380" filterUnits="userSpaceOnUse" color-interpolation-filters="sRGB">
<feFlood flood-opacity="0" result="BackgroundImageFix"/>
<feColorMatrix in="SourceAlpha" type="matrix" values="0 0 0 0 0 0 0 0 0 0 0 0 0 0 0 0 0 0 127 0" result="hardAlpha"/>
<feOffset/>
<feGaussianBlur stdDeviation="10"/>
<feComposite in2="hardAlpha" operator="out"/>
<feColorMatrix type="matrix" values="0 0 0 0 0 0 0 0 0 0 0 0 0 0 0 0 0 0 0.16 0"/>
<feBlend mode="normal" in2="BackgroundImageFix" result="effect1_dropShadow_92_198"/>
<feBlend mode="normal" in="SourceGraphic" in2="effect1_dropShadow_92_198" result="shape"/>
</filter>
</defs>
</svg>
