<svg width="340" height="380" viewBox="0 0 340 380" fill="none" xmlns="http://www.w3.org/2000/svg">
<g filter="url(#filter0_d_92_218)">
<rect x="20" y="20" width="300" height="340" rx="23" fill="white"/>
</g>
<path d="M96.2614 307.592V306.296C95.5094 306.28 94.8534 306.176 94.2934 305.984C93.7494 305.776 93.2934 305.496 92.9254 305.144C92.5574 304.776 92.2774 304.352 92.0854 303.872C91.9094 303.376 91.8214 302.84 91.8214 302.264C91.8214 301.912 91.8934 301.552 92.0374 301.184C91.6374 301.072 91.3334 300.88 91.1254 300.608C90.9174 300.32 90.8134 299.968 90.8134 299.552C90.8134 299.024 90.9734 298.6 91.2934 298.28C91.6294 297.96 92.1014 297.8 92.7094 297.8H96.1174C96.1974 297.192 96.4454 296.744 96.8614 296.456C97.2774 296.168 97.8214 296.024 98.4934 296.024C99.1654 296.024 99.7014 296.168 100.101 296.456C100.517 296.744 100.765 297.192 100.845 297.8H104.253C104.861 297.8 105.325 297.96 105.645 298.28C105.981 298.6 106.149 299.024 106.149 299.552C106.149 299.968 106.037 300.312 105.813 300.584C105.605 300.856 105.317 301.048 104.949 301.16C105.093 301.528 105.165 301.896 105.165 302.264C105.165 302.84 105.069 303.376 104.877 303.872C104.701 304.352 104.429 304.776 104.061 305.144C103.693 305.496 103.229 305.776 102.669 305.984C102.125 306.176 101.477 306.28 100.725 306.296V307.592H104.517C105.253 307.592 105.773 307.768 106.077 308.12C106.381 308.472 106.533 308.896 106.533 309.392C106.533 309.904 106.373 310.336 106.053 310.688C105.749 311.04 105.237 311.216 104.517 311.216H92.8534C92.1334 311.216 91.6134 311.04 91.2934 310.688C90.9734 310.336 90.8134 309.904 90.8134 309.392C90.8134 308.896 90.9654 308.472 91.2694 308.12C91.5894 307.768 92.1174 307.592 92.8534 307.592H96.2614ZM107.325 298.664C107.325 297.88 107.557 297.288 108.021 296.888C108.485 296.488 109.037 296.288 109.677 296.288C110.301 296.288 110.845 296.496 111.309 296.912C111.789 297.312 112.029 297.896 112.029 298.664V302.288H112.773C113.141 302.288 113.445 302.352 113.685 302.48C113.925 302.608 114.117 302.776 114.261 302.984C114.405 303.176 114.509 303.4 114.573 303.656C114.637 303.896 114.669 304.136 114.669 304.376C114.669 304.616 114.637 304.864 114.573 305.12C114.509 305.36 114.405 305.584 114.261 305.792C114.117 305.984 113.917 306.144 113.661 306.272C113.421 306.4 113.125 306.464 112.773 306.464H112.029V313.256H107.325V298.664ZM96.1414 318.824C95.4694 318.824 94.9094 318.76 94.4614 318.632C94.0294 318.504 93.6854 318.304 93.4294 318.032C93.1734 317.76 92.9894 317.4 92.8774 316.952C92.7814 316.504 92.7334 315.96 92.7334 315.32V314.288C92.7334 313.472 92.9734 312.904 93.4534 312.584C93.9494 312.248 94.5334 312.08 95.2054 312.08C95.8774 312.08 96.4454 312.248 96.9094 312.584C97.3734 312.92 97.6054 313.488 97.6054 314.288V314.552C97.6054 314.824 97.6454 314.992 97.7254 315.056C97.8054 315.12 97.9814 315.152 98.2534 315.152H110.829C111.565 315.152 112.085 315.336 112.389 315.704C112.693 316.072 112.845 316.496 112.845 316.976C112.845 317.472 112.685 317.904 112.365 318.272C112.061 318.64 111.549 318.824 110.829 318.824H96.1414ZM99.7894 303.32C100.173 303.32 100.461 303.208 100.653 302.984C100.861 302.744 100.965 302.48 100.965 302.192C100.965 301.904 100.861 301.656 100.653 301.448C100.461 301.224 100.173 301.112 99.7894 301.112H97.1974C96.8134 301.112 96.5174 301.224 96.3094 301.448C96.1174 301.656 96.0214 301.904 96.0214 302.192C96.0214 302.48 96.1174 302.744 96.3094 302.984C96.5174 303.208 96.8134 303.32 97.1974 303.32H99.7894ZM118.053 304.952C118.933 305 119.757 304.976 120.525 304.88C121.293 304.768 121.949 304.584 122.493 304.328C123.053 304.056 123.493 303.696 123.813 303.248C124.133 302.784 124.293 302.224 124.293 301.568V301.256C124.293 300.904 124.109 300.728 123.741 300.728H118.317C117.965 300.728 117.661 300.68 117.405 300.584C117.165 300.472 116.965 300.328 116.805 300.152C116.645 299.976 116.525 299.776 116.445 299.552C116.381 299.328 116.349 299.096 116.349 298.856C116.349 298.616 116.381 298.384 116.445 298.16C116.525 297.936 116.645 297.736 116.805 297.56C116.965 297.384 117.165 297.248 117.405 297.152C117.661 297.04 117.965 296.984 118.317 296.984H125.517C126.477 296.984 127.205 297.128 127.701 297.416C128.197 297.704 128.533 298.136 128.709 298.712C128.773 298.696 128.869 298.688 128.997 298.688H132.405V298.616C132.405 297.848 132.637 297.272 133.101 296.888C133.581 296.488 134.133 296.288 134.757 296.288C135.061 296.288 135.357 296.344 135.645 296.456C135.933 296.552 136.189 296.696 136.413 296.888C136.637 297.08 136.813 297.32 136.941 297.608C137.085 297.896 137.157 298.232 137.157 298.616V309.032H132.405V307.04H128.997C128.101 307.04 127.549 306.696 127.341 306.008C126.349 307.16 125.005 307.96 123.309 308.408C121.629 308.856 119.789 308.984 117.789 308.792C117.245 308.744 116.789 308.528 116.421 308.144C116.053 307.744 115.893 307.224 115.941 306.584C115.989 306.024 116.205 305.608 116.589 305.336C116.989 305.048 117.477 304.92 118.053 304.952ZM121.725 318.824C120.893 318.824 120.165 318.712 119.541 318.488C118.933 318.264 118.421 317.952 118.005 317.552C117.605 317.152 117.301 316.68 117.093 316.136C116.901 315.592 116.805 314.992 116.805 314.336C116.805 313.696 116.901 313.104 117.093 312.56C117.301 312 117.605 311.52 118.005 311.12C118.421 310.704 118.933 310.384 119.541 310.16C120.165 309.92 120.893 309.8 121.725 309.8H132.477C133.293 309.8 134.005 309.912 134.613 310.136C135.237 310.36 135.749 310.68 136.149 311.096C136.565 311.496 136.877 311.976 137.085 312.536C137.293 313.08 137.397 313.68 137.397 314.336C137.397 314.992 137.293 315.6 137.085 316.16C136.877 316.704 136.565 317.176 136.149 317.576C135.749 317.976 135.237 318.28 134.613 318.488C134.005 318.712 133.293 318.824 132.477 318.824H121.725ZM131.205 315.464C131.733 315.464 132.085 315.344 132.261 315.104C132.437 314.864 132.525 314.608 132.525 314.336C132.525 314.064 132.437 313.816 132.261 313.592C132.085 313.368 131.733 313.256 131.205 313.256H122.997C122.469 313.256 122.117 313.368 121.941 313.592C121.765 313.816 121.677 314.064 121.677 314.336C121.677 314.608 121.765 314.864 121.941 315.104C122.117 315.344 122.469 315.464 122.997 315.464H131.205ZM128.877 302.024C128.829 302.664 128.725 303.232 128.565 303.728C128.645 303.728 128.717 303.728 128.781 303.728C128.845 303.712 128.917 303.704 128.997 303.704H132.405V302.024H128.877ZM151.444 317.912C150.66 317.912 150.02 317.848 149.524 317.72C149.044 317.592 148.668 317.376 148.396 317.072C148.14 316.768 147.964 316.36 147.868 315.848C147.772 315.336 147.724 314.704 147.724 313.952V301.04C147.724 300.288 147.772 299.656 147.868 299.144C147.964 298.632 148.14 298.224 148.396 297.92C148.668 297.616 149.044 297.4 149.524 297.272C150.02 297.144 150.66 297.08 151.444 297.08H157.06C157.844 297.08 158.476 297.144 158.956 297.272C159.452 297.4 159.828 297.616 160.084 297.92C160.356 298.224 160.54 298.632 160.636 299.144C160.732 299.656 160.78 300.288 160.78 301.04V317.912H151.444ZM163.396 298.616C163.396 297.848 163.636 297.272 164.116 296.888C164.596 296.488 165.148 296.288 165.772 296.288C166.076 296.288 166.372 296.344 166.66 296.456C166.948 296.552 167.196 296.696 167.404 296.888C167.628 297.08 167.804 297.32 167.932 297.608C168.076 297.896 168.148 298.232 168.148 298.616V304.688H168.94C169.308 304.688 169.612 304.752 169.852 304.88C170.092 305.008 170.284 305.176 170.428 305.384C170.572 305.576 170.676 305.8 170.74 306.056C170.804 306.296 170.836 306.536 170.836 306.776C170.836 307.016 170.804 307.264 170.74 307.52C170.676 307.76 170.572 307.984 170.428 308.192C170.284 308.384 170.084 308.544 169.828 308.672C169.588 308.8 169.292 308.864 168.94 308.864H168.148V318.824H163.396V298.616ZM152.38 313.28C152.38 313.552 152.428 313.76 152.524 313.904C152.636 314.032 152.852 314.096 153.172 314.096H156.124V301.688C156.124 301.448 156.084 301.256 156.004 301.112C155.924 300.968 155.748 300.896 155.476 300.896H153.004C152.732 300.896 152.556 300.968 152.476 301.112C152.412 301.256 152.38 301.448 152.38 301.688V313.28ZM185.164 299.168C185.148 299.888 185.036 300.624 184.828 301.376C185.836 301.408 186.836 301.608 187.828 301.976C188.82 302.344 189.716 302.896 190.516 303.632C191.316 304.368 191.98 305.296 192.508 306.416C193.052 307.536 193.38 308.864 193.492 310.4H188.62C188.508 309.584 188.284 308.856 187.948 308.216C187.612 307.56 187.188 307.016 186.676 306.584C186.18 306.136 185.612 305.8 184.972 305.576C184.332 305.352 183.652 305.248 182.932 305.264C182.388 306.016 181.772 306.704 181.084 307.328C180.396 307.952 179.668 308.488 178.9 308.936C178.148 309.384 177.364 309.736 176.548 309.992C175.748 310.248 174.956 310.384 174.172 310.4C173.58 310.416 173.068 310.264 172.636 309.944C172.204 309.608 171.956 309.144 171.892 308.552C171.828 307.976 171.948 307.472 172.252 307.04C172.556 306.608 173.012 306.328 173.62 306.2C174.404 306.024 175.164 305.728 175.9 305.312C176.652 304.896 177.324 304.376 177.916 303.752C178.508 303.112 179.004 302.376 179.404 301.544C179.804 300.712 180.068 299.792 180.196 298.784C180.292 298.016 180.596 297.456 181.108 297.104C181.636 296.736 182.236 296.576 182.908 296.624C183.612 296.688 184.172 296.936 184.588 297.368C185.004 297.8 185.196 298.4 185.164 299.168ZM191.908 314.288C192.276 314.288 192.588 314.352 192.844 314.48C193.116 314.592 193.332 314.744 193.492 314.936C193.668 315.128 193.788 315.352 193.852 315.608C193.932 315.848 193.972 316.088 193.972 316.328C193.972 316.584 193.932 316.832 193.852 317.072C193.772 317.312 193.644 317.528 193.468 317.72C193.308 317.912 193.1 318.064 192.844 318.176C192.588 318.288 192.276 318.344 191.908 318.344H173.572C173.204 318.344 172.892 318.288 172.636 318.176C172.38 318.064 172.164 317.912 171.988 317.72C171.828 317.528 171.708 317.312 171.628 317.072C171.548 316.832 171.508 316.584 171.508 316.328C171.508 316.088 171.54 315.848 171.604 315.608C171.684 315.352 171.804 315.128 171.964 314.936C172.14 314.744 172.356 314.592 172.612 314.48C172.884 314.352 173.204 314.288 173.572 314.288H191.908ZM200.428 317.864C199.644 317.864 199.012 317.808 198.532 317.696C198.052 317.584 197.676 317.384 197.404 317.096C197.148 316.824 196.972 316.448 196.876 315.968C196.78 315.488 196.732 314.872 196.732 314.12V300.848C196.732 300.096 196.78 299.48 196.876 299C196.972 298.52 197.148 298.144 197.404 297.872C197.676 297.584 198.052 297.392 198.532 297.296C199.012 297.184 199.644 297.128 200.428 297.128H207.94C208.292 297.128 208.58 297.192 208.804 297.32C209.044 297.448 209.228 297.608 209.356 297.8C209.5 297.992 209.596 298.208 209.644 298.448C209.708 298.688 209.74 298.92 209.74 299.144C209.74 299.384 209.708 299.624 209.644 299.864C209.596 300.104 209.5 300.32 209.356 300.512C209.212 300.704 209.02 300.864 208.78 300.992C208.556 301.12 208.276 301.184 207.94 301.184H202.108C201.884 301.184 201.724 301.232 201.628 301.328C201.532 301.424 201.484 301.608 201.484 301.88V305.384H206.524C206.876 305.384 207.172 305.44 207.412 305.552C207.652 305.664 207.844 305.816 207.988 306.008C208.148 306.184 208.26 306.392 208.324 306.632C208.404 306.872 208.444 307.12 208.444 307.376C208.444 307.616 208.404 307.856 208.324 308.096C208.26 308.336 208.148 308.552 207.988 308.744C207.844 308.92 207.644 309.064 207.388 309.176C207.148 309.288 206.86 309.344 206.524 309.344H201.484V313.16C201.484 313.432 201.532 313.616 201.628 313.712C201.724 313.808 201.884 313.856 202.108 313.856H209.284C209.636 313.856 209.924 313.92 210.148 314.048C210.388 314.176 210.572 314.336 210.7 314.528C210.844 314.72 210.94 314.936 210.988 315.176C211.052 315.416 211.084 315.648 211.084 315.872C211.084 316.112 211.052 316.352 210.988 316.592C210.94 316.816 210.844 317.024 210.7 317.216C210.556 317.408 210.364 317.56 210.124 317.672C209.9 317.8 209.62 317.864 209.284 317.864H200.428ZM213.028 309.296H211.132C210.764 309.296 210.46 309.24 210.22 309.128C209.98 309 209.788 308.84 209.644 308.648C209.5 308.44 209.396 308.216 209.332 307.976C209.268 307.72 209.236 307.472 209.236 307.232C209.236 306.992 209.268 306.752 209.332 306.512C209.396 306.256 209.5 306.032 209.644 305.84C209.788 305.648 209.98 305.488 210.22 305.36C210.46 305.232 210.764 305.168 211.132 305.168H213.028V298.616C213.028 297.848 213.268 297.272 213.748 296.888C214.228 296.488 214.78 296.288 215.404 296.288C215.708 296.288 216.004 296.344 216.292 296.456C216.58 296.552 216.836 296.696 217.06 296.888C217.284 297.08 217.46 297.32 217.588 297.608C217.732 297.896 217.804 298.232 217.804 298.616V318.824H213.028V309.296ZM236.483 310.016V308.912H229.547C228.875 308.912 228.395 308.744 228.107 308.408C227.819 308.072 227.675 307.688 227.675 307.256C227.675 306.84 227.811 306.456 228.083 306.104C228.371 305.752 228.859 305.576 229.547 305.576H248.267C248.955 305.576 249.435 305.752 249.707 306.104C249.995 306.456 250.139 306.84 250.139 307.256C250.139 307.688 249.995 308.072 249.707 308.408C249.419 308.744 248.939 308.912 248.267 308.912H241.331V310.016H247.643C248.251 310.016 248.675 310.176 248.915 310.496C249.171 310.816 249.299 311.168 249.299 311.552C249.299 311.968 249.171 312.336 248.915 312.656C248.675 312.96 248.251 313.112 247.643 313.112H230.147C229.539 313.112 229.115 312.96 228.875 312.656C228.635 312.336 228.515 311.968 228.515 311.552C228.515 311.168 228.635 310.816 228.875 310.496C229.115 310.176 229.539 310.016 230.147 310.016H236.483ZM241.163 298.496C241.147 298.576 241.139 298.68 241.139 298.808C242.099 298.76 243.035 298.832 243.947 299.024C244.859 299.216 245.691 299.552 246.443 300.032C247.211 300.512 247.859 301.152 248.387 301.952C248.931 302.752 249.307 303.736 249.515 304.904H244.643C244.483 304.376 244.219 303.92 243.851 303.536C243.483 303.152 243.043 302.856 242.531 302.648C242.035 302.424 241.483 302.288 240.875 302.24C240.283 302.192 239.675 302.224 239.051 302.336C238.523 302.8 237.915 303.208 237.227 303.56C236.555 303.912 235.843 304.2 235.091 304.424C234.339 304.648 233.563 304.808 232.763 304.904C231.963 305 231.171 305.016 230.387 304.952C229.667 304.904 229.131 304.696 228.779 304.328C228.443 303.96 228.283 303.536 228.299 303.056C228.315 302.56 228.507 302.112 228.875 301.712C229.243 301.296 229.787 301.104 230.507 301.136C231.115 301.168 231.731 301.112 232.355 300.968C232.979 300.824 233.563 300.616 234.107 300.344C234.651 300.056 235.115 299.712 235.499 299.312C235.883 298.912 236.139 298.472 236.267 297.992C236.459 297.256 236.819 296.736 237.347 296.432C237.891 296.128 238.491 296.016 239.147 296.096C239.787 296.176 240.291 296.4 240.659 296.768C241.043 297.136 241.211 297.712 241.163 298.496ZM231.851 315.752C231.867 315.016 232.099 314.472 232.547 314.12C232.995 313.768 233.587 313.592 234.323 313.592C235.043 313.592 235.619 313.776 236.051 314.144C236.499 314.496 236.731 315.032 236.747 315.752H241.067C241.083 315.016 241.315 314.472 241.763 314.12C242.211 313.768 242.803 313.592 243.539 313.592C244.259 313.592 244.835 313.776 245.267 314.144C245.715 314.496 245.947 315.032 245.963 315.752H248.003C248.611 315.752 249.035 315.912 249.275 316.232C249.531 316.552 249.659 316.896 249.659 317.264C249.659 317.68 249.531 318.04 249.275 318.344C249.035 318.664 248.611 318.824 248.003 318.824H229.835C229.227 318.824 228.795 318.664 228.539 318.344C228.283 318.04 228.155 317.68 228.155 317.264C228.155 316.896 228.283 316.552 228.539 316.232C228.795 315.912 229.227 315.752 229.835 315.752H231.851Z" fill="black"/>
<rect x="30" y="30" width="280" height="320" rx="20" stroke="#85CCA9"/>
<path d="M270 208.889V92.2222C270 92.2222 270 70 247.778 70H92.2222C92.2222 70 70 70 70 92.2222V208.456L270 208.889Z" fill="#88C9F9"/>
<path d="M220 125.556H192.222L164.445 203.333H270V97.7778C264.445 97.7778 239.895 100.106 231.111 108.889C225.556 114.444 225.556 120 220 125.556Z" fill="#292F33"/>
<path d="M203.333 131.111C208.889 125.556 217.206 128.344 220 125.556C222.833 122.722 224.222 119.894 225.639 117.061C204.878 116.389 187.694 117.367 181.111 120C153.333 131.111 158.889 181.111 120 208.889C120 208.889 147.778 219.994 170 197.778C184.561 183.211 187.833 146.611 203.333 131.111Z" fill="#66757F"/>
<path d="M92.2222 270H247.778C270 270 270 247.778 270 247.778V197.778H70V247.778C70 270 92.2222 270 92.2222 270Z" fill="#5C913B"/>
<path d="M225.556 197.778C225.556 203.333 170 203.333 170 214.444C170 225.556 192.222 225.556 192.222 231.111C192.222 236.667 114.906 247.778 114.445 270H208.889C208.889 258.889 236.667 253.333 236.667 236.667C236.667 220 197.778 220 197.778 214.444C197.778 208.889 236.667 203.333 236.667 197.778H225.556Z" fill="#55ACEE"/>
<path d="M225.556 197.778V170C225.556 131.111 236.667 125.556 236.667 125.556H242.222C242.222 125.556 236.667 131.111 236.667 164.444V197.778H225.556Z" fill="#226699"/>
<path d="M134.055 228.35C134.055 234.478 129.094 236.667 122.966 236.667C116.844 236.667 111.878 234.472 111.878 228.35L114.65 203.411C114.65 197.289 116.844 197.872 122.966 197.872C129.094 197.872 131.283 197.294 131.283 203.411L134.055 228.35Z" fill="#662113"/>
<path d="M160.122 212.544C158.722 211.344 157.4 210.1 156.116 208.839C155.661 207.961 154.989 207.033 153.861 205.994C152.866 205.083 151.905 204.139 150.966 203.183C156.633 202.372 159.077 199.45 153.861 194.983C152.155 193.522 150.544 191.983 149 190.411C149.677 189.306 149.244 187.811 147.089 185.961C146.377 185.356 145.689 184.728 145.016 184.094C149.311 183.428 151.105 181.15 147.089 177.711C145.861 176.656 144.7 175.55 143.577 174.422C144.616 173.511 144.494 172.139 142.433 170.378C142 170.006 141.622 169.6 141.205 169.217C144.327 168.589 145.522 166.811 142.433 164.161C140.477 162.483 138.733 160.65 137.1 158.806C139.205 158.3 139.961 157.039 137.966 155.206C139.427 154.556 139.711 153.356 137.783 151.706C130.672 145.617 126.677 136.894 122.972 136.894C119.266 136.894 115.272 145.617 108.166 151.706C106.239 153.361 106.522 154.561 107.983 155.206C105.989 157.039 106.744 158.3 108.85 158.806C107.216 160.65 105.472 162.483 103.516 164.161C100.427 166.811 101.622 168.583 104.744 169.217C104.327 169.6 103.95 170.006 103.516 170.378C101.455 172.144 101.333 173.511 102.372 174.422C101.25 175.55 100.094 176.656 98.8608 177.711C94.8441 181.15 96.6385 183.428 100.933 184.094C100.261 184.733 99.5719 185.356 98.8608 185.961C96.7052 187.811 96.2663 189.306 96.9496 190.411C95.4052 191.983 93.7941 193.522 92.0885 194.983C86.8719 199.45 89.3163 202.378 94.983 203.183C94.0441 204.139 93.083 205.083 92.0885 205.994C90.9608 207.028 90.2885 207.961 89.833 208.833C88.5496 210.1 87.2219 211.344 85.8219 212.544C77.7163 219.494 81.5719 223.517 92.6885 222.711C102.6 221.994 111.866 219.744 122.972 219.744C134.077 219.744 143.344 221.994 153.255 222.711C164.366 223.517 168.233 219.494 160.122 212.544Z" fill="#3E721D"/>
<path d="M132.856 90.4333C131.333 90.4333 129.861 90.6667 128.483 91.0944C126.839 86.4111 122.394 83.0444 117.15 83.0444C111.522 83.0444 106.817 86.9167 105.506 92.1389C104.117 91.0889 102.4 90.4389 100.517 90.4389C95.9222 90.4389 92.2 94.1611 92.2 98.7555C92.2 99.8722 92.4278 100.933 92.8333 101.906C92.0333 101.683 91.2111 101.528 90.3555 101.528C85.2444 101.522 81.1111 105.656 81.1111 110.761C81.1111 115.867 85.2444 120 90.35 120H132.85C141.011 120 147.633 113.383 147.633 105.217C147.639 97.0555 141.011 90.4333 132.856 90.4333V90.4333Z" fill="#F5F8FA"/>
<ellipse cx="115" cy="180.412" rx="8" ry="9.41177" fill="white"/>
<ellipse cx="131" cy="180.412" rx="8" ry="9.41177" fill="white"/>
<circle cx="115" cy="180.412" r="3.76471" fill="#33A66D"/>
<circle cx="131" cy="180.412" r="3.76471" fill="#33A66D"/>
<defs>
<filter id="filter0_d_92_218" x="0" y="0" width="340" height="380" filterUnits="userSpaceOnUse" color-interpolation-filters="sRGB">
<feFlood flood-opacity="0" result="BackgroundImageFix"/>
<feColorMatrix in="SourceAlpha" type="matrix" values="0 0 0 0 0 0 0 0 0 0 0 0 0 0 0 0 0 0 127 0" result="hardAlpha"/>
<feOffset/>
<feGaussianBlur stdDeviation="10"/>
<feComposite in2="hardAlpha" operator="out"/>
<feColorMatrix type="matrix" values="0 0 0 0 0 0 0 0 0 0 0 0 0 0 0 0 0 0 0.16 0"/>
<feBlend mode="normal" in2="BackgroundImageFix" result="effect1_dropShadow_92_218"/>
<feBlend mode="normal" in="SourceGraphic" in2="effect1_dropShadow_92_218" result="shape"/>
</filter>
</defs>
</svg>
