<svg width="340" height="380" viewBox="0 0 340 380" fill="none" xmlns="http://www.w3.org/2000/svg">
<g filter="url(#filter0_d_92_83)">
<rect x="20" y="20" width="300" height="340" rx="23" fill="white"/>
</g>
<path d="M94.3414 296.312C94.8694 296.312 95.3574 296.456 95.8054 296.744C96.2534 297.016 96.5414 297.448 96.6694 298.04H107.493C107.589 297.416 107.861 296.976 108.309 296.72C108.773 296.448 109.293 296.312 109.869 296.312C110.173 296.312 110.469 296.352 110.757 296.432C111.061 296.512 111.325 296.64 111.549 296.816C111.773 296.992 111.957 297.216 112.101 297.488C112.245 297.76 112.317 298.088 112.317 298.472V305.984H95.3014C94.5814 305.984 93.9974 305.928 93.5494 305.816C93.1014 305.688 92.7494 305.48 92.4934 305.192C92.2534 304.904 92.0854 304.528 91.9894 304.064C91.9094 303.6 91.8694 303.016 91.8694 302.312V298.472C91.8694 298.088 91.9334 297.76 92.0614 297.488C92.2054 297.2 92.3894 296.976 92.6134 296.816C92.8534 296.64 93.1174 296.512 93.4054 296.432C93.7094 296.352 94.0214 296.312 94.3414 296.312ZM99.8854 310.856H92.7334C92.3974 310.856 92.1094 310.808 91.8694 310.712C91.6294 310.6 91.4374 310.456 91.2934 310.28C91.1494 310.104 91.0374 309.904 90.9574 309.68C90.8934 309.456 90.8614 309.232 90.8614 309.008C90.8614 308.784 90.8934 308.56 90.9574 308.336C91.0214 308.112 91.1254 307.912 91.2694 307.736C91.4294 307.544 91.6294 307.392 91.8694 307.28C92.1094 307.168 92.3974 307.112 92.7334 307.112H111.453C111.789 307.112 112.077 307.168 112.317 307.28C112.557 307.392 112.749 307.544 112.893 307.736C113.053 307.912 113.165 308.112 113.229 308.336C113.293 308.56 113.325 308.784 113.325 309.008C113.325 309.232 113.285 309.456 113.205 309.68C113.141 309.904 113.037 310.104 112.893 310.28C112.749 310.456 112.557 310.6 112.317 310.712C112.077 310.808 111.789 310.856 111.453 310.856H104.709V313.832H99.8854V310.856ZM95.4934 318.824C94.8214 318.824 94.2614 318.76 93.8134 318.632C93.3654 318.52 93.0134 318.328 92.7574 318.056C92.5014 317.784 92.3174 317.432 92.2054 317C92.1094 316.552 92.0614 316 92.0614 315.344V313.976C92.0614 313.16 92.3094 312.584 92.8054 312.248C93.3014 311.896 93.8854 311.72 94.5574 311.72C95.2294 311.72 95.7974 311.896 96.2614 312.248C96.7414 312.6 96.9814 313.176 96.9814 313.976V314.672C96.9814 314.88 97.0134 315.016 97.0774 315.08C97.1414 315.128 97.2854 315.152 97.5094 315.152H110.565C111.301 315.152 111.821 315.336 112.125 315.704C112.429 316.072 112.581 316.496 112.581 316.976C112.581 317.472 112.421 317.904 112.101 318.272C111.797 318.64 111.285 318.824 110.565 318.824H95.4934ZM107.469 302.72V301.136H96.7174V301.976C96.7174 302.216 96.7654 302.4 96.8614 302.528C96.9734 302.656 97.1734 302.72 97.4614 302.72H107.469ZM121.197 318.392C120.461 318.392 119.773 318.28 119.133 318.056C118.493 317.832 117.933 317.488 117.453 317.024C116.989 316.56 116.621 315.976 116.349 315.272C116.077 314.552 115.941 313.704 115.941 312.728V304.544C115.941 303.76 116.045 303.08 116.253 302.504C115.837 302.408 115.525 302.2 115.317 301.88C115.125 301.544 115.029 301.16 115.029 300.728C115.029 300.216 115.157 299.792 115.413 299.456C115.685 299.104 116.117 298.928 116.709 298.928H118.965V298.616C118.965 297.896 119.149 297.336 119.517 296.936C119.901 296.52 120.461 296.312 121.197 296.312C121.949 296.312 122.517 296.52 122.901 296.936C123.285 297.336 123.477 297.896 123.477 298.616V298.928H125.685C126.277 298.928 126.701 299.104 126.957 299.456C127.229 299.792 127.365 300.216 127.365 300.728C127.365 301.16 127.261 301.544 127.053 301.88C126.861 302.2 126.557 302.408 126.141 302.504C126.237 302.808 126.309 303.128 126.357 303.464C126.421 303.8 126.453 304.16 126.453 304.544V312.728C126.453 313.704 126.317 314.552 126.045 315.272C125.773 315.976 125.397 316.56 124.917 317.024C124.453 317.488 123.901 317.832 123.261 318.056C122.621 318.28 121.933 318.392 121.197 318.392ZM133.293 308.912H132.141V318.824H127.989V298.328C127.989 297.656 128.189 297.152 128.589 296.816C129.005 296.464 129.493 296.288 130.053 296.288C130.597 296.288 131.077 296.464 131.493 296.816C131.925 297.152 132.141 297.656 132.141 298.328V304.976H133.293V298.328C133.293 297.656 133.501 297.152 133.917 296.816C134.349 296.464 134.845 296.288 135.405 296.288C135.677 296.288 135.941 296.336 136.197 296.432C136.453 296.512 136.677 296.64 136.869 296.816C137.077 296.992 137.237 297.208 137.349 297.464C137.477 297.704 137.541 297.992 137.541 298.328V318.824H133.293V308.912ZM121.197 314.792C121.421 314.792 121.645 314.704 121.869 314.528C122.109 314.352 122.229 314.032 122.229 313.568V303.632C122.229 303.184 122.109 302.872 121.869 302.696C121.645 302.504 121.421 302.408 121.197 302.408C120.973 302.408 120.741 302.504 120.501 302.696C120.277 302.872 120.165 303.184 120.165 303.632V313.568C120.165 314.032 120.277 314.352 120.501 314.528C120.741 314.704 120.973 314.792 121.197 314.792ZM156.58 300.944V301.904C156.58 302.08 156.572 302.248 156.556 302.408C156.556 302.568 156.548 302.728 156.532 302.888C158.324 303.048 159.652 303.68 160.516 304.784C161.38 305.888 161.796 307.536 161.764 309.728H157.3C157.38 308.768 157.244 307.992 156.892 307.4C156.54 306.792 156.052 306.432 155.428 306.32C155.092 306.88 154.7 307.384 154.252 307.832C153.804 308.264 153.316 308.632 152.788 308.936C152.26 309.24 151.708 309.48 151.132 309.656C150.556 309.816 149.98 309.904 149.404 309.92C148.812 309.952 148.3 309.8 147.868 309.464C147.452 309.128 147.228 308.688 147.196 308.144C147.164 307.584 147.276 307.136 147.532 306.8C147.804 306.448 148.18 306.232 148.66 306.152C149.748 305.96 150.58 305.472 151.156 304.688C151.732 303.904 152.02 302.976 152.02 301.904V300.944H149.116C148.828 300.944 148.572 300.888 148.348 300.776C148.14 300.648 147.964 300.496 147.82 300.32C147.676 300.128 147.564 299.92 147.484 299.696C147.404 299.472 147.364 299.248 147.364 299.024C147.364 298.816 147.396 298.6 147.46 298.376C147.524 298.136 147.628 297.92 147.772 297.728C147.916 297.536 148.1 297.376 148.324 297.248C148.548 297.12 148.812 297.056 149.116 297.056H159.844C160.148 297.056 160.412 297.12 160.636 297.248C160.86 297.376 161.044 297.536 161.188 297.728C161.332 297.92 161.436 298.136 161.5 298.376C161.564 298.6 161.596 298.816 161.596 299.024C161.596 299.248 161.556 299.472 161.476 299.696C161.396 299.92 161.284 300.128 161.14 300.32C160.996 300.496 160.812 300.648 160.588 300.776C160.38 300.888 160.132 300.944 159.844 300.944H156.58ZM152.308 318.824C151.636 318.824 151.076 318.76 150.628 318.632C150.196 318.504 149.852 318.304 149.596 318.032C149.34 317.76 149.156 317.4 149.044 316.952C148.948 316.504 148.9 315.96 148.9 315.32V312.992C148.9 312.176 149.14 311.576 149.62 311.192C150.116 310.808 150.7 310.616 151.372 310.616C152.044 310.616 152.612 310.808 153.076 311.192C153.54 311.576 153.772 312.176 153.772 312.992V314.504C153.772 314.776 153.812 314.944 153.892 315.008C153.972 315.072 154.148 315.104 154.42 315.104H167.452C168.188 315.104 168.708 315.296 169.012 315.68C169.316 316.048 169.468 316.472 169.468 316.952C169.468 317.448 169.308 317.88 168.988 318.248C168.684 318.632 168.172 318.824 167.452 318.824H152.308ZM164.068 304.952H162.7C162.332 304.952 162.028 304.896 161.788 304.784C161.548 304.672 161.348 304.528 161.188 304.352C161.044 304.176 160.94 303.968 160.876 303.728C160.812 303.488 160.78 303.248 160.78 303.008C160.78 302.768 160.812 302.536 160.876 302.312C160.94 302.072 161.044 301.864 161.188 301.688C161.332 301.496 161.524 301.344 161.764 301.232C162.02 301.12 162.332 301.064 162.7 301.064H164.068V298.616C164.068 297.848 164.308 297.272 164.788 296.888C165.268 296.488 165.82 296.288 166.444 296.288C166.748 296.288 167.044 296.344 167.332 296.456C167.62 296.552 167.876 296.696 168.1 296.888C168.324 297.08 168.5 297.32 168.628 297.608C168.772 297.896 168.844 298.232 168.844 298.616V313.256H164.068V304.952ZM180.059 306.632C180.891 306.136 181.547 305.312 182.027 304.16C182.523 302.992 182.771 301.584 182.771 299.936V298.712C182.771 298.344 182.835 298.032 182.963 297.776C183.107 297.504 183.291 297.288 183.515 297.128C183.739 296.952 183.987 296.832 184.259 296.768C184.547 296.688 184.843 296.648 185.147 296.648C185.755 296.664 186.275 296.848 186.707 297.2C187.155 297.536 187.379 298.064 187.379 298.784V299.96C187.379 300.28 187.371 300.592 187.355 300.896C187.339 301.2 187.315 301.496 187.283 301.784C188.099 302.008 188.843 302.4 189.515 302.96C190.187 303.52 190.707 304.184 191.075 304.952C191.715 303.72 192.035 302.056 192.035 299.96V298.712C192.035 298.344 192.099 298.032 192.227 297.776C192.371 297.504 192.555 297.288 192.779 297.128C193.003 296.952 193.251 296.832 193.523 296.768C193.811 296.688 194.107 296.648 194.411 296.648C195.019 296.664 195.539 296.848 195.971 297.2C196.419 297.536 196.643 298.064 196.643 298.784V299.96C196.643 300.28 196.635 300.592 196.619 300.896C196.603 301.184 196.579 301.464 196.547 301.736C197.203 301.976 197.803 302.344 198.347 302.84C198.907 303.32 199.379 303.912 199.763 304.616C200.163 305.32 200.459 306.136 200.651 307.064C200.843 307.992 200.907 309.032 200.843 310.184H196.451C196.547 309.336 196.499 308.544 196.307 307.808C196.131 307.072 195.835 306.48 195.419 306.032C194.827 307.312 194.107 308.336 193.259 309.104C192.411 309.856 191.539 310.344 190.643 310.568C190.035 310.728 189.459 310.728 188.915 310.568C188.371 310.392 188.019 310.08 187.859 309.632C187.779 309.408 187.739 309.184 187.739 308.96C187.739 308.736 187.779 308.512 187.859 308.288C187.779 307.744 187.611 307.248 187.355 306.8C187.099 306.336 186.763 305.96 186.347 305.672C185.835 306.952 185.179 307.992 184.379 308.792C183.595 309.592 182.747 310.12 181.835 310.376C181.083 310.584 180.459 310.568 179.963 310.328C179.483 310.072 179.155 309.704 178.979 309.224C178.803 308.744 178.811 308.272 179.003 307.808C179.195 307.328 179.547 306.936 180.059 306.632ZM199.115 314.288C199.483 314.288 199.795 314.352 200.051 314.48C200.323 314.592 200.539 314.744 200.699 314.936C200.875 315.128 200.995 315.352 201.059 315.608C201.139 315.848 201.179 316.088 201.179 316.328C201.179 316.584 201.139 316.832 201.059 317.072C200.979 317.312 200.851 317.528 200.675 317.72C200.515 317.912 200.307 318.064 200.051 318.176C199.795 318.288 199.483 318.344 199.115 318.344H180.779C180.411 318.344 180.099 318.288 179.843 318.176C179.587 318.064 179.371 317.912 179.195 317.72C179.035 317.528 178.915 317.312 178.835 317.072C178.755 316.832 178.715 316.584 178.715 316.328C178.715 316.088 178.747 315.848 178.811 315.608C178.891 315.352 179.011 315.128 179.171 314.936C179.347 314.744 179.563 314.592 179.819 314.48C180.091 314.352 180.411 314.288 180.779 314.288H199.115ZM208.259 312.92C208.259 313.336 208.323 313.6 208.451 313.712C208.595 313.824 208.875 313.88 209.291 313.88H212.891C213.243 313.88 213.539 313.936 213.779 314.048C214.035 314.16 214.235 314.312 214.379 314.504C214.539 314.68 214.651 314.888 214.715 315.128C214.795 315.352 214.835 315.584 214.835 315.824C214.835 316.32 214.683 316.776 214.379 317.192C214.075 317.608 213.579 317.816 212.891 317.816H207.371C206.635 317.816 206.027 317.76 205.547 317.648C205.083 317.552 204.715 317.368 204.443 317.096C204.171 316.84 203.979 316.488 203.867 316.04C203.771 315.576 203.723 314.984 203.723 314.264V308.792C203.723 308.072 203.771 307.488 203.867 307.04C203.979 306.592 204.171 306.24 204.443 305.984C204.715 305.712 205.083 305.528 205.547 305.432C206.027 305.336 206.635 305.288 207.371 305.288H208.643V301.712C208.643 301.472 208.595 301.312 208.499 301.232C208.403 301.136 208.235 301.088 207.995 301.088H205.787C205.067 301.088 204.547 300.888 204.227 300.488C203.907 300.072 203.747 299.616 203.747 299.12C203.747 298.88 203.779 298.64 203.843 298.4C203.923 298.16 204.043 297.952 204.203 297.776C204.379 297.584 204.595 297.432 204.851 297.32C205.107 297.192 205.419 297.128 205.787 297.128H209.363C210.179 297.128 210.827 297.176 211.307 297.272C211.803 297.368 212.179 297.536 212.435 297.776C212.707 298.016 212.883 298.344 212.963 298.76C213.043 299.16 213.083 299.672 213.083 300.296V309.2H209.291C208.875 309.2 208.595 309.256 208.451 309.368C208.323 309.48 208.259 309.744 208.259 310.16V312.92ZM215.939 308.552H215.291C214.923 308.552 214.619 308.496 214.379 308.384C214.155 308.272 213.971 308.12 213.827 307.928C213.699 307.736 213.603 307.512 213.539 307.256C213.491 307 213.467 306.728 213.467 306.44C213.467 306.168 213.491 305.904 213.539 305.648C213.603 305.392 213.699 305.168 213.827 304.976C213.971 304.784 214.155 304.632 214.379 304.52C214.619 304.392 214.923 304.328 215.291 304.328H215.939V298.328C215.939 297.656 216.139 297.152 216.539 296.816C216.939 296.464 217.419 296.288 217.979 296.288C218.523 296.288 219.003 296.464 219.419 296.816C219.851 297.152 220.067 297.656 220.067 298.328V318.824H215.939V308.552ZM221.171 298.328C221.171 297.656 221.379 297.152 221.795 296.816C222.227 296.464 222.723 296.288 223.283 296.288C223.827 296.288 224.315 296.464 224.747 296.816C225.179 297.152 225.395 297.656 225.395 298.328V318.824H221.171V298.328ZM244.691 318.824V298.664C244.691 297.88 244.931 297.288 245.411 296.888C245.891 296.488 246.451 296.288 247.091 296.288C247.731 296.288 248.291 296.488 248.771 296.888C249.251 297.288 249.491 297.88 249.491 298.664V318.824H244.691ZM229.859 313.88C230.867 313.784 231.779 313.592 232.595 313.304C233.427 313 234.131 312.544 234.707 311.936C235.283 311.328 235.723 310.528 236.027 309.536C236.347 308.544 236.507 307.312 236.507 305.84V301.952C236.507 301.776 236.451 301.632 236.339 301.52C236.243 301.408 236.099 301.352 235.907 301.352H230.435C230.067 301.352 229.747 301.296 229.475 301.184C229.219 301.056 229.003 300.896 228.827 300.704C228.651 300.512 228.515 300.296 228.419 300.056C228.339 299.8 228.299 299.544 228.299 299.288C228.299 299.048 228.339 298.808 228.419 298.568C228.515 298.312 228.651 298.088 228.827 297.896C229.003 297.688 229.219 297.52 229.475 297.392C229.747 297.264 230.067 297.2 230.435 297.2H237.539C238.899 297.2 239.867 297.504 240.443 298.112C241.019 298.72 241.307 299.584 241.307 300.704V305.864C241.307 308.008 241.019 309.832 240.443 311.336C239.883 312.84 239.107 314.072 238.115 315.032C237.123 315.992 235.955 316.696 234.611 317.144C233.283 317.592 231.851 317.832 230.315 317.864C230.027 317.864 229.739 317.824 229.451 317.744C229.163 317.664 228.907 317.536 228.683 317.36C228.475 317.2 228.307 316.992 228.179 316.736C228.051 316.48 227.995 316.168 228.011 315.8C228.043 315.288 228.203 314.856 228.491 314.504C228.795 314.152 229.251 313.944 229.859 313.88Z" fill="black"/>
<rect x="30" y="30" width="280" height="320" rx="20" stroke="#85CCA9"/>
<path d="M108.556 208.889H230.778V258.889H108.556V208.889ZM108.556 147.778H230.778V197.778H108.556V147.778ZM108.556 86.6666H230.778V142.222H108.556V86.6666Z" fill="#3B88C3"/>
<path d="M236.333 87.6556C236.333 90.1778 234.289 92.2223 231.767 92.2223H107.567C105.044 92.2223 103 90.1778 103 87.6556V85.6778C103 83.1556 105.044 81.1111 107.567 81.1111H231.761C234.289 81.1111 236.333 83.1556 236.333 85.6778V87.6556ZM236.333 148.767C236.333 151.289 234.289 153.333 231.767 153.333H107.567C105.044 153.333 103 151.289 103 148.767V146.794C103 144.267 105.044 142.222 107.567 142.222H231.761C234.289 142.222 236.333 144.267 236.333 146.789V148.767V148.767ZM236.333 204.322C236.333 206.844 234.289 208.889 231.767 208.889H107.567C105.044 208.889 103 206.844 103 204.322V202.35C103 199.822 105.044 197.778 107.567 197.778H231.761C234.289 197.778 236.333 199.822 236.333 202.344V204.322ZM236.333 265.433C236.333 267.956 234.289 270 231.767 270H107.567C105.044 270 103 267.956 103 265.433V263.461C103 260.933 105.044 258.889 107.567 258.889H231.761C234.289 258.889 236.333 260.933 236.333 263.456V265.433V265.433Z" fill="#226699"/>
<path d="M214.111 76.2667C214.111 78.9389 211.939 81.1111 209.267 81.1111H196.733C194.061 81.1111 191.889 78.9389 191.889 76.2667V74.8444C191.889 72.1722 194.061 70 196.733 70H209.267C211.939 70 214.111 72.1722 214.111 74.8444V76.2667V76.2667Z" fill="#99AAB5"/>
<ellipse cx="153" cy="170" rx="17" ry="20" fill="white"/>
<ellipse cx="187" cy="170" rx="17" ry="20" fill="white"/>
<circle cx="153" cy="170" r="8" fill="#33A66D"/>
<circle cx="187" cy="170" r="8" fill="#33A66D"/>
<defs>
<filter id="filter0_d_92_83" x="0" y="0" width="340" height="380" filterUnits="userSpaceOnUse" color-interpolation-filters="sRGB">
<feFlood flood-opacity="0" result="BackgroundImageFix"/>
<feColorMatrix in="SourceAlpha" type="matrix" values="0 0 0 0 0 0 0 0 0 0 0 0 0 0 0 0 0 0 127 0" result="hardAlpha"/>
<feOffset/>
<feGaussianBlur stdDeviation="10"/>
<feComposite in2="hardAlpha" operator="out"/>
<feColorMatrix type="matrix" values="0 0 0 0 0 0 0 0 0 0 0 0 0 0 0 0 0 0 0.16 0"/>
<feBlend mode="normal" in2="BackgroundImageFix" result="effect1_dropShadow_92_83"/>
<feBlend mode="normal" in="SourceGraphic" in2="effect1_dropShadow_92_83" result="shape"/>
</filter>
</defs>
</svg>
