<svg width="30" height="30" viewBox="0 0 30 30" fill="none" xmlns="http://www.w3.org/2000/svg">
<circle cx="15" cy="15" r="15" fill="#34AA70"/>
<path d="M12.0508 21.344V20.192L14.1468 17.984C15.0748 17.0027 15.7628 16.192 16.2108 15.552C16.6588 14.9013 16.8828 14.2667 16.8828 13.648C16.8828 12.9973 16.7068 12.528 16.3548 12.24C16.0134 11.952 15.4854 11.808 14.7708 11.808C14.0668 11.808 13.3094 12.0533 12.4988 12.544L12.1788 11.088C13.1281 10.5333 14.1681 10.256 15.2988 10.256C16.4828 10.256 17.3841 10.528 18.0028 11.072C18.6214 11.616 18.9308 12.3893 18.9308 13.392C18.9308 13.8507 18.8454 14.3147 18.6748 14.784C18.5148 15.2427 18.2588 15.712 17.9068 16.192C17.5548 16.6613 17.2454 17.0453 16.9788 17.344C16.7228 17.632 16.3708 18.0107 15.9227 18.48L14.6268 19.808H19.0268V21.344H12.0508Z" fill="white"/>
</svg>
