<svg width="30" height="30" viewBox="0 0 30 30" fill="none" xmlns="http://www.w3.org/2000/svg">
<circle cx="15" cy="15" r="15" fill="#34AA70"/>
<path d="M14.9869 21.504C14.3576 21.504 13.7443 21.4293 13.1469 21.28C12.5603 21.1307 12.1016 20.9493 11.7709 20.736L12.0909 19.312C12.3683 19.4827 12.7576 19.632 13.2589 19.76C13.7709 19.8773 14.2349 19.936 14.6509 19.936C15.3976 19.936 15.9736 19.7813 16.3789 19.472C16.7843 19.1627 16.9869 18.704 16.9869 18.096C16.9869 17.008 16.2296 16.4533 14.7149 16.432L13.5789 16.4V14.976L14.5869 14.96C15.2269 14.9387 15.7389 14.7893 16.1229 14.512C16.5069 14.224 16.6989 13.8293 16.6989 13.328C16.6989 12.3253 16.0483 11.824 14.7469 11.824C14.0216 11.824 13.2429 12.016 12.4109 12.4L12.1869 10.944C12.5283 10.752 12.9923 10.592 13.5789 10.464C14.1656 10.3253 14.7256 10.256 15.2589 10.256C16.2936 10.256 17.1203 10.496 17.7389 10.976C18.3576 11.4453 18.6669 12.112 18.6669 12.976C18.6669 14.224 18.0109 15.0773 16.6989 15.536C18.2563 15.8453 19.0349 16.7413 19.0349 18.224C19.0349 19.2373 18.6723 20.0373 17.9469 20.624C17.2216 21.2107 16.2349 21.504 14.9869 21.504Z" fill="white"/>
</svg>
