<svg width="100" height="100" viewBox="0 0 100 100" fill="none" xmlns="http://www.w3.org/2000/svg">
<rect width="100" height="100" fill="white"/>
<path d="M90 25H10L19.5 95.75C19.75 98.25 22 100 24.5 100H75.75C78.25 100 80.25 98.25 80.75 95.75L90 25Z" fill="#34AA70"/>
<path fill-rule="evenodd" clip-rule="evenodd" d="M19.7128 7.5L21.25 3.25C22 1.25 23.75 0 26 0H74C76 0 78 1.25 78.75 3.25L80.2872 7.5H85C90.5 7.5 95 12 95 17.5V25H5V17.5C5 12 9.5 7.5 15 7.5H19.7128Z" fill="#85CCA9"/>
<path d="M49.2407 68.6675L48.9253 76.4335L48.8833 76.8978L40.0527 76.2858C39.5481 76.2436 39.0785 76.022 38.644 75.6211C38.2095 75.2201 37.8801 74.7593 37.6558 74.2388C37.5016 73.8589 37.4 73.472 37.3509 73.0781C37.3019 72.6842 37.3299 72.2269 37.435 71.7064C37.5402 71.1858 37.6243 70.7989 37.6873 70.5457C37.7504 70.2925 37.9011 69.8422 38.1394 69.1951C38.3777 68.5479 38.5108 68.1751 38.5389 68.0766C39.6322 68.2454 43.1995 68.4424 49.2407 68.6675ZM41.1039 56.3009L44.8885 64.2991L41.7978 62.3576C40.9147 63.3705 40.1333 64.387 39.4535 65.407C38.7736 66.427 38.2655 67.3063 37.9291 68.0449C37.5927 68.7836 37.3159 69.4483 37.0986 70.0392C36.8814 70.6301 36.7517 71.0733 36.7097 71.3687L36.6256 71.8119L32.6308 64.278C32.3925 63.9122 32.2663 63.5183 32.2523 63.0962C32.2383 62.6741 32.2803 62.3435 32.3785 62.1043L32.5467 61.7245C33.0372 60.8381 33.8362 59.5157 34.9435 57.7571L32 55.9422L41.1039 56.3009ZM66.986 67.2114L63.0333 74.7875C62.8651 75.1955 62.6093 75.5226 62.2659 75.7688C61.9225 76.015 61.6176 76.1592 61.3513 76.2014L60.9728 76.2858C59.9776 76.3843 58.4428 76.4687 56.3683 76.539L56.5365 80L51.7007 72.2551L56.137 64.6156L56.2842 68.2665C58.667 68.4916 60.6504 68.5268 62.2343 68.372C63.8182 68.2173 65.0097 67.9851 65.8086 67.6756L66.986 67.2114ZM50.4812 47.7118C49.8224 48.5982 47.9652 51.6582 44.9095 56.8918L38.2445 52.9455L37.845 52.6922L42.5757 45.1794C42.856 44.7433 43.2766 44.4268 43.8372 44.2298C44.3979 44.0328 44.9586 43.9625 45.5192 44.0188C45.8557 44.0469 46.1956 44.1313 46.539 44.272C46.8824 44.4127 47.1767 44.5604 47.422 44.7152C47.6673 44.8699 47.9582 45.1021 48.2946 45.4116C48.631 45.7211 48.8833 45.9638 49.0515 46.1396C49.2197 46.3155 49.472 46.5934 49.8084 46.9732C50.1448 47.3531 50.3691 47.5993 50.4812 47.7118ZM64.2528 54.1906L68.7101 61.8511C68.9624 62.3717 69.05 62.9063 68.9729 63.455C68.8958 64.0036 68.7031 64.5242 68.3947 65.0166C68.2125 65.298 67.9812 65.5583 67.7009 65.7974C67.4206 66.0366 67.1542 66.2336 66.9019 66.3883C66.6496 66.5431 66.3097 66.6978 65.8822 66.8526C65.4547 67.0074 65.1253 67.1199 64.894 67.1903C64.6628 67.2606 64.3018 67.3591 63.8112 67.4857C63.3206 67.6123 62.9983 67.6967 62.8441 67.7389C62.3675 66.726 60.5103 63.659 57.2724 58.5379L63.8533 54.4227L64.2528 54.1906ZM61.2461 49.4212L64.2317 47.6696L59.6062 55.5412L50.7966 55.1191L53.9714 53.3042C53.4948 52.0521 52.9692 50.8844 52.3945 49.8011C51.8198 48.7178 51.2907 47.849 50.8071 47.1948C50.3235 46.5406 49.8715 45.9779 49.451 45.5065C49.0305 45.0352 48.7011 44.7081 48.4628 44.5252L48.1054 44.2509L56.6206 44.272C57.0551 44.2298 57.4616 44.3037 57.8401 44.4936C58.2185 44.6835 58.4918 44.884 58.66 45.095L58.8913 45.4116C59.438 46.2698 60.2229 47.6063 61.2461 49.4212Z" fill="#E8F5E9"/>
</svg>
