<svg width="150" height="150" viewBox="0 0 150 150" fill="none" xmlns="http://www.w3.org/2000/svg">
<circle cx="75" cy="75" r="75" fill="#FFC700" fill-opacity="0.2"/>
<circle cx="75" cy="75" r="50" fill="#FFC700"/>
<path d="M64.4 93.95V89.85L70.35 83.5C72.3167 81.4 73.8167 79.75 74.85 78.55C75.8833 77.3167 76.85 75.9 77.75 74.3C78.6833 72.6667 79.15 71.2167 79.15 69.95C79.15 67.9833 78.6 66.6 77.5 65.8C76.4333 64.9667 74.8 64.55 72.6 64.55C70.6 64.55 68.3 65.2333 65.7 66.6L64.8 61.55C67.7 59.9167 71 59.1 74.7 59.1C78.6 59.1 81.5333 59.95 83.5 61.65C85.5 63.3167 86.5 65.75 86.5 68.95C86.5 70.4167 86.2 71.9167 85.6 73.45C85.0333 74.95 84.15 76.4833 82.95 78.05C81.7833 79.5833 80.8333 80.7667 80.1 81.6C79.4 82.4333 78.3833 83.5333 77.05 84.9L73.5 88.5H86.6V93.95H64.4Z" fill="white"/>
</svg>
