<svg width="150" height="150" viewBox="0 0 150 150" fill="none" xmlns="http://www.w3.org/2000/svg">
<circle cx="75" cy="75" r="75" fill="black" fill-opacity="0.2"/>
<circle cx="75" cy="75" r="50" fill="black"/>
<path d="M74.05 94.55C69.9167 94.55 66.5833 93.1833 64.05 90.45C61.55 87.7167 60.3 83.5333 60.3 77.9V76.1C60.3 73.1 60.6667 70.4833 61.4 68.25C62.1667 65.9833 63.2 64.2 64.5 62.9C65.8333 61.6 67.3 60.65 68.9 60.05C70.5333 59.4167 72.2833 59.1 74.15 59.1C78.15 59.1 81.4333 60.4833 84 63.25C86.5667 65.9833 87.85 70.2167 87.85 75.95V77.7C87.85 83.5 86.55 87.7667 83.95 90.5C81.3833 93.2 78.0833 94.55 74.05 94.55ZM74.05 89.25C76.25 89.25 77.8667 88.3833 78.9 86.65C79.9667 84.8833 80.5 82.0333 80.5 78.1V75.95C80.5 68.25 78.3667 64.4 74.1 64.4C71.9333 64.4 70.3333 65.3 69.3 67.1C68.2667 68.9 67.75 71.7333 67.75 75.6V77.75C67.75 81.65 68.25 84.55 69.25 86.45C70.2833 88.3167 71.8833 89.25 74.05 89.25Z" fill="white"/>
</svg>
