<svg width="150" height="150" viewBox="0 0 150 150" fill="none" xmlns="http://www.w3.org/2000/svg">
<circle cx="75" cy="75" r="75" fill="#34AA70" fill-opacity="0.2"/>
<circle cx="75" cy="75" r="50" fill="#34AA70"/>
<path d="M73.8 94.45C71.7667 94.45 69.75 94.2167 67.75 93.75C65.7833 93.2833 64.2833 92.7167 63.25 92.05L64.35 87.05C65.1833 87.5833 66.4167 88.0333 68.05 88.4C69.7167 88.7667 71.2167 88.95 72.55 88.95C76.85 88.95 79 87.1667 79 83.6C79 81.9333 78.4667 80.7333 77.4 80C76.3333 79.2667 74.75 78.8667 72.65 78.8L68.9 78.7V73.75L72.25 73.65C74.15 73.5833 75.6333 73.15 76.7 72.35C77.7667 71.55 78.3 70.4 78.3 68.9C78.3 67.3667 77.8333 66.2667 76.9 65.6C75.9667 64.9333 74.5667 64.6 72.7 64.6C70.3333 64.6 67.9 65.1333 65.4 66.2L64.65 61.05C65.75 60.4833 67.2333 60.0167 69.1 59.65C71 59.2833 72.85 59.1 74.65 59.1C77.95 59.1 80.55 59.8333 82.45 61.3C84.35 62.7667 85.3 64.8833 85.3 67.65C85.3 71.5833 83.2833 74.2833 79.25 75.75C84.05 76.65 86.45 79.4333 86.45 84.1C86.45 87.3333 85.3333 89.8667 83.1 91.7C80.8667 93.5333 77.7667 94.45 73.8 94.45Z" fill="white"/>
</svg>
