<svg width="81" height="20" viewBox="0 0 81 20" fill="none" xmlns="http://www.w3.org/2000/svg">
<path d="M6.7 0.679999C7.34 0.679999 7.84 0.859999 8.2 1.22C8.57333 1.56667 8.76 2.06 8.76 2.7V2.88H11.56C12.0533 2.88 12.4267 3.03333 12.68 3.34C12.9333 3.64667 13.06 4.01333 13.06 4.44C13.06 4.86667 12.9267 5.23333 12.66 5.54C12.4067 5.84667 12.04 6 11.56 6H11.52C11.6267 6.26667 11.7133 6.54667 11.78 6.84C11.8467 7.12 11.88 7.43333 11.88 7.78V14C11.88 14.88 11.7467 15.6467 11.48 16.3C11.2133 16.94 10.8467 17.4733 10.38 17.9C9.92667 18.3133 9.38 18.62 8.74 18.82C8.11333 19.0333 7.43333 19.14 6.7 19.14C5.96667 19.14 5.28667 19.0333 4.66 18.82C4.03333 18.62 3.48667 18.3133 3.02 17.9C2.56667 17.4733 2.20667 16.94 1.94 16.3C1.67333 15.6467 1.54 14.88 1.54 14V7.78C1.54 7.12667 1.65333 6.53333 1.88 6C1.4 6 1.02667 5.84667 0.76 5.54C0.506667 5.23333 0.38 4.86667 0.38 4.44C0.38 4.01333 0.5 3.64667 0.74 3.34C0.993333 3.03333 1.36667 2.88 1.86 2.88H4.64V2.7C4.64 2.06 4.82 1.56667 5.18 1.22C5.55333 0.859999 6.06 0.679999 6.7 0.679999ZM14.28 2.68C14.28 2.04 14.48 1.56 14.88 1.24C15.28 0.906666 15.74 0.739999 16.26 0.739999C16.5133 0.739999 16.76 0.786666 17 0.879999C17.24 0.959999 17.4467 1.08 17.62 1.24C17.8067 1.4 17.9533 1.6 18.06 1.84C18.18 2.08 18.24 2.36 18.24 2.68V7.74H18.9C19.2067 7.74 19.46 7.79333 19.66 7.9C19.86 8.00667 20.02 8.14667 20.14 8.32C20.26 8.48 20.3467 8.66667 20.4 8.88C20.4533 9.08 20.48 9.28 20.48 9.48C20.48 9.68 20.4533 9.88667 20.4 10.1C20.3467 10.3 20.26 10.4867 20.14 10.66C20.02 10.82 19.8533 10.9533 19.64 11.06C19.44 11.1667 19.1933 11.22 18.9 11.22H18.24V19.52H14.28V2.68ZM6.7 15.9C7.08667 15.9 7.42667 15.7533 7.72 15.46C8.01333 15.1533 8.16 14.68 8.16 14.04V7.62C8.16 6.96667 8.01333 6.50667 7.72 6.24C7.44 5.97333 7.1 5.84 6.7 5.84C6.31333 5.84 5.97333 5.97333 5.68 6.24C5.4 6.50667 5.26 6.96667 5.26 7.62V14.04C5.26 14.68 5.4 15.1533 5.68 15.46C5.97333 15.7533 6.31333 15.9 6.7 15.9ZM34.48 4.48C34.48 4.37333 34.4533 4.26667 34.4 4.16C34.3467 4.05333 34.22 4 34.02 4H23.26C22.8333 4 22.5 3.85333 22.26 3.56C22.02 3.26667 21.9 2.93333 21.9 2.56C21.9 2.21333 22.02 1.89333 22.26 1.6C22.5 1.30667 22.8333 1.16 23.26 1.16H35.5C36.1133 1.16 36.62 1.22667 37.02 1.36C37.42 1.49333 37.74 1.68667 37.98 1.94C38.22 2.18 38.3867 2.47333 38.48 2.82C38.5867 3.16667 38.64 3.54667 38.64 3.96V7.62H26.56C26.2 7.62 26.02 7.76 26.02 8.04V8.16C26.02 8.32 26.06 8.42667 26.14 8.48C26.2333 8.53333 26.3733 8.56 26.56 8.56H37.8C38.04 8.56 38.2467 8.60667 38.42 8.7C38.5933 8.78 38.7333 8.88667 38.84 9.02C38.96 9.14 39.04 9.28667 39.08 9.46C39.1333 9.62 39.16 9.78 39.16 9.94C39.16 10.2733 39.0533 10.5867 38.84 10.88C38.6267 11.16 38.28 11.3 37.8 11.3H25.14C23.9667 11.3 23.1 11.0333 22.54 10.5C21.98 9.95333 21.7 9.2 21.7 8.24V8C21.7 7.04 21.98 6.28667 22.54 5.74C23.1 5.19333 23.9667 4.92 25.14 4.92H34.48V4.48ZM32.44 15.5V19.62H28.36V15.5H22.72C22.12 15.5 21.6867 15.3333 21.42 15C21.1667 14.6667 21.04 14.2933 21.04 13.88C21.04 13.68 21.0667 13.4867 21.12 13.3C21.1867 13.1 21.2867 12.92 21.42 12.76C21.5533 12.6 21.7267 12.4733 21.94 12.38C22.1533 12.2867 22.4133 12.24 22.72 12.24H38.08C38.3867 12.24 38.6467 12.2867 38.86 12.38C39.0733 12.4733 39.2467 12.6 39.38 12.76C39.5133 12.92 39.6067 13.1 39.66 13.3C39.7267 13.4867 39.76 13.68 39.76 13.88C39.76 14.2933 39.6267 14.6667 39.36 15C39.1067 15.3333 38.68 15.5 38.08 15.5H32.44ZM54.26 12.42C54.5667 11.74 54.8 10.9333 54.96 10C55.1333 9.05333 55.22 7.9 55.22 6.54V5.28C55.22 5.13333 55.1733 5.01333 55.08 4.92C55 4.82667 54.88 4.78 54.72 4.78H43.86C43.5533 4.78 43.2867 4.73333 43.06 4.64C42.8467 4.53333 42.6667 4.4 42.52 4.24C42.3867 4.06667 42.28 3.88 42.2 3.68C42.1333 3.46667 42.1 3.26 42.1 3.06C42.1 2.86 42.1333 2.66 42.2 2.46C42.2667 2.24667 42.3733 2.06 42.52 1.9C42.6667 1.74 42.8467 1.60667 43.06 1.5C43.2867 1.39333 43.5533 1.34 43.86 1.34H56.08C56.6667 1.34 57.1533 1.4 57.54 1.52C57.94 1.62667 58.26 1.8 58.5 2.04C58.74 2.26667 58.9067 2.56 59 2.92C59.1067 3.28 59.16 3.70667 59.16 4.2V6.56C59.16 8.18667 59.0533 9.58667 58.84 10.76C58.6267 11.9333 58.3267 12.9 57.94 13.66C57.8067 13.9267 57.6267 14.1533 57.4 14.34C57.1867 14.5267 56.9467 14.6667 56.68 14.76C56.4133 14.8533 56.1333 14.9 55.84 14.9C55.5467 14.9 55.2667 14.84 55 14.72C54.56 14.5333 54.2733 14.22 54.14 13.78C54.0067 13.34 54.0467 12.8867 54.26 12.42ZM58.44 15.74C58.7467 15.74 59.0067 15.7933 59.22 15.9C59.4467 15.9933 59.6267 16.12 59.76 16.28C59.9067 16.44 60.0067 16.6267 60.06 16.84C60.1267 17.04 60.16 17.24 60.16 17.44C60.16 17.6533 60.1267 17.86 60.06 18.06C59.9933 18.26 59.8867 18.44 59.74 18.6C59.6067 18.76 59.4333 18.8867 59.22 18.98C59.0067 19.0733 58.7467 19.12 58.44 19.12H43.16C42.8533 19.12 42.5933 19.0733 42.38 18.98C42.1667 18.8867 41.9867 18.76 41.84 18.6C41.7067 18.44 41.6067 18.26 41.54 18.06C41.4733 17.86 41.44 17.6533 41.44 17.44C41.44 17.24 41.4667 17.04 41.52 16.84C41.5867 16.6267 41.6867 16.44 41.82 16.28C41.9667 16.12 42.1467 15.9933 42.36 15.9C42.5867 15.7933 42.8533 15.74 43.16 15.74H58.44ZM66.24 19.52C65.68 19.52 65.2133 19.4667 64.84 19.36C64.48 19.2533 64.1933 19.0867 63.98 18.86C63.7667 18.6333 63.6133 18.3333 63.52 17.96C63.44 17.5867 63.4 17.1333 63.4 16.6V15.32C63.4 14.64 63.6 14.16 64 13.88C64.4133 13.5867 64.9 13.44 65.46 13.44C66.02 13.44 66.4933 13.5867 66.88 13.88C67.2667 14.16 67.46 14.64 67.46 15.32V15.92C67.46 16.1467 67.4933 16.2867 67.56 16.34C67.6267 16.3933 67.7733 16.42 68 16.42H78.86C79.4733 16.42 79.9067 16.58 80.16 16.9C80.4133 17.2067 80.54 17.56 80.54 17.96C80.54 18.3733 80.4067 18.7333 80.14 19.04C79.8867 19.36 79.46 19.52 78.86 19.52H66.24ZM65.62 12.76C65.1 12.76 64.6333 12.66 64.22 12.46C63.8067 12.26 63.4533 12 63.16 11.68C62.88 11.36 62.66 10.9933 62.5 10.58C62.3533 10.1533 62.28 9.72 62.28 9.28V8.8C62.28 8.36 62.3533 7.94667 62.5 7.56C62.6467 7.17333 62.86 6.84 63.14 6.56C63.4333 6.26667 63.7867 6.04 64.2 5.88C64.6133 5.72 65.0867 5.64 65.62 5.64H69.38V4.78C69.38 4.60667 69.34 4.49333 69.26 4.44C69.1933 4.38667 69.0667 4.36 68.88 4.36H63.8C63.5467 4.36 63.3267 4.31333 63.14 4.22C62.9667 4.12667 62.82 4.00667 62.7 3.86C62.5933 3.71333 62.5133 3.55333 62.46 3.38C62.4067 3.20667 62.38 3.03333 62.38 2.86C62.38 2.67333 62.4067 2.49333 62.46 2.32C62.5133 2.13333 62.6 1.96667 62.72 1.82C62.84 1.67333 62.9867 1.55333 63.16 1.46C63.3467 1.36667 63.56 1.32 63.8 1.32H70.4C71.4667 1.32 72.2333 1.56667 72.7 2.06C73.1667 2.55333 73.4 3.19333 73.4 3.98V8.46H67.04C66.6267 8.46 66.42 8.64667 66.42 9.02V9.2C66.42 9.54667 66.6267 9.72 67.04 9.72H73.74C73.98 9.72 74.1867 9.76667 74.36 9.86C74.5467 9.95333 74.6933 10.0733 74.8 10.22C74.92 10.3667 75.0067 10.5333 75.06 10.72C75.1133 10.9067 75.14 11.0867 75.14 11.26C75.14 11.4333 75.1133 11.6133 75.06 11.8C75.0067 11.9733 74.9267 12.1333 74.82 12.28C74.7133 12.4133 74.5667 12.5267 74.38 12.62C74.2067 12.7133 73.9933 12.76 73.74 12.76H65.62ZM75.98 2.72C75.98 2.06667 76.18 1.57333 76.58 1.24C76.9933 0.906666 77.4667 0.739999 78 0.739999C78.2533 0.739999 78.5 0.786666 78.74 0.879999C78.9933 0.959999 79.2133 1.08667 79.4 1.26C79.5867 1.42 79.7333 1.62667 79.84 1.88C79.96 2.12 80.02 2.4 80.02 2.72V14.88H75.98V2.72Z" fill="white"/>
</svg>
