<svg width="100" height="100" viewBox="0 0 100 100" fill="none" xmlns="http://www.w3.org/2000/svg">
<rect width="100" height="100" fill="white"/>
<path d="M92.7722 61.8023C71.7666 75.344 37.0444 60.5857 41.7305 39.4079C45.8389 20.8412 67.8944 26.1774 72.9111 28.6829C77.9278 31.1885 74.8916 17.8801 63.2583 13.8857C47.5 8.47459 28.2111 9.62181 22.1139 36.8024C17.9472 55.3773 26.1083 81.419 57.4444 81.7662C88.7805 82.1134 92.7722 61.8023 92.7722 61.8023Z" fill="#34AA70"/>
<path d="M99.9667 66.0108C99.9667 60.0497 92.3167 59.5275 88.8556 62.9025C80.5389 71.0108 68.2945 74.0469 51.9167 70.8497C23.4445 65.2941 23.1917 31.9219 42.6584 22.4025C53.1889 17.2525 65.6833 23.3497 70.4333 26.9997C74.5667 30.1747 82.4722 34.3886 82.0583 29.0886C81.175 17.8052 59.0611 -6.35864 29.4306 8.91914C-0.197188 24.1969 3.40442e-05 58.6775 3.40442e-05 64.9275V85.0663C3.40442e-05 91.2025 5.03892 96.0302 11.175 96.0302H88.9528C95.0889 96.0302 100 91.2025 100 85.0663C100 85.0663 99.9889 66.0275 99.9667 66.0108Z" fill="#85CCA9"/>
</svg>
