<svg width="100" height="100" viewBox="0 0 100 100" fill="none" xmlns="http://www.w3.org/2000/svg">
<rect width="100" height="100" fill="white"/>
<path d="M83.6667 90.2779C83.6667 95.6473 68.7417 100 50.3333 100C31.925 100 17 95.6473 17 90.2779C17 84.9112 31.9222 80.5557 50.3333 80.5557C68.7417 80.5557 83.6667 84.9084 83.6667 90.2779Z" fill="#24784F"/>
<path d="M17 87.5H83.6667V90.2778H17V87.5Z" fill="#24784F"/>
<path d="M83.6667 87.5001C83.6667 92.8695 68.7417 97.2223 50.3333 97.2223C31.925 97.2223 17 92.8695 17 87.5001C17 82.1306 31.9222 77.7778 50.3333 77.7778C68.7417 77.7778 83.6667 82.1306 83.6667 87.5001Z" fill="#CEEEDE"/>
<path d="M80.8889 86.1112C80.8889 90.7112 67.2055 94.4445 50.3333 94.4445C33.4583 94.4445 19.7778 90.7139 19.7778 86.1112C19.7778 81.5084 33.4555 77.7778 50.3333 77.7778C67.2083 77.7778 80.8889 81.5084 80.8889 86.1112Z" fill="#34AA70"/>
<path d="M19.7778 22.2222H80.8889V86.1111H19.7778V22.2222Z" fill="#34AA70"/>
<path d="M80.8889 63.889C80.8889 69.2556 67.2055 73.6112 50.3333 73.6112C33.4583 73.6112 19.7778 69.2584 19.7778 63.889C19.7778 58.5195 33.4555 54.1667 50.3333 54.1667C67.2055 54.1667 80.8889 58.5195 80.8889 63.889Z" fill="#85CCA9"/>
<path d="M19.7778 27.7778H80.8889V63.8889H19.7778V27.7778Z" fill="#85CCA9"/>
<path d="M80.8888 38.889C80.8888 44.2556 67.2055 48.6112 50.3333 48.6112C33.4583 48.6112 19.7805 44.2584 19.7805 38.889C19.7805 33.5195 33.4583 29.1667 50.3333 29.1667C67.2055 29.1667 80.8888 33.5195 80.8888 38.889Z" fill="#34AA70"/>
<path d="M19.7778 11.1111H80.8889V38.8889H19.7778V11.1111Z" fill="#34AA70"/>
<path d="M83.6667 12.5001C83.6667 17.8695 68.7417 22.2223 50.3333 22.2223C31.925 22.2223 17 17.8695 17 12.5001C17 7.13061 31.925 2.77783 50.3333 2.77783C68.7417 2.77783 83.6667 7.13061 83.6667 12.5001Z" fill="#24784F"/>
<path d="M17 9.72217H83.6667V12.4999H17V9.72217Z" fill="#24784F"/>
<path d="M83.6667 9.72222C83.6667 15.0917 68.7417 19.4444 50.3333 19.4444C31.925 19.4444 17 15.0917 17 9.72222C17 4.35278 31.925 0 50.3333 0C68.7417 0 83.6667 4.35278 83.6667 9.72222Z" fill="#CEEEDE"/>
<path d="M78.8056 9.72228C78.8056 13.5584 66.0611 16.6667 50.3333 16.6667C34.6056 16.6667 21.8611 13.5584 21.8611 9.72228C21.8611 5.88617 34.6056 2.77783 50.3333 2.77783C66.0611 2.77783 78.8056 5.88617 78.8056 9.72228Z" fill="#6CC89B"/>
<path d="M76.0278 9.7223C76.0278 12.7917 64.5278 15.2779 50.3333 15.2779C36.1389 15.2779 24.6389 12.7917 24.6389 9.7223C24.6389 6.65286 36.1417 4.16675 50.3333 4.16675C64.5278 4.16675 76.0278 6.65286 76.0278 9.7223Z" fill="#CEEEDE"/>
<path d="M67 9.72222C67 11.6389 59.5389 13.1944 50.3333 13.1944C41.1278 13.1944 33.6667 11.6389 33.6667 9.72222C33.6667 7.80556 41.1278 6.25 50.3333 6.25C59.5389 6.25 67 7.80556 67 9.72222Z" fill="#6CC89B"/>
<path d="M50.3333 11.8056C57.6204 11.8056 63.5278 10.8728 63.5278 9.72225C63.5278 8.57166 57.6204 7.63892 50.3333 7.63892C43.0462 7.63892 37.1389 8.57166 37.1389 9.72225C37.1389 10.8728 43.0462 11.8056 50.3333 11.8056Z" fill="#CEEEDE"/>
</svg>
