<svg width="100" height="100" viewBox="0 0 100 100" fill="none" xmlns="http://www.w3.org/2000/svg">
<path d="M95.5493 7.00073L69.0589 27.0996C67.8976 29.2527 68.3807 31.3296 69.1521 32.9317C69.5845 33.8303 69.0504 34.9068 68.0756 35.1357C63.8032 36.1445 55.5127 37.3821 51.9863 40.9085C51.9863 40.9085 6.37192 83.6747 3.94751 85.9126C1.52311 88.1505 0.200707 91.3463 1.52311 94.5421C2.27756 96.3731 4.13401 98.4076 6.53298 99.2468C11.3818 100.942 13.9418 99.8487 18.5702 95.2203C18.5702 95.2203 65.719 49.6991 76.0185 39.8489C76.9509 38.9503 78.1208 38.3654 79.3753 38.0602C80.6299 37.7551 82.427 37.0261 84.1818 35.2629L97.126 22.2338C102.577 16.7831 98.8045 10.2644 95.5493 7.00073Z" fill="#16673F"/>
<path d="M70.0677 31.7957C74.2553 35.9833 78.8667 33.1181 80.4689 31.516L95.507 16.4779C97.1091 14.8757 99.2029 10.6627 95.5409 7.00066C93.1673 4.62712 89.0391 4.72036 86.3943 7.36517L71.3646 22.4033C69.754 24.0054 67.2533 28.9729 70.0677 31.7957Z" fill="#34AA70"/>
<path d="M86.3858 0.465088L83.707 4.90701C83.707 4.90701 89.9206 10.3407 91.2091 11.3495C92.167 12.0955 93.0147 12.0361 93.7014 11.3495C94.388 10.6628 94.388 9.54389 93.7014 8.85726C93.0147 8.17063 86.3858 0.465088 86.3858 0.465088Z" fill="#34AA70"/>
<path d="M74.1595 30.8804L65.174 21.8948L84.7159 2.35547L93.7014 11.341L74.1595 30.8804Z" fill="#34AA70"/>
<path d="M68.0587 20.5554L63.6167 23.2341C63.6167 23.2341 70.7119 29.5495 72.0004 30.5582C72.9583 31.3042 73.806 31.2448 74.4926 30.5582C75.1793 29.8716 75.1793 28.7526 74.4926 28.066C73.806 27.3709 68.0587 20.5554 68.0587 20.5554Z" fill="#34AA70"/>
<path d="M85.9705 2.49951L83.3172 6.93295C83.3172 6.93295 90.5565 13.3924 91.8535 14.4011C92.8114 15.1471 93.659 15.0878 94.3457 14.4011C95.0323 13.7145 95.0323 12.5955 94.3457 11.9089C93.659 11.2223 85.9705 2.49951 85.9705 2.49951Z" fill="#BEE2D0"/>
<path d="M83.3341 6.31421L79.7738 9.87452C79.7738 9.87452 87.3098 16.6391 88.6067 17.6394C89.5646 18.3854 90.4123 18.326 91.099 17.6394C91.7856 16.9528 91.7856 15.8338 91.099 15.1472C90.4123 14.4605 83.3341 6.31421 83.3341 6.31421Z" fill="#BEE2D0"/>
<path d="M80.045 9.51831L76.4847 13.0786C76.4847 13.0786 84.0716 19.8856 85.3601 20.8859C86.318 21.6319 87.1657 21.5725 87.8523 20.8859C88.5389 20.1993 88.5389 19.0803 87.8523 18.3937C87.1657 17.707 80.045 9.51831 80.045 9.51831Z" fill="#BEE2D0"/>
<path d="M76.3915 12.3582L72.8312 15.9185C72.8312 15.9185 80.825 23.1323 82.1135 24.1326C83.0713 24.8786 83.919 24.8193 84.6057 24.1326C85.2923 23.446 85.2923 22.327 84.6057 21.6404C83.919 20.9538 76.3915 12.3582 76.3915 12.3582Z" fill="#BEE2D0"/>
<path d="M73.1533 15.6047L69.593 19.1651C69.593 19.1651 77.5867 26.3789 78.8752 27.3792C79.8331 28.1252 80.6808 28.0658 81.3674 27.3792C82.0541 26.6926 82.0541 25.5736 81.3674 24.887C80.6808 24.2004 73.1533 15.6047 73.1533 15.6047Z" fill="#BEE2D0"/>
<path d="M70.678 19.6145L65.8885 22.1661C65.8885 22.1661 74.3401 29.6088 75.6286 30.6176C76.5864 31.3635 77.4341 31.3042 78.1208 30.6176C78.8074 29.9309 78.8074 28.812 78.1208 28.1254C77.4341 27.4387 70.678 19.6145 70.678 19.6145Z" fill="#BEE2D0"/>
<path d="M63.9643 20.2248C64.1423 19.4449 63.3624 18.0377 64.0236 17.1561C64.5576 16.444 64.9984 16.5712 65.524 16.5712C66.3209 16.5712 66.999 15.893 66.999 15.0962C66.999 14.5791 67.1007 14.079 67.4229 13.7569C67.745 13.4347 68.2451 13.333 68.7622 13.333C69.559 13.333 70.2372 12.6549 70.2372 11.858C70.2372 11.3409 70.3389 10.8408 70.661 10.5187C70.9832 10.1965 71.4833 10.0948 72.0004 10.0948C72.7972 10.0948 73.4754 9.41666 73.4754 8.61983C73.4754 8.10273 73.5771 7.6026 73.8992 7.28047C74.2214 6.95835 74.7215 6.85662 75.2386 6.85662C76.0354 6.85662 76.7136 6.17847 76.7136 5.38164C76.7136 4.86454 76.8153 4.3644 77.1374 4.04228C77.4596 3.72016 77.9597 3.61843 78.4768 3.61843C79.2736 3.61843 79.9518 2.94028 79.9518 2.14344C79.9518 1.62635 80.062 0.914288 80.6723 0.532825C81.6472 -0.0605606 82.6898 0.702364 83.4612 0.702364C84.275 0.702364 85.182 -0.611561 86.2162 0.35481C87.1996 1.27032 86.1908 2.51643 86.2756 3.10982C86.3519 3.63539 87.047 4.77977 86.5129 5.79701C86.0976 6.58536 85.1736 6.83967 84.6565 6.84815C83.8596 6.84815 83.1815 7.5263 83.1815 8.32313C83.1815 8.84023 83.0798 9.34037 82.7576 9.66249C82.4355 9.98462 81.9354 10.0863 81.4183 10.0863C80.6215 10.0863 79.9433 10.7645 79.9433 11.5613C79.9433 12.0784 79.8416 12.5786 79.5194 12.9007C79.1973 13.2228 78.6972 13.3245 78.1801 13.3245C77.3833 13.3245 76.7051 14.0027 76.7051 14.7995C76.7051 15.3166 76.6034 15.8167 76.2813 16.1389C75.9591 16.461 75.459 16.5627 74.9419 16.5627C74.1451 16.5627 73.4669 17.2409 73.4669 18.0377C73.4669 18.5548 73.3652 19.0549 73.0431 19.3771C72.7209 19.6992 72.2208 19.8009 71.7037 19.8009C70.9069 19.8009 70.2287 20.4791 70.2287 21.2759C70.2287 21.793 70.0253 22.539 69.5506 22.8696C68.0332 23.9292 66.9905 22.4542 66.2615 22.7255C65.7614 22.912 64.439 24.0818 63.4726 23.0391C62.413 21.9032 63.8795 20.6232 63.9643 20.2248Z" fill="url(#paint0_linear_38_822)"/>
<path d="M2.74382 94.1945C6.22784 97.6786 11.1021 94.8388 12.8483 93.0925C14.2046 91.7362 58.4882 47.8511 58.4882 47.8511C62.8199 43.5194 64.3288 42.3411 62.7351 40.0947C61.1415 37.8483 54.7838 38.1196 51.2573 41.6545C51.2573 41.6545 6.70255 83.0982 4.77828 85.0225C2.85402 86.9468 -0.180728 91.27 2.74382 94.1945Z" fill="#34AA70"/>
<defs>
<linearGradient id="paint0_linear_38_822" x1="80.6935" y1="17.5198" x2="71.2265" y2="8.05272" gradientUnits="userSpaceOnUse">
<stop stop-color="#FAFAFA"/>
<stop offset="0.73" stop-color="#EEEEEE"/>
</linearGradient>
</defs>
</svg>
