<svg width="100" height="100" viewBox="0 0 100 100" fill="none" xmlns="http://www.w3.org/2000/svg">
<rect width="100" height="100" fill="white"/>
<path d="M4.28194 93.9541C2.81125 93.0234 7.5278 85.2219 8.4556 83.6794L55.0064 3.81685C57.6864 -0.632563 60.5703 -0.638308 63.1843 1.01909C65.7982 2.67649 67.0218 5.28467 64.1437 9.6077L12.0462 85.5953C11.0494 87.0919 5.75263 94.8848 4.28194 93.9541Z" fill="#34AA70"/>
<path d="M63.1813 1.01641C60.5674 -0.640993 57.6863 -0.635248 55.0063 3.81417L45.3664 20.3537C46.3287 22.9992 50.893 25.3805 53.6993 24.8405L64.1436 9.60501C67.0217 5.28199 65.7952 2.67381 63.1813 1.01641Z" fill="#23734C"/>
<path d="M13.4853 99.8084C12.2962 98.5359 18.8999 92.3601 20.1868 91.102L85.2447 25.3231C88.9588 21.6894 91.7508 22.4104 93.8621 24.671C95.9762 26.9316 96.5047 29.7639 92.6298 33.2252L21.982 94.4427C20.6377 95.6405 14.6717 101.081 13.4853 99.8084Z" fill="#34AA70"/>
<path d="M93.8619 24.6707C91.7478 22.4101 88.9587 21.6919 85.2446 25.3227L72.1003 38.6135C72.264 41.2849 76.4032 44.8841 78.9252 45.1024L92.6325 33.2248C96.5046 29.7635 95.976 26.9313 93.8619 24.6707Z" fill="#23734C"/>
</svg>
