<svg width="100" height="100" viewBox="0 0 100 100" fill="none" xmlns="http://www.w3.org/2000/svg">
<rect width="100" height="100" fill="white"/>
<path d="M0.508502 29.5019C-0.446978 31.6392 -1.36893 52.358 10.8595 66.4136C19.9869 76.8987 32.3327 81.19 48.5926 81.8019C64.8525 82.4137 80.5509 76.9574 88.0942 68.3162C101.714 52.7016 100.289 33.9021 99.5767 31.1027C97.7747 24.0121 83.5934 19 50.4952 19C19.7187 19.0168 2.95587 24.0288 0.508502 29.5019Z" fill="#85CCA9"/>
<path d="M24.2949 70.3194C22.979 71.9035 15.1592 67.3775 9.95433 56.8002C5.39485 47.5387 5.51219 42.5099 6.36709 41.7137C7.4902 40.666 10.7757 41.6382 11.5217 44.0269C12.5274 47.2454 12.4939 50.9751 16.0057 57.8479C21.3447 68.2995 25.418 68.97 24.2949 70.3194Z" fill="#D1EFE0"/>
<path d="M6.59342 31.0611C7.06277 36.1402 24.0184 39.2078 50.8388 39.6604C77.6593 40.113 94.6317 36.3749 94.6317 31.6227C94.6317 26.8704 76.8631 23.4759 51.9703 23.2496C27.0776 23.0233 6.14082 26.1999 6.59342 31.0611Z" fill="#34AA70"/>
</svg>
