<svg width="100" height="100" viewBox="0 0 100 100" fill="none" xmlns="http://www.w3.org/2000/svg">
<path d="M50.1709 57.6246C23.4885 57.6246 1.86018 56.984 1.86018 75.9245C1.86018 94.8564 23.4885 99.1644 50.1709 99.1644C76.8532 99.1644 98.4816 94.8564 98.4816 75.9245C98.4816 56.9868 76.8532 57.6246 50.1709 57.6246Z" fill="#34AA70"/>
<path d="M97.0664 59.063C97.0664 59.063 73.6642 56.2612 50.1709 56.1416C26.6775 56.2612 3.27528 59.063 3.27528 59.063C0.9604 77.4966 20.1799 85.0904 50.1709 85.0904C80.1618 85.0904 99.3813 77.4966 97.0664 59.063Z" fill="#0E3D26"/>
<path d="M95.4036 51.6938L4.70179 53.5332C1.56973 53.5332 -1.05267 59.8799 2.27017 61.5399C27.0648 69.2505 46.9961 77.0522 46.9961 77.0522C49.7352 78.567 50.6606 78.5727 53.4026 77.0607C53.4026 77.0607 80.9249 66.0473 98.604 61.4203C101.112 60.7655 98.5328 51.6938 95.4036 51.6938Z" fill="#95E2BC"/>
<path d="M97.7925 51.9329C92.3826 46.9472 92.6958 49.6009 88.5501 48.4307C86.9755 47.9865 75.7086 33.4224 50.0285 33.4224H49.9716C24.2915 33.4224 13.0246 47.9865 11.45 48.4307C7.30427 49.6009 7.61747 46.9472 2.20754 51.9329C-0.275337 54.2221 -0.947307 55.4123 1.67224 56.0046C5.61864 56.8958 5.25988 59.2847 8.08728 60.1161C11.5098 61.1212 12.9164 59.2847 18.4345 60.0364C23.1411 60.677 23.4486 66.7817 28.198 66.7817C32.9473 66.7817 32.9473 64.5039 37.6939 64.5039C42.4404 64.5039 45.2478 70.6142 49.9972 70.6142C54.7465 70.6142 57.5512 64.5039 62.3005 64.5039C67.0499 64.5039 67.0499 66.7817 71.7964 66.7817C76.5457 66.7817 76.8532 60.677 81.5599 60.0364C87.078 59.2875 88.4874 61.1212 91.9071 60.1161C94.7345 59.2847 94.3757 56.8986 98.3221 56.0046C100.947 55.4152 100.278 54.2221 97.7925 51.9329Z" fill="#5CB589"/>
<path d="M95.9475 46.546C95.9475 55.0425 75.4524 59.0543 50.1709 59.0543C24.8894 59.0543 4.3943 55.0425 4.3943 46.546C4.3943 31.1619 7.14483 31.1619 50.1709 31.1619C93.1969 31.1619 95.9475 31.1647 95.9475 46.546Z" fill="#2D7853"/>
<path d="M50.1709 1C23.4885 1 1.86018 13.5026 1.86018 32.4403C1.86018 49.8802 23.4885 50.592 50.1709 50.592C76.8532 50.592 98.4816 49.8802 98.4816 32.4403C98.4816 13.4998 76.8532 1 50.1709 1Z" fill="#34AA70"/>
<path d="M29.6245 10.0292C28.2065 9.12094 26.3245 9.53665 25.419 10.9546C24.5135 12.3726 24.9264 14.2575 26.3444 15.1601C27.7624 16.0684 31.3557 16.7461 32.264 15.3281C33.1694 13.9102 31.0425 10.9347 29.6245 10.0292ZM57.3405 7.08225C55.7402 7.60047 52.9299 9.94667 53.451 11.5469C53.9721 13.1471 57.6195 13.3919 59.2197 12.8737C60.8199 12.3555 61.694 10.6357 61.173 9.03552C60.6547 7.43817 58.935 6.56119 57.3405 7.08225ZM88.402 27.1132C87.115 26.0313 83.889 27.7539 82.8042 29.0409C81.7222 30.3307 81.8902 32.2498 83.1771 33.3318C84.4641 34.4138 86.3861 34.2458 87.4681 32.9588C88.5529 31.669 89.6918 28.1952 88.402 27.1132ZM78.0292 12.8766C76.6112 11.9711 74.7291 12.3868 73.8208 13.8048C72.9154 15.2228 73.3311 17.1049 74.749 18.0103C76.167 18.9186 79.7604 19.5963 80.6658 18.1783C81.5741 16.7575 79.4471 13.782 78.0292 12.8766ZM35.3192 32.8079C33.9012 31.9025 32.0191 32.3182 31.1108 33.7361C30.2054 35.1513 30.6211 37.0362 32.039 37.9388C33.457 38.8471 37.0504 39.5276 37.9558 38.1068C38.8641 36.6888 36.7371 33.7134 35.3192 32.8079ZM43.9922 19.1179C43.0354 20.5017 42.2268 24.0694 43.6135 25.0261C44.9973 25.9828 48.0468 23.9612 49.0035 22.5774C49.9602 21.1936 49.6099 19.2973 48.2261 18.3406C46.8452 17.3839 44.946 17.7341 43.9922 19.1179ZM66.6398 32.8079C65.2219 31.9025 63.3398 32.3182 62.4315 33.7361C61.526 35.1513 61.9417 37.039 63.3597 37.9388C64.7777 38.8471 68.371 39.5276 69.2765 38.1068C70.1848 36.6888 68.0578 33.7134 66.6398 32.8079ZM13.0075 21.7403C11.8856 22.996 10.6356 26.4327 11.8913 27.5546C13.1413 28.6764 16.4214 27.0591 17.5433 25.8035C18.668 24.5506 18.5598 22.6258 17.3069 21.5011C16.057 20.3793 14.1293 20.4875 13.0075 21.7403Z" fill="#D3EDE0"/>
</svg>
