<svg width="100" height="100" viewBox="0 0 100 100" fill="none" xmlns="http://www.w3.org/2000/svg">
<rect width="100" height="100" fill="white"/>
<path d="M97.3507 49.4166C95.1136 45.7329 92.1195 44.7405 92.1195 44.7405C92.1195 44.7405 91.4803 41.1661 88.3937 38.6009C85.1557 35.918 79.8488 35.1106 73.356 35.5984C65.5007 36.1871 58.3183 41.595 58.3183 41.595C58.3183 41.595 55.9886 37.6842 53.0702 35.6741C50.9761 34.2275 45.0552 30.7793 38.5035 30.384C30.11 29.8794 20.0344 31.6876 20.0344 31.6876C20.0344 31.6876 13.6761 28.2141 11.9015 26.7507C10.127 25.2873 7.87299 22.6885 6.05635 21.0653C4.34905 19.543 3.25571 17.6675 2.22964 17.9871C1.59887 18.1806 1.36338 18.8954 1.67456 19.7197C1.98574 20.5439 4.7107 24.5388 5.19009 25.321C5.66107 26.1115 8.66356 30.2915 8.66356 30.2915C8.66356 30.2915 6.56938 29.585 4.8789 28.6346C3.9033 28.088 0.892396 26.7002 0.143875 27.5665C-0.789675 28.643 3.06227 30.9979 4.71911 32.1417C6.37595 33.2856 10.2027 36.3637 10.2027 36.3637C10.2027 36.3637 9.29434 36.4394 7.99074 36.4394C6.68713 36.4394 5.42558 36.6329 5.61901 37.6253C5.81245 38.6093 8.62151 39.1223 10.3961 39.997C12.1707 40.8633 16.317 42.2846 16.317 42.2846L24.9628 47.0197L31.3547 53.2181C31.3547 53.2181 25.9048 53.3779 24.6432 53.0247C23.3817 52.6714 21.3716 51.5613 20.3792 51.3678C19.3952 51.1744 15.5601 53.3022 12.6837 54.5638C9.80737 55.8253 7.99074 56.8261 8.10848 57.4485C8.3692 58.853 11.0269 58.3568 12.4903 58.0372C13.9537 57.7176 20.2614 55.2366 20.2614 55.2366C20.2614 55.2366 20.9511 55.8505 21.6071 56.2795C22.5238 56.8934 23.7349 57.4401 23.7349 57.4401C23.7349 57.4401 21.7585 57.5158 20.8922 58.0709C20.026 58.626 19.6307 59.8875 19.1597 61.2248C18.6887 62.5704 16.2413 66.9102 15.2152 68.4072C14.1892 69.9042 12.0613 72.8647 12.608 73.6553C13.1631 74.4458 13.8696 74.286 14.4247 73.9748C14.9797 73.6553 18.6046 69.2819 19.9503 67.5409C21.2959 65.8084 24.2143 61.5443 24.2143 61.5443C24.2143 61.5443 25.5179 61.8471 26.1066 61.9396C26.8972 62.0574 28.7138 62.1751 28.7138 62.1751C28.7138 62.1751 26.914 62.7638 26.6617 64.3029C26.4851 65.3626 25.3581 68.4072 25.0469 69.7528C24.7273 71.0985 22.4818 75.4382 22.322 76.1447C22.1622 76.8512 22.2211 78.9874 22.3809 80.4088C22.5406 81.8301 22.6416 84.3532 23.9788 84.1934C25.3245 84.0336 25.4002 77.8773 25.4002 77.8773C25.4002 77.8773 27.7719 74.286 28.7138 72.2339C29.6642 70.1818 30.6903 65.8 30.6903 65.8C30.6903 65.8 33.0199 65.9934 33.8862 65.9934C34.7525 65.9934 36.6869 65.8 36.6869 65.8C36.6869 65.8 35.1057 74.0842 35.5851 78.508C36.0561 82.9319 37.1999 88.2136 38.5456 88.2136C39.8912 88.2136 39.7062 85.5727 39.7903 83.4365C39.866 81.3087 39.3782 80.4761 39.6137 76.8428C39.8492 73.2095 41.6658 66.8176 41.6658 66.8176C41.6658 66.8176 48.0997 67.4484 51.0602 66.8176C53.0702 66.3887 56.8969 65.5897 58.6799 63.9329C59.7817 62.9068 59.8994 61.8387 59.8994 61.8387L65.4671 61.721L77.4266 60.9724L82.6747 56.5486C82.6747 56.5486 84.2138 57.4149 85.3744 58.8362C86.535 60.2576 87.7629 61.4434 88.0994 64.345C88.4358 67.2466 88.276 70.6023 88.276 70.6023C88.276 70.6023 85.7865 71.3508 83.583 72.4189C81.1356 73.6048 77.4939 76.8176 76.081 78.4155C74.3064 80.4256 72.6832 83.7813 73.0785 84.2607C73.4738 84.7317 76.9641 83.8822 78.1331 83.4701C79.2853 83.058 82.7083 81.3423 82.7083 81.3423C82.7083 81.3423 80.9758 83.3944 80.0254 84.5803C79.0751 85.7662 75.8455 90.1816 75.9212 90.8965C75.9969 91.603 82.8681 91.174 87.7629 89.1639C92.3382 87.28 96.4088 82.4188 97.3171 78.8276C98.1161 75.6569 97.2751 71.4265 97.2751 71.4265L98.1666 69.2735C98.1666 69.2735 99.3272 67.1541 99.7645 64.0254C100.151 61.2163 100.269 54.2273 97.3507 49.4166ZM52.3974 61.292C51.1358 61.8051 49.3949 61.7294 49.3949 61.7294C49.3949 61.7294 50.8835 61.0313 51.405 60.6613C52.0778 60.1903 52.7843 59.7529 53.5328 59.9884C54.2813 60.2239 53.659 60.779 52.3974 61.292Z" fill="#34AA70"/>
<path d="M18.2177 33.0498C17.9065 33.0498 17.5954 32.9237 17.3683 32.6714C16.9394 32.2004 16.9646 31.4687 17.4356 31.0397C17.7972 30.7117 26.3758 22.8817 34.231 19.9128C41.2116 17.2804 47.8306 16.0861 54.4832 16.288C56.7792 16.3553 60.3116 16.7169 64.0457 17.1038C69.1172 17.6252 74.8615 18.2308 78.5872 18.1803C84.9202 18.1046 89.2684 17.1122 89.3104 17.1038C89.6056 17.0447 89.9121 17.1029 90.165 17.2661C90.4179 17.4292 90.5973 17.6845 90.6651 17.9777C90.7329 18.2709 90.6839 18.579 90.5283 18.8367C90.3728 19.0943 90.123 19.2812 89.8319 19.3578C89.6469 19.3998 85.2146 20.4091 78.6125 20.4932C74.7521 20.552 68.9322 19.9381 63.8018 19.4082C60.1097 19.0298 56.6278 18.6681 54.4075 18.6008C48.0661 18.4074 41.7331 19.5512 35.0384 22.0743C27.6037 24.8834 19.0756 32.6629 18.9915 32.7386C18.7848 32.9405 18.5066 33.0524 18.2177 33.0498Z" fill="#34AA70"/>
<path d="M13.878 29.8876C13.6711 29.8876 13.4679 29.832 13.2899 29.7266C13.1118 29.6213 12.9652 29.4701 12.8655 29.2887C12.7659 29.1074 12.7167 28.9027 12.7232 28.6958C12.7296 28.489 12.7915 28.2877 12.9024 28.113C13.0622 27.8607 16.8216 21.9482 22.4397 18.5841C27.5364 15.5311 35.5683 11.7717 44.9122 11.2419C53.415 10.7541 60.4125 10.527 66.9221 10.527C72.7757 10.527 77.4771 10.0644 79.5376 9.61024C81.4804 9.18132 83.4064 8.15525 83.4232 8.13843C83.9867 7.83566 84.6847 8.04592 84.9875 8.60941C85.2903 9.17291 85.08 9.87096 84.5165 10.1737C84.424 10.2242 82.2962 11.3596 80.0338 11.8642C77.8471 12.352 72.9523 12.8398 66.9137 12.8398C60.4461 12.8398 53.4907 13.0669 45.0383 13.5463C36.1654 14.0509 28.4952 17.6421 23.6256 20.5689C18.4784 23.6555 14.8872 29.2905 14.8536 29.3493C14.6349 29.7026 14.2564 29.8876 13.878 29.8876Z" fill="#34AA70"/>
<path d="M88.3517 68.1211C88.3517 68.1211 90.3533 69.8032 92.8344 70.1901C95.8537 70.661 98.1665 69.2986 98.1665 69.2986L97.3928 72.3179C97.3928 72.3179 95.2229 73.2851 92.2625 72.6963C89.9076 72.2254 88.276 70.8965 88.276 70.8965L88.3517 68.1211ZM87.3677 61.6283C87.3677 61.6283 91.514 61.6872 94.5922 60.6191C97.8638 59.4837 99.7645 56.9101 99.7645 56.9101L100 60.7368C100 60.7368 98.7973 62.4357 95.1809 63.7393C92.6409 64.656 88.0994 64.3869 88.0994 64.3869L87.3677 61.6283ZM66.8464 37.0196L64.0205 38.2391C64.0205 38.2391 69.6302 44.0339 70.2778 48.996C70.9843 54.4459 69.0331 58.2221 68.5032 59.4164C68.0322 60.4845 67.4351 61.4853 67.4351 61.4853L64.1214 61.7208C64.1214 61.7208 64.9457 65.4382 69.092 65.6316C74.1802 65.8671 75.0128 61.6031 75.0128 61.6031C75.0128 61.6031 76.964 65.2111 81.0515 63.4365C85.1389 61.662 83.4232 57.5157 83.4232 57.5157L85.3744 58.8781C85.3744 58.8781 89.0161 57.3306 91.3542 52.7806C93.4231 48.7521 93.5072 45.3206 93.2297 45.1272C92.9521 44.9338 92.1279 44.7319 92.1279 44.7319C92.1279 44.7319 91.5728 42.4443 91.2785 42.2677C91.2953 43.0583 91.1775 46.6327 90.059 49.7697C89.1507 52.2928 87.6788 54.4206 85.9127 55.6317C84.7857 56.4055 83.9026 56.2793 83.9026 56.2793C83.9026 56.2793 86.3921 51.6032 85.1473 44.673C84.0876 38.7858 79.9413 35.573 79.9413 35.573L76.2155 35.4385C76.2155 35.4385 81.0683 38.2223 82.313 45.6234C83.2802 51.4013 81.1272 56.8092 79.7647 57.9362C78.4022 59.0632 70.8834 60.6023 70.8834 60.6023C70.8834 60.6023 73.9616 54.5636 73.2551 49.1726C72.5066 43.6722 69.2686 39.2736 66.8464 37.0196ZM31.1444 42.6041C30.4632 43.5124 31.3211 44.5553 33.6928 45.4468C36.0645 46.3383 39.6221 46.6074 41.8004 46.8093C44.4076 47.0448 49.4958 46.3972 50.4462 45.9766C51.3966 45.5645 51.6909 44.3198 51.1527 43.7311C50.6144 43.1424 49.3192 43.3779 48.31 43.6722C47.3007 43.9666 45.5261 44.345 41.977 44.2021C38.8988 44.0843 35.0216 43.5292 33.9283 43.0162C33.0368 42.6041 31.8509 41.6621 31.1444 42.6041Z" fill="#85CCA9"/>
<path d="M16.3254 42.3094C16.3254 42.3094 22.0865 51.544 34.5591 54.8576C44.3067 57.448 49.7145 54.9333 51.1359 54.1512C52.5572 53.3606 54.1131 51.6617 53.659 50.1226C53.1039 48.2303 49.6556 48.348 43.575 48.819C37.4943 49.29 27.057 46.1782 24.8451 45.3876C22.6332 44.597 17.0319 42.0739 16.3254 42.3094Z" fill="#85CCA9"/>
<path d="M28.0831 37.81C27.0318 39.366 24.2984 39.7612 22.7846 38.567C21.3127 37.4064 21.1866 35.4131 22.2379 33.8656C23.2892 32.3181 25.7366 31.7882 27.2925 32.8395C28.8484 33.8908 29.1344 36.2625 28.0831 37.81Z" fill="#145033"/>
</svg>
