<svg width="100" height="100" viewBox="0 0 100 100" fill="none" xmlns="http://www.w3.org/2000/svg">
<path d="M12 98.6246V9.67725C36.6752 11.4525 61.4637 11.509 86.147 9.8467C87.5053 9.75794 88.6129 10.6859 88.6129 11.9286V96.3733C88.6129 97.616 87.5134 98.7053 86.147 98.7941C61.4574 100.456 36.6817 100.4 12 98.6246Z" fill="#85CCA9"/>
<path d="M12 98.3871V9.65628C34.6048 4.73797 57.2993 1.51008 79.9041 0.00479887C81.1508 -0.0756972 82.1613 0.866107 82.1613 2.10575V86.3449C82.1613 87.5845 81.1508 88.6551 79.9041 88.7356C57.2993 90.2409 34.6048 93.4688 12 98.3871Z" fill="#CCE9DB"/>
<path d="M21.6774 38.5033C38.3333 35.2115 55.0296 32.8555 71.6774 31.4517M21.6774 49.7101C28.7756 48.3041 35.9062 47.0666 43.0632 45.9987M21.6774 60.9088C28.7756 59.5028 35.9062 58.2653 43.0632 57.1974M21.6774 83.871C38.3333 80.5792 55.0296 78.2232 71.6774 76.8194M21.6774 72.1156C28.7756 70.7096 35.9062 69.4721 43.0632 68.4042" stroke="#34AA70" stroke-width="5" stroke-miterlimit="10" stroke-linecap="round" stroke-linejoin="round"/>
<path d="M51.0375 69.335C57.7089 68.4614 64.3988 67.7352 71.1025 67.1569C72.3143 67.0516 73.2903 65.991 73.2903 64.7764V42.6072C73.2903 41.3927 72.3062 40.4939 71.1025 40.5992C64.4169 41.174 57.7313 41.9028 51.0375 42.7772C49.8257 42.9392 48.8415 44.0565 48.8415 45.263V67.4322C48.8497 68.6467 49.8257 69.4969 51.0375 69.335ZM23.0589 27.1179C24.71 26.794 26.3529 26.4863 28.004 26.1867C29.2158 25.9681 30.1918 24.8103 30.1918 23.5957V17.9117C30.1918 16.6972 29.2077 15.8956 28.004 16.1142C26.3529 16.4138 24.71 16.7296 23.0589 17.0454C21.847 17.2802 20.871 18.4623 20.871 19.6688V25.3528C20.8629 26.5673 21.847 27.3527 23.0589 27.1179ZM36.0397 24.786C37.6907 24.5107 39.3337 24.2516 40.9847 24.0006C42.1966 23.8144 43.1807 22.6889 43.1807 21.4744V15.7904C43.1807 14.5758 42.1966 13.7419 40.9847 13.9281C39.3337 14.1791 37.6826 14.4463 36.0397 14.7135C34.8278 14.9159 33.8518 16.0657 33.8518 17.2721V22.9561C33.8518 24.1706 34.8278 24.9884 36.0397 24.786ZM49.0286 22.8346C50.6797 22.6079 52.3307 22.3974 53.9737 22.1869C55.1855 22.033 56.1697 20.94 56.1697 19.7254V14.0414C56.1697 12.8269 55.1855 11.9605 53.9737 12.1144C52.3226 12.3168 50.6715 12.5354 49.0286 12.7621C47.8167 12.9241 46.8326 14.0495 46.8326 15.256V20.94C46.8407 22.1545 47.8249 22.9966 49.0286 22.8346Z" fill="#34AA70"/>
</svg>
