<svg width="100" height="100" viewBox="0 0 100 100" fill="none" xmlns="http://www.w3.org/2000/svg">
<rect width="100" height="100" fill="white"/>
<path d="M38.5079 81.1113H60.7301V100H38.5079V81.1113Z" fill="#197045"/>
<path d="M49.619 53.8091L2 85.8725C2 85.8725 25.0158 91.2693 49.619 91.2693C74.2221 91.2693 97.2379 85.8725 97.2379 85.8725L49.619 53.8091Z" fill="#34AA70"/>
<path d="M49.619 35.873L9.93652 67.9365C9.93652 67.9365 29.1428 73.3333 49.619 73.3333C70.0952 73.3333 89.3015 67.9365 89.3015 67.9365L49.619 35.873Z" fill="#5DBB8D"/>
<path d="M49.619 17.9365L17.873 50C17.873 50 33.2698 55.3968 49.619 55.3968C65.9681 55.3968 81.365 50 81.365 50L49.619 17.9365Z" fill="#85CCA9"/>
<path d="M49.619 0L25.8095 31.4285C25.8095 31.4285 37.2381 37.4603 49.619 37.4603C61.9999 37.4603 73.4285 31.4285 73.4285 31.4285L49.619 0Z" fill="#AEDDC6"/>
</svg>
