<svg width="100" height="100" viewBox="0 0 100 100" fill="none" xmlns="http://www.w3.org/2000/svg">
<rect width="100" height="100" fill="white"/>
<path d="M66.518 50.0036C63.8776 50.0036 61.3934 48.5974 60.0497 46.3475L50.0035 29.6923L39.9728 46.3475C38.6136 48.613 36.1293 50.0192 33.4889 50.0192C32.7858 50.0192 32.0827 49.9254 31.4109 49.7223L10.006 43.5977V71.4085C10.006 73.7052 11.5684 75.7051 13.787 76.2519L47.5661 84.7045C49.1598 85.0951 50.8315 85.0951 52.4096 84.7045L86.2199 76.2519C88.4385 75.6894 90.0009 73.6896 90.0009 71.4085V43.5977L68.596 49.7067C67.9242 49.9098 67.2211 50.0036 66.518 50.0036ZM99.7347 32.4734L91.6883 16.4119C91.204 15.4432 90.1572 14.8808 89.0791 15.0214L50.0035 20.0055L64.3307 43.7696C64.9244 44.7539 66.1118 45.2226 67.2211 44.9101L98.141 36.0826C99.6878 35.6295 100.438 33.9108 99.7347 32.4734ZM8.31859 16.4119L0.272221 32.4734C-0.446483 33.9108 0.319093 35.6295 1.85025 36.0669L32.7702 44.8945C33.8795 45.207 35.0669 44.7383 35.6606 43.754L50.0035 20.0055L10.9122 15.0214C9.83412 14.8964 8.80293 15.4432 8.31859 16.4119Z" fill="#34AA70"/>
</svg>
