<svg width="100" height="100" viewBox="0 0 100 100" fill="none" xmlns="http://www.w3.org/2000/svg">
<rect width="100" height="100" fill="white"/>
<path d="M23.8095 36.4911C26.4394 36.4911 28.5713 33.8262 28.5713 30.5388C28.5713 27.2514 26.4394 24.5864 23.8095 24.5864C21.1795 24.5864 19.0476 27.2514 19.0476 30.5388C19.0476 33.8262 21.1795 36.4911 23.8095 36.4911Z" fill="#21573C"/>
<path d="M23.8094 2C10.6809 2 0 14.8142 0 30.5713C0 46.3284 10.6809 59.1427 23.8094 59.1427C36.938 59.1427 47.6189 46.3284 47.6189 30.5713C47.6189 14.8142 36.938 2 23.8094 2ZM23.8094 36.4904C22.3959 36.3158 21.1067 35.5956 20.217 34.4834C19.3272 33.3713 18.9076 31.9554 19.0476 30.538C18.9076 29.1207 19.3272 27.7047 20.217 26.5926C21.1067 25.4804 22.3959 24.7602 23.8094 24.5856C25.223 24.7602 26.5122 25.4804 27.4019 26.5926C28.2917 27.7047 28.7113 29.1207 28.5713 30.538C28.7113 31.9554 28.2917 33.3713 27.4019 34.4834C26.5122 35.5956 25.223 36.3158 23.8094 36.4904Z" fill="#34AA70"/>
<path d="M98.8568 89.3807C93.3776 82.8636 90.4056 74.6043 90.4759 66.0903V30.5713C90.4759 14.8142 79.795 2 66.6665 2H23.8094C36.938 2 47.6189 14.8142 47.6189 30.5713V66.0903C47.5497 76.874 51.3322 87.3283 58.2855 95.5711C58.7328 96.0936 59.2879 96.513 59.9126 96.8007C60.5373 97.0884 61.2168 97.2375 61.9046 97.2378H95.2378C96.1481 97.2378 97.0393 96.977 97.806 96.4861C98.5726 95.9952 99.1824 95.2949 99.5632 94.4681C99.9441 93.6413 100.08 92.7226 99.9547 91.821C99.8295 90.9193 99.4485 90.0724 98.8568 89.3807Z" fill="#85CCA9"/>
<path d="M47.6189 30.5713C47.6189 46.3284 36.938 59.1426 23.8094 59.1426H47.6189V30.5713Z" fill="#21573C"/>
</svg>
