<svg width="100" height="100" viewBox="0 0 100 100" fill="none" xmlns="http://www.w3.org/2000/svg">
<rect width="100" height="100" fill="white"/>
<path d="M65 97.9998C65 99.1044 64.1046 99.9998 63 99.9998H37C35.8954 99.9998 35 99.1044 35 97.9998V38.6665C35 37.5619 35.8954 36.6665 37 36.6665H49.6754C49.8904 36.6665 50.104 36.6318 50.3079 36.5639L62.3675 32.544C63.6626 32.1123 65 33.0762 65 34.4414V97.9998Z" fill="#34AA70"/>
<path d="M45 100L65 45V100H45Z" fill="#24784F"/>
<path d="M62.3675 32.544C63.6626 32.1123 65 33.0762 65 34.4414V47.9998C65 49.1044 64.1046 49.9998 63 49.9998H37C35.8954 49.9998 35 49.1044 35 47.9998V38.6665C35 37.5619 35.8954 36.6665 37 36.6665H49.6754C49.8904 36.6665 50.104 36.6318 50.3079 36.5639L62.3675 32.544ZM50 36.6665V48.3332V36.6665Z" fill="#78CBA2"/>
<path d="M48.3333 19.5233C48.3333 24.7617 45.35 31.6667 41.6667 31.6667C37.9833 31.6667 35 24.7617 35 19.5233C35 9.81167 41.6667 5 41.6667 0C41.6667 5 48.3333 9.04833 48.3333 19.5233Z" fill="#34AA70"/>
</svg>
