<svg width="100" height="100" viewBox="0 0 100 100" fill="none" xmlns="http://www.w3.org/2000/svg">
<path d="M100 75.1111C100 81.2472 95.025 86.2222 88.8889 86.2222H11.1111C4.975 86.2222 0 81.2472 0 75.1111V25.1111C0 18.975 4.975 14 11.1111 14H88.8889C95.025 14 100 18.975 100 25.1111V75.1111Z" fill="#D6EEE2"/>
<path d="M59.5584 36.4583C52.0195 31.1805 41.6278 33.0138 36.3473 40.5527C33.7084 44.3194 34.6223 49.5166 38.3945 52.161C42.1639 54.7971 47.3612 53.8777 50 50.111C52.6389 46.3444 57.8389 45.4249 61.6056 48.0666C65.3778 50.7055 66.2945 55.9027 63.6528 59.6721C68.9334 52.1333 67.1 41.7416 59.5584 36.4583Z" fill="#34AA70" fill-opacity="0.5"/>
<path d="M61.6055 48.0665C57.8389 45.4248 52.6389 46.3443 50 50.1109C47.3611 53.8776 42.1639 54.797 38.3944 52.1581C34.6222 49.5165 33.7083 44.3192 36.3472 40.5498C31.0666 48.0942 32.9 58.4831 40.4389 63.7609C47.9805 69.0415 58.3694 67.2109 63.65 59.6665C66.2916 55.9026 65.375 50.7054 61.6055 48.0665Z" fill="#34AA70"/>
<path d="M67.5945 71.1442L72.9501 64.7609L75.0778 66.547L69.7223 72.9303L67.5945 71.1442ZM74.7334 62.6359L80.089 56.2553L82.2167 58.0414L76.8612 64.422L74.7334 62.6359ZM71.8501 74.722L77.2056 68.3414L79.3334 70.1276L73.9778 76.5081L71.8501 74.722ZM78.9945 66.2053L84.3556 59.8248L86.4834 61.6137L81.1223 67.9915L78.9945 66.2053ZM76.1028 78.2942L81.4639 71.9137L83.5889 73.6998L78.2306 80.0803L76.1028 78.2942ZM83.2445 69.7803L88.5973 63.3914L90.7278 65.1776L85.3751 71.5664L83.2445 69.7803ZM83.2556 30.4414L85.3834 28.6553L90.7445 35.0414L88.6139 36.8276L83.2556 30.4414ZM76.1112 21.9248L78.2389 20.1387L83.5945 26.5248L81.4639 28.3081L76.1112 21.9248ZM71.8528 25.5026L73.9806 23.7164L86.4806 38.6109L84.3528 40.397L71.8528 25.5026ZM67.5973 29.0692L69.7278 27.2831L75.0806 33.6664L72.9528 35.4498L67.5973 29.0692ZM74.7362 37.5831L76.8639 35.797L82.2251 42.1776L80.1001 43.9637L74.7362 37.5831ZM17.7778 58.0387L19.9056 56.2526L32.4028 71.1498L30.2723 72.9359L17.7778 58.0387ZM13.5278 61.6109L15.6528 59.8276L21.0112 66.2109L18.8806 67.997L13.5278 61.6109ZM20.6584 70.1276L22.7862 68.3414L28.1473 74.722L26.0195 76.5081L20.6584 70.1276ZM9.26672 65.1803L11.3945 63.3942L23.8945 78.2887L21.7639 80.0748L9.26672 65.1803ZM9.26395 35.0359L21.7584 20.1414L23.8889 21.9248L11.3889 36.822L9.26395 35.0359ZM13.5195 38.6109L26.0195 23.7137L28.1473 25.4998L15.6473 40.3942L13.5195 38.6109ZM17.7778 42.1803L30.2778 27.2831L32.4056 29.0692L19.9056 43.9664L17.7778 42.1803Z" fill="#34AA70"/>
</svg>
