<svg width="100" height="100" viewBox="0 0 100 100" fill="none" xmlns="http://www.w3.org/2000/svg">
<path d="M57.8125 0C60.4102 0 62.5 2.09961 62.5 4.6875V12.5H37.5V4.6875C37.5 2.09961 39.5898 0 42.1875 0H57.8125ZM25 29.6289C25 26.582 26.7656 23.8086 29.5293 22.5195L34.2969 20.2734C36.4414 19.2715 38.7891 18.75 41.1523 18.75H58.8477C61.2109 18.75 63.5547 19.2715 65.7031 20.2734L70.4687 22.5195C73.0664 23.8086 75 26.582 75 29.6289C75 32.4414 73.5352 34.9023 71.3086 36.2891C73.5547 38.0078 75 40.7031 75 43.5742C75 47.0117 73.3398 49.8828 70.8008 51.3867C73.3398 53.2422 75 56.1133 75 59.1992C75 62.6367 73.3398 65.5078 70.8008 67.1875C73.3398 68.8672 75 71.7383 75 75C75 78.2617 73.3398 81.1328 70.8008 82.8125C73.3398 84.4922 75 87.3633 75 90.625C75 95.8008 70.8008 100 65.625 100H34.375C29.1973 100 25 95.8008 25 90.625C25 87.3633 26.6641 84.4922 29.1914 82.8125C26.6641 81.1328 25 78.2617 25 75C25 71.7383 26.6641 68.8672 29.1914 67.1875C26.6641 65.5078 25 62.6367 25 59.1992C25 56.1133 26.6641 53.2422 29.1914 51.3867C26.6641 49.8828 25 47.0117 25 43.5742C25 40.7031 26.4453 38.0078 28.6855 36.2891C26.4707 34.9023 25 32.4414 25 29.6289ZM40.625 50H59.375C61.0938 50 62.5 48.5938 62.5 46.875C62.5 45.1562 61.0938 43.75 59.375 43.75H40.625C38.9062 43.75 37.5 45.1562 37.5 46.875C37.5 48.5938 38.9062 50 40.625 50ZM40.625 68.75C38.9062 68.75 37.5 70.1562 37.5 71.875C37.5 73.5938 38.9062 75 40.625 75H59.375C61.0938 75 62.5 73.5938 62.5 71.875C62.5 70.1562 61.0938 68.75 59.375 68.75H40.625Z" fill="#34AA70"/>
</svg>
