<svg width="100" height="100" viewBox="0 0 100 100" fill="none" xmlns="http://www.w3.org/2000/svg">
<rect width="100" height="100" fill="white"/>
<path fill-rule="evenodd" clip-rule="evenodd" d="M38.9278 10.9014C35.9773 13.8519 34.3197 17.8537 34.3197 22.0264V30.774H28.0264V22.0264C28.0264 19.1339 28.5961 16.2696 29.7031 13.5973C30.81 10.9249 32.4325 8.49673 34.4778 6.45139C36.5231 4.40604 38.9513 2.78359 41.6237 1.67666C44.296 0.56973 47.1603 0 50.0528 0C52.9454 0 55.8096 0.56973 58.482 1.67666C61.1543 2.78359 63.5825 4.40604 65.6278 6.45139C67.6732 8.49673 69.2956 10.9249 70.4026 13.5973C71.5095 16.2696 72.0792 19.1339 72.0792 22.0264V30.774H65.786V22.0264C65.786 17.8537 64.1284 13.8519 61.1778 10.9014C58.2273 7.95086 54.2255 6.29326 50.0528 6.29326C45.8801 6.29326 41.8783 7.95086 38.9278 10.9014ZM72.0792 40.5287V30.7741H94.1056V93.7067C94.1056 95.3758 93.4426 96.9765 92.2624 98.1568C91.0822 99.337 89.4815 100 87.8124 100H12.2933C10.6242 100 9.02347 99.337 7.84325 98.1568C6.66304 96.9765 6 95.3758 6 93.7067V30.7741H28.0264V40.5287C28.0264 41.3632 28.3579 42.1636 28.948 42.7537C29.5381 43.3438 30.3385 43.6753 31.173 43.6753C32.0076 43.6753 32.8079 43.3438 33.398 42.7537C33.9882 42.1636 34.3197 41.3632 34.3197 40.5287V30.7741H65.786V40.5287C65.786 41.3632 66.1175 42.1636 66.7076 42.7537C67.2977 43.3438 68.0981 43.6753 68.9326 43.6753C69.7671 43.6753 70.5675 43.3438 71.1576 42.7537C71.7477 42.1636 72.0792 41.3632 72.0792 40.5287Z" fill="#34AA70"/>
</svg>
