<svg width="100" height="100" viewBox="0 0 100 100" fill="none" xmlns="http://www.w3.org/2000/svg">
<path d="M57.0623 63.4835C57.0623 63.4835 97.3714 18.7325 96.8474 17.8592C96.3234 16.9858 80.3943 10.1983 79.6374 10.0652C78.8805 9.92376 74.7714 9.58272 74.4303 9.65758C74.0893 9.72413 68.6742 7.27863 68.6742 7.27863C68.6742 7.27863 68.7574 5.73147 68.1336 5.38212C67.5097 5.03276 56.8543 0.0752146 53.9597 0.000352315C50.1999 -0.082828 5.46556 14.5902 4.13468 15.0726C1.84722 15.8961 3.59401 21.9184 4.39254 27.1338C5.19107 32.3492 12.2198 80.1196 13.8252 82.3322C15.4306 84.5448 45.3339 99.9913 47.9457 99.9913C48.3866 99.9913 49.8006 100.208 50.3912 98.4775C53.2942 89.8933 56.6297 63.1674 57.0623 63.4835Z" fill="#34AA70"/>
<path d="M7.16246 17.6179C12.8603 16.1623 39.8357 7.37012 43.6786 6.03092C47.796 4.60022 50.9901 3.18615 55.3405 3.85991C56.7129 4.06786 60.2731 5.50688 65.3387 7.65293C66.1123 7.98565 64.1077 9.2084 64.9228 9.55776C65.8794 9.96534 69.6475 9.50785 70.629 9.93207C80.6605 14.324 91.5987 19.398 91.5987 19.398L49.4929 38.388L47.821 37.9389L12.6357 21.7437L7.16246 17.6179Z" fill="white"/>
<path d="M50.1833 36.8492C50.1833 36.8492 38.7045 30.4527 38.0141 29.8787C36.783 28.839 35.4687 23.0663 35.6101 22.7335C36.051 21.7021 64.0828 11.1299 64.0828 11.1299C64.0828 11.1299 78.3814 11.3129 79.2798 11.2879C81.4508 11.2214 81.5589 9.95705 78.0071 9.69087C74.4553 9.42469 67.044 8.84243 66.6364 8.56794C66.1955 8.27681 68.0089 6.9376 68.4497 6.02262C68.7658 5.35718 67.6761 4.70837 65.7963 6.14739C64.482 7.15387 61.9367 8.80916 61.9367 8.80916C61.9367 8.80916 56.8045 10.3314 49.5761 13.251C41.4827 16.5117 33.0066 20.1799 32.1166 20.3379C30.4197 20.6374 21.2865 21.8518 19.4898 21.752C17.6931 21.6522 5.47394 16.1041 4.73363 15.8628C3.39443 15.4137 2.5959 16.6115 3.74379 17.5098C4.89167 18.4082 16.5535 24.7715 18.7994 25.021C21.0453 25.2705 31.9419 24.1476 31.9419 24.1476C31.9419 24.1476 33.4641 31.4591 34.5122 32.2078C35.5602 32.9564 48.029 38.6542 48.2868 39.2781C48.8441 40.609 48.1288 99.2011 48.6861 99.6919C49.2434 100.183 51.0235 99.4091 55.1409 97.2631C59.2583 95.117 80.0534 84.1206 81.6005 83.0891C83.1477 82.0577 83.8298 80.6852 84.3455 78.2813C84.8612 75.8774 96.9722 22.5339 97.2301 21.1614C97.488 19.789 97.7458 17.2104 95.5083 17.6429C93.279 18.0754 66.8194 29.4961 66.8194 29.4961L50.1833 36.8492Z" fill="#1F8050"/>
<path d="M65.5384 43.7449C65.6382 42.4057 80.1033 26.3519 81.1347 25.7031C82.1662 25.0543 94.2356 18.8324 94.9343 18.3998C95.6414 17.9673 96.0157 16.9359 94.1774 17.4266C92.3391 17.9174 79.0136 24.0644 78.423 24.5469C77.8325 25.0293 73.6152 29.3297 73.6152 29.3297C73.6152 29.3297 70.1466 28.1735 69.739 28.2068C68.7159 28.29 51.1566 35.9841 50.4495 36.2586C49.7425 36.5331 49.0937 37.9389 51.0983 37.5063C53.103 37.0738 68.7409 31.0682 69.3398 30.9601C69.9387 30.8519 72.2178 31.8501 72.2178 31.8501C72.2178 31.8501 62.7352 42.3058 62.7852 43.7781C62.8683 46.024 70.3962 60.6138 70.1799 61.6369C69.9636 62.6684 50.749 94.751 48.7526 98.1531C47.8293 99.7252 49.3183 100.673 50.4495 99.2677C51.5808 97.8619 71.2113 66.5446 72.2677 66.4032C73.3241 66.2701 81.3094 81.7083 81.7419 82.2241C82.1745 82.7315 83.7549 81.8331 83.1144 80.6603C82.241 79.0632 76.4517 67.9254 73.5986 61.9946C68.0505 50.4741 65.397 45.6414 65.5384 43.7449Z" fill="#1C7047"/>
</svg>
