<svg width="100" height="100" viewBox="0 0 100 100" fill="none" xmlns="http://www.w3.org/2000/svg">
<path d="M49.6794 100C8.70804 100 3.30302 59.6667 8.78746 45.2612C15.1396 30.8773 19.5067 30.4777 26.6529 24.0848C33.7991 17.692 33.7991 17.1808 27.4469 10.7879C21.0948 4.39508 23.8738 0 37.3721 0C50.8705 0 40.2521 13 48.1923 13C56.1325 13 47.4906 2.33333 62.5769 2.33333C69.7692 2.33333 70.1898 6.66964 67.8077 9.33333C62.5142 13.7284 60.5035 18.4792 70.7209 22.8862C79.0581 26.4822 87.3953 38.4688 90.9684 50.0558C94.5415 61.6429 90.6508 100 49.6794 100Z" fill="#34AA70"/>
<path d="M36.998 55.0981C36.0662 54.1896 34.8294 54.6054 34.2344 56.0237C33.6394 57.4421 33.9107 59.3275 34.8425 60.2303C35.7743 61.1388 38.1357 61.8167 38.7325 60.3983C39.3275 58.98 37.9298 56.0038 36.998 55.0981ZM55.2113 52.1504C54.1597 52.6687 52.313 55.0155 52.6554 56.6161C52.9978 58.2167 55.3947 58.4617 56.4462 57.9433C57.4978 57.425 58.0722 55.7048 57.7298 54.1042C57.3893 52.5064 56.2591 51.6292 55.2113 52.1504ZM75.6231 72.1864C74.7774 71.1041 72.6574 72.8272 71.9445 74.1145C71.2335 75.4047 71.3439 77.3242 72.1896 78.4065C73.0354 79.4888 74.2984 79.3207 75.0094 78.0334C75.7223 76.7432 76.4707 73.2686 75.6231 72.1864ZM68.8067 57.9462C67.8749 57.0405 66.6381 57.4563 66.0412 58.8746C65.4462 60.293 65.7194 62.1755 66.6512 63.0812C67.583 63.9897 69.9443 64.6676 70.5393 63.2492C71.1362 61.8281 69.7385 58.8518 68.8067 57.9462ZM40.7402 77.8825C39.8084 76.9768 38.5716 77.3926 37.9747 78.8109C37.3797 80.2264 37.6529 82.1118 38.5847 83.0146C39.5165 83.9232 41.8779 84.6038 42.4729 83.1827C43.0697 81.7643 41.672 78.7881 40.7402 77.8825ZM46.4396 64.1891C45.8109 65.5732 45.2795 69.1418 46.1907 70.0988C47.1001 71.0557 49.104 69.0336 49.7327 67.6495C50.3614 66.2653 50.1313 64.3685 49.2219 63.4116C48.3144 62.4546 47.0664 62.8049 46.4396 64.1891ZM61.3223 77.8825C60.3905 76.9768 59.1537 77.3926 58.5568 78.8109C57.9618 80.2264 58.235 82.1147 59.1668 83.0146C60.0986 83.9232 62.4599 84.6038 63.0549 83.1827C63.6518 81.7643 62.2541 78.7881 61.3223 77.8825ZM26.0783 66.8121C25.3411 68.0681 24.5197 71.5057 25.3448 72.6278C26.1662 73.75 28.3217 72.1323 29.059 70.8763C29.798 69.6231 29.7269 67.6979 28.9037 66.5729C28.0822 65.4508 26.8155 65.559 26.0783 66.8121Z" fill="#D3EDE0"/>
</svg>
